<?xml version="1.0" encoding="utf-8" standalone="no"?>
<!DOCTYPE svg PUBLIC "-//W3C//DTD SVG 1.1//EN"
  "http://www.w3.org/Graphics/SVG/1.1/DTD/svg11.dtd">
<svg xmlns:xlink="http://www.w3.org/1999/xlink" width="576pt" height="648pt" viewBox="0 0 576 648" xmlns="http://www.w3.org/2000/svg" version="1.1">
 <metadata>
  <rdf:RDF xmlns:dc="http://purl.org/dc/elements/1.1/" xmlns:cc="http://creativecommons.org/ns#" xmlns:rdf="http://www.w3.org/1999/02/22-rdf-syntax-ns#">
   <cc:Work>
    <dc:type rdf:resource="http://purl.org/dc/dcmitype/StillImage"/>
    <dc:date>2025-01-14T09:11:21.985078</dc:date>
    <dc:format>image/svg+xml</dc:format>
    <dc:creator>
     <cc:Agent>
      <dc:title>Matplotlib v3.7.2, https://matplotlib.org/</dc:title>
     </cc:Agent>
    </dc:creator>
   </cc:Work>
  </rdf:RDF>
 </metadata>
 <defs>
  <style type="text/css">*{stroke-linejoin: round; stroke-linecap: butt}</style>
 </defs>
 <g id="figure_1">
  <g id="patch_1">
   <path d="M 0 648 
L 576 648 
L 576 0 
L 0 0 
z
" style="fill: #ffffff"/>
  </g>
  <g id="axes_1">
   <g id="patch_2">
    <path d="M 72 224.512941 
L 518.4 224.512941 
L 518.4 77.76 
L 72 77.76 
z
" style="fill: #ffffff"/>
   </g>
   <g id="PolyCollection_1">
    <defs>
     <path id="m7d4ba18f9a" d="M 92.290909 -495.423339 
L 92.290909 -456.484656 
L 104.226738 -471.346348 
L 116.162567 -467.761524 
L 128.098396 -454.795039 
L 140.034225 -440.465167 
L 151.970053 -457.451607 
L 163.905882 -473.932386 
L 175.841711 -465.578923 
L 187.77754 -430.157647 
L 199.713369 -436.670728 
L 211.649198 -458.484198 
L 223.585027 -452.623004 
L 235.520856 -449.88663 
L 247.456684 -477.967535 
L 259.392513 -500.132903 
L 271.328342 -492.547143 
L 283.264171 -497.199967 
L 295.2 -506.451991 
L 307.135829 -487.151746 
L 319.071658 -486.69277 
L 331.007487 -493.358585 
L 342.943316 -501.517168 
L 354.879144 -483.694099 
L 366.814973 -466.557322 
L 378.750802 -460.271502 
L 390.686631 -469.436579 
L 402.62246 -470.525739 
L 414.558289 -461.448464 
L 426.494118 -453.454321 
L 438.429947 -452.227675 
L 450.365775 -447.840659 
L 462.301604 -440.201328 
L 474.237433 -440.494548 
L 486.173262 -461.481412 
L 498.109091 -463.35092 
L 498.109091 -516.208245 
L 498.109091 -516.208245 
L 486.173262 -513.292697 
L 474.237433 -508.200512 
L 462.301604 -505.669041 
L 450.365775 -511.014582 
L 438.429947 -511.524527 
L 426.494118 -515.855465 
L 414.558289 -530.340385 
L 402.62246 -525.965534 
L 390.686631 -530.643801 
L 378.750802 -525.942234 
L 366.814973 -517.457996 
L 354.879144 -537.304476 
L 342.943316 -548.242435 
L 331.007487 -543.375144 
L 319.071658 -537.628706 
L 307.135829 -546.748127 
L 295.2 -561.389808 
L 283.264171 -540.662928 
L 271.328342 -543.911957 
L 259.392513 -552.76394 
L 247.456684 -524.756448 
L 235.520856 -507.691743 
L 223.585027 -504.009834 
L 211.649198 -519.856574 
L 199.713369 -496.264967 
L 187.77754 -493.060482 
L 175.841711 -522.473622 
L 163.905882 -517.068975 
L 151.970053 -506.831442 
L 140.034225 -504.110487 
L 128.098396 -515.530091 
L 116.162567 -505.764811 
L 104.226738 -496.17802 
L 92.290909 -495.423339 
z
" style="stroke: #7f7f7f; stroke-opacity: 0.2"/>
    </defs>
    <g clip-path="url(#p48d55ec44b)">
     <use xlink:href="#m7d4ba18f9a" x="0" y="648" style="fill: #7f7f7f; fill-opacity: 0.2; stroke: #7f7f7f; stroke-opacity: 0.2"/>
    </g>
   </g>
   <g id="PolyCollection_2">
    <defs>
     <path id="m2f4888388b" d="M 92.290909 -505.90201 
L 92.290909 -474.73158 
L 104.226738 -478.661621 
L 116.162567 -453.050457 
L 128.098396 -451.77327 
L 140.034225 -462.245913 
L 151.970053 -457.856928 
L 163.905882 -452.362592 
L 175.841711 -451.532988 
L 187.77754 -457.583098 
L 199.713369 -470.954873 
L 211.649198 -474.85065 
L 223.585027 -468.954903 
L 235.520856 -468.495359 
L 247.456684 -484.220888 
L 259.392513 -491.453528 
L 271.328342 -506.799522 
L 283.264171 -510.212422 
L 295.2 -499.907216 
L 307.135829 -494.076573 
L 319.071658 -490.586233 
L 331.007487 -495.974176 
L 342.943316 -502.729252 
L 354.879144 -501.553574 
L 366.814973 -484.836368 
L 378.750802 -468.907821 
L 390.686631 -479.559326 
L 402.62246 -464.781442 
L 414.558289 -447.671649 
L 426.494118 -462.570572 
L 438.429947 -463.539977 
L 450.365775 -457.07598 
L 462.301604 -436.888737 
L 474.237433 -434.855359 
L 486.173262 -477.425948 
L 498.109091 -447.569883 
L 498.109091 -517.943379 
L 498.109091 -517.943379 
L 486.173262 -547.462055 
L 474.237433 -504.714659 
L 462.301604 -493.355728 
L 450.365775 -514.443361 
L 438.429947 -532.185479 
L 426.494118 -536.490432 
L 414.558289 -512.436397 
L 402.62246 -519.262713 
L 390.686631 -529.864277 
L 378.750802 -527.292834 
L 366.814973 -539.891542 
L 354.879144 -553.974739 
L 342.943316 -558.857309 
L 331.007487 -551.683807 
L 319.071658 -538.946326 
L 307.135829 -545.882545 
L 295.2 -551.613993 
L 283.264171 -562.704687 
L 271.328342 -563.569412 
L 259.392513 -542.939297 
L 247.456684 -531.302937 
L 235.520856 -518.291338 
L 223.585027 -514.603721 
L 211.649198 -525.709233 
L 199.713369 -534.753387 
L 187.77754 -526.882513 
L 175.841711 -512.611716 
L 163.905882 -506.964902 
L 151.970053 -518.754309 
L 140.034225 -516.201252 
L 128.098396 -496.015122 
L 116.162567 -485.038499 
L 104.226738 -496.857287 
L 92.290909 -505.90201 
z
" style="stroke: #17becf; stroke-opacity: 0.2"/>
    </defs>
    <g clip-path="url(#p48d55ec44b)">
     <use xlink:href="#m2f4888388b" x="0" y="648" style="fill: #17becf; fill-opacity: 0.2; stroke: #17becf; stroke-opacity: 0.2"/>
    </g>
   </g>
   <g id="matplotlib.axis_1">
    <g id="xtick_1">
     <g id="line2d_1">
      <defs>
       <path id="m2ebd4ef7cc" d="M 0 0 
L 0 3.5 
" style="stroke: #000000; stroke-width: 0.8"/>
      </defs>
      <g>
       <use xlink:href="#m2ebd4ef7cc" x="80.35508" y="224.512941" style="stroke: #000000; stroke-width: 0.8"/>
      </g>
     </g>
     <g id="text_1">
      <!-- −2 -->
      <g transform="translate(72.983986 239.111379) scale(0.1 -0.1)">
       <defs>
        <path id="DejaVuSans-2212" d="M 678 2272 
L 4684 2272 
L 4684 1741 
L 678 1741 
L 678 2272 
z
" transform="scale(0.015625)"/>
        <path id="DejaVuSans-32" d="M 1228 531 
L 3431 531 
L 3431 0 
L 469 0 
L 469 531 
Q 828 903 1448 1529 
Q 2069 2156 2228 2338 
Q 2531 2678 2651 2914 
Q 2772 3150 2772 3378 
Q 2772 3750 2511 3984 
Q 2250 4219 1831 4219 
Q 1534 4219 1204 4116 
Q 875 4013 500 3803 
L 500 4441 
Q 881 4594 1212 4672 
Q 1544 4750 1819 4750 
Q 2544 4750 2975 4387 
Q 3406 4025 3406 3419 
Q 3406 3131 3298 2873 
Q 3191 2616 2906 2266 
Q 2828 2175 2409 1742 
Q 1991 1309 1228 531 
z
" transform="scale(0.015625)"/>
       </defs>
       <use xlink:href="#DejaVuSans-2212"/>
       <use xlink:href="#DejaVuSans-32" x="83.789062"/>
      </g>
     </g>
    </g>
    <g id="xtick_2">
     <g id="line2d_2">
      <g>
       <use xlink:href="#m2ebd4ef7cc" x="140.034225" y="224.512941" style="stroke: #000000; stroke-width: 0.8"/>
      </g>
     </g>
     <g id="text_2">
      <!-- −1 -->
      <g transform="translate(132.663131 239.111379) scale(0.1 -0.1)">
       <defs>
        <path id="DejaVuSans-31" d="M 794 531 
L 1825 531 
L 1825 4091 
L 703 3866 
L 703 4441 
L 1819 4666 
L 2450 4666 
L 2450 531 
L 3481 531 
L 3481 0 
L 794 0 
L 794 531 
z
" transform="scale(0.015625)"/>
       </defs>
       <use xlink:href="#DejaVuSans-2212"/>
       <use xlink:href="#DejaVuSans-31" x="83.789062"/>
      </g>
     </g>
    </g>
    <g id="xtick_3">
     <g id="line2d_3">
      <g>
       <use xlink:href="#m2ebd4ef7cc" x="199.713369" y="224.512941" style="stroke: #000000; stroke-width: 0.8"/>
      </g>
     </g>
     <g id="text_3">
      <!-- 0 -->
      <g transform="translate(196.532119 239.111379) scale(0.1 -0.1)">
       <defs>
        <path id="DejaVuSans-30" d="M 2034 4250 
Q 1547 4250 1301 3770 
Q 1056 3291 1056 2328 
Q 1056 1369 1301 889 
Q 1547 409 2034 409 
Q 2525 409 2770 889 
Q 3016 1369 3016 2328 
Q 3016 3291 2770 3770 
Q 2525 4250 2034 4250 
z
M 2034 4750 
Q 2819 4750 3233 4129 
Q 3647 3509 3647 2328 
Q 3647 1150 3233 529 
Q 2819 -91 2034 -91 
Q 1250 -91 836 529 
Q 422 1150 422 2328 
Q 422 3509 836 4129 
Q 1250 4750 2034 4750 
z
" transform="scale(0.015625)"/>
       </defs>
       <use xlink:href="#DejaVuSans-30"/>
      </g>
     </g>
    </g>
    <g id="xtick_4">
     <g id="line2d_4">
      <g>
       <use xlink:href="#m2ebd4ef7cc" x="259.392513" y="224.512941" style="stroke: #000000; stroke-width: 0.8"/>
      </g>
     </g>
     <g id="text_4">
      <!-- 1 -->
      <g transform="translate(256.211263 239.111379) scale(0.1 -0.1)">
       <use xlink:href="#DejaVuSans-31"/>
      </g>
     </g>
    </g>
    <g id="xtick_5">
     <g id="line2d_5">
      <g>
       <use xlink:href="#m2ebd4ef7cc" x="319.071658" y="224.512941" style="stroke: #000000; stroke-width: 0.8"/>
      </g>
     </g>
     <g id="text_5">
      <!-- 2 -->
      <g transform="translate(315.890408 239.111379) scale(0.1 -0.1)">
       <use xlink:href="#DejaVuSans-32"/>
      </g>
     </g>
    </g>
    <g id="xtick_6">
     <g id="line2d_6">
      <g>
       <use xlink:href="#m2ebd4ef7cc" x="378.750802" y="224.512941" style="stroke: #000000; stroke-width: 0.8"/>
      </g>
     </g>
     <g id="text_6">
      <!-- 3 -->
      <g transform="translate(375.569552 239.111379) scale(0.1 -0.1)">
       <defs>
        <path id="DejaVuSans-33" d="M 2597 2516 
Q 3050 2419 3304 2112 
Q 3559 1806 3559 1356 
Q 3559 666 3084 287 
Q 2609 -91 1734 -91 
Q 1441 -91 1130 -33 
Q 819 25 488 141 
L 488 750 
Q 750 597 1062 519 
Q 1375 441 1716 441 
Q 2309 441 2620 675 
Q 2931 909 2931 1356 
Q 2931 1769 2642 2001 
Q 2353 2234 1838 2234 
L 1294 2234 
L 1294 2753 
L 1863 2753 
Q 2328 2753 2575 2939 
Q 2822 3125 2822 3475 
Q 2822 3834 2567 4026 
Q 2313 4219 1838 4219 
Q 1578 4219 1281 4162 
Q 984 4106 628 3988 
L 628 4550 
Q 988 4650 1302 4700 
Q 1616 4750 1894 4750 
Q 2613 4750 3031 4423 
Q 3450 4097 3450 3541 
Q 3450 3153 3228 2886 
Q 3006 2619 2597 2516 
z
" transform="scale(0.015625)"/>
       </defs>
       <use xlink:href="#DejaVuSans-33"/>
      </g>
     </g>
    </g>
    <g id="xtick_7">
     <g id="line2d_7">
      <g>
       <use xlink:href="#m2ebd4ef7cc" x="438.429947" y="224.512941" style="stroke: #000000; stroke-width: 0.8"/>
      </g>
     </g>
     <g id="text_7">
      <!-- 4 -->
      <g transform="translate(435.248697 239.111379) scale(0.1 -0.1)">
       <defs>
        <path id="DejaVuSans-34" d="M 2419 4116 
L 825 1625 
L 2419 1625 
L 2419 4116 
z
M 2253 4666 
L 3047 4666 
L 3047 1625 
L 3713 1625 
L 3713 1100 
L 3047 1100 
L 3047 0 
L 2419 0 
L 2419 1100 
L 313 1100 
L 313 1709 
L 2253 4666 
z
" transform="scale(0.015625)"/>
       </defs>
       <use xlink:href="#DejaVuSans-34"/>
      </g>
     </g>
    </g>
    <g id="xtick_8">
     <g id="line2d_8">
      <g>
       <use xlink:href="#m2ebd4ef7cc" x="498.109091" y="224.512941" style="stroke: #000000; stroke-width: 0.8"/>
      </g>
     </g>
     <g id="text_8">
      <!-- 5 -->
      <g transform="translate(494.927841 239.111379) scale(0.1 -0.1)">
       <defs>
        <path id="DejaVuSans-35" d="M 691 4666 
L 3169 4666 
L 3169 4134 
L 1269 4134 
L 1269 2991 
Q 1406 3038 1543 3061 
Q 1681 3084 1819 3084 
Q 2600 3084 3056 2656 
Q 3513 2228 3513 1497 
Q 3513 744 3044 326 
Q 2575 -91 1722 -91 
Q 1428 -91 1123 -41 
Q 819 9 494 109 
L 494 744 
Q 775 591 1075 516 
Q 1375 441 1709 441 
Q 2250 441 2565 725 
Q 2881 1009 2881 1497 
Q 2881 1984 2565 2268 
Q 2250 2553 1709 2553 
Q 1456 2553 1204 2497 
Q 953 2441 691 2322 
L 691 4666 
z
" transform="scale(0.015625)"/>
       </defs>
       <use xlink:href="#DejaVuSans-35"/>
      </g>
     </g>
    </g>
   </g>
   <g id="matplotlib.axis_2">
    <g id="ytick_1">
     <g id="line2d_9">
      <defs>
       <path id="me1664f0153" d="M 0 0 
L -3.5 0 
" style="stroke: #000000; stroke-width: 0.8"/>
      </defs>
      <g>
       <use xlink:href="#me1664f0153" x="72" y="198.183553" style="stroke: #000000; stroke-width: 0.8"/>
      </g>
     </g>
     <g id="text_9">
      <!-- −0.1 -->
      <g transform="translate(40.717187 201.982771) scale(0.1 -0.1)">
       <defs>
        <path id="DejaVuSans-2e" d="M 684 794 
L 1344 794 
L 1344 0 
L 684 0 
L 684 794 
z
" transform="scale(0.015625)"/>
       </defs>
       <use xlink:href="#DejaVuSans-2212"/>
       <use xlink:href="#DejaVuSans-30" x="83.789062"/>
       <use xlink:href="#DejaVuSans-2e" x="147.412109"/>
       <use xlink:href="#DejaVuSans-31" x="179.199219"/>
      </g>
     </g>
    </g>
    <g id="ytick_2">
     <g id="line2d_10">
      <g>
       <use xlink:href="#me1664f0153" x="72" y="165.802383" style="stroke: #000000; stroke-width: 0.8"/>
      </g>
     </g>
     <g id="text_10">
      <!-- 0.0 -->
      <g transform="translate(49.096875 169.601602) scale(0.1 -0.1)">
       <use xlink:href="#DejaVuSans-30"/>
       <use xlink:href="#DejaVuSans-2e" x="63.623047"/>
       <use xlink:href="#DejaVuSans-30" x="95.410156"/>
      </g>
     </g>
    </g>
    <g id="ytick_3">
     <g id="line2d_11">
      <g>
       <use xlink:href="#me1664f0153" x="72" y="133.421213" style="stroke: #000000; stroke-width: 0.8"/>
      </g>
     </g>
     <g id="text_11">
      <!-- 0.1 -->
      <g transform="translate(49.096875 137.220432) scale(0.1 -0.1)">
       <use xlink:href="#DejaVuSans-30"/>
       <use xlink:href="#DejaVuSans-2e" x="63.623047"/>
       <use xlink:href="#DejaVuSans-31" x="95.410156"/>
      </g>
     </g>
    </g>
    <g id="ytick_4">
     <g id="line2d_12">
      <g>
       <use xlink:href="#me1664f0153" x="72" y="101.040044" style="stroke: #000000; stroke-width: 0.8"/>
      </g>
     </g>
     <g id="text_12">
      <!-- 0.2 -->
      <g transform="translate(49.096875 104.839263) scale(0.1 -0.1)">
       <use xlink:href="#DejaVuSans-30"/>
       <use xlink:href="#DejaVuSans-2e" x="63.623047"/>
       <use xlink:href="#DejaVuSans-32" x="95.410156"/>
      </g>
     </g>
    </g>
    <g id="text_13">
     <!-- Lick Rate -->
     <g transform="translate(34.6375 174.007564) rotate(-90) scale(0.1 -0.1)">
      <defs>
       <path id="DejaVuSans-4c" d="M 628 4666 
L 1259 4666 
L 1259 531 
L 3531 531 
L 3531 0 
L 628 0 
L 628 4666 
z
" transform="scale(0.015625)"/>
       <path id="DejaVuSans-69" d="M 603 3500 
L 1178 3500 
L 1178 0 
L 603 0 
L 603 3500 
z
M 603 4863 
L 1178 4863 
L 1178 4134 
L 603 4134 
L 603 4863 
z
" transform="scale(0.015625)"/>
       <path id="DejaVuSans-63" d="M 3122 3366 
L 3122 2828 
Q 2878 2963 2633 3030 
Q 2388 3097 2138 3097 
Q 1578 3097 1268 2742 
Q 959 2388 959 1747 
Q 959 1106 1268 751 
Q 1578 397 2138 397 
Q 2388 397 2633 464 
Q 2878 531 3122 666 
L 3122 134 
Q 2881 22 2623 -34 
Q 2366 -91 2075 -91 
Q 1284 -91 818 406 
Q 353 903 353 1747 
Q 353 2603 823 3093 
Q 1294 3584 2113 3584 
Q 2378 3584 2631 3529 
Q 2884 3475 3122 3366 
z
" transform="scale(0.015625)"/>
       <path id="DejaVuSans-6b" d="M 581 4863 
L 1159 4863 
L 1159 1991 
L 2875 3500 
L 3609 3500 
L 1753 1863 
L 3688 0 
L 2938 0 
L 1159 1709 
L 1159 0 
L 581 0 
L 581 4863 
z
" transform="scale(0.015625)"/>
       <path id="DejaVuSans-20" transform="scale(0.015625)"/>
       <path id="DejaVuSans-52" d="M 2841 2188 
Q 3044 2119 3236 1894 
Q 3428 1669 3622 1275 
L 4263 0 
L 3584 0 
L 2988 1197 
Q 2756 1666 2539 1819 
Q 2322 1972 1947 1972 
L 1259 1972 
L 1259 0 
L 628 0 
L 628 4666 
L 2053 4666 
Q 2853 4666 3247 4331 
Q 3641 3997 3641 3322 
Q 3641 2881 3436 2590 
Q 3231 2300 2841 2188 
z
M 1259 4147 
L 1259 2491 
L 2053 2491 
Q 2509 2491 2742 2702 
Q 2975 2913 2975 3322 
Q 2975 3731 2742 3939 
Q 2509 4147 2053 4147 
L 1259 4147 
z
" transform="scale(0.015625)"/>
       <path id="DejaVuSans-61" d="M 2194 1759 
Q 1497 1759 1228 1600 
Q 959 1441 959 1056 
Q 959 750 1161 570 
Q 1363 391 1709 391 
Q 2188 391 2477 730 
Q 2766 1069 2766 1631 
L 2766 1759 
L 2194 1759 
z
M 3341 1997 
L 3341 0 
L 2766 0 
L 2766 531 
Q 2569 213 2275 61 
Q 1981 -91 1556 -91 
Q 1019 -91 701 211 
Q 384 513 384 1019 
Q 384 1609 779 1909 
Q 1175 2209 1959 2209 
L 2766 2209 
L 2766 2266 
Q 2766 2663 2505 2880 
Q 2244 3097 1772 3097 
Q 1472 3097 1187 3025 
Q 903 2953 641 2809 
L 641 3341 
Q 956 3463 1253 3523 
Q 1550 3584 1831 3584 
Q 2591 3584 2966 3190 
Q 3341 2797 3341 1997 
z
" transform="scale(0.015625)"/>
       <path id="DejaVuSans-74" d="M 1172 4494 
L 1172 3500 
L 2356 3500 
L 2356 3053 
L 1172 3053 
L 1172 1153 
Q 1172 725 1289 603 
Q 1406 481 1766 481 
L 2356 481 
L 2356 0 
L 1766 0 
Q 1100 0 847 248 
Q 594 497 594 1153 
L 594 3053 
L 172 3053 
L 172 3500 
L 594 3500 
L 594 4494 
L 1172 4494 
z
" transform="scale(0.015625)"/>
       <path id="DejaVuSans-65" d="M 3597 1894 
L 3597 1613 
L 953 1613 
Q 991 1019 1311 708 
Q 1631 397 2203 397 
Q 2534 397 2845 478 
Q 3156 559 3463 722 
L 3463 178 
Q 3153 47 2828 -22 
Q 2503 -91 2169 -91 
Q 1331 -91 842 396 
Q 353 884 353 1716 
Q 353 2575 817 3079 
Q 1281 3584 2069 3584 
Q 2775 3584 3186 3129 
Q 3597 2675 3597 1894 
z
M 3022 2063 
Q 3016 2534 2758 2815 
Q 2500 3097 2075 3097 
Q 1594 3097 1305 2825 
Q 1016 2553 972 2059 
L 3022 2063 
z
" transform="scale(0.015625)"/>
      </defs>
      <use xlink:href="#DejaVuSans-4c"/>
      <use xlink:href="#DejaVuSans-69" x="55.712891"/>
      <use xlink:href="#DejaVuSans-63" x="83.496094"/>
      <use xlink:href="#DejaVuSans-6b" x="138.476562"/>
      <use xlink:href="#DejaVuSans-20" x="196.386719"/>
      <use xlink:href="#DejaVuSans-52" x="228.173828"/>
      <use xlink:href="#DejaVuSans-61" x="295.40625"/>
      <use xlink:href="#DejaVuSans-74" x="356.685547"/>
      <use xlink:href="#DejaVuSans-65" x="395.894531"/>
     </g>
    </g>
   </g>
   <g id="line2d_13">
    <path d="M 92.290909 172.709937 
L 104.226738 163.777399 
L 116.162567 160.919813 
L 128.098396 163.828796 
L 140.034225 174.745168 
L 151.970053 166.429396 
L 163.905882 152.501247 
L 175.841711 152.861027 
L 187.77754 185.815732 
L 199.713369 180.511737 
L 211.649198 158.576199 
L 223.585027 169.235585 
L 235.520856 171.733391 
L 247.456684 146.52909 
L 259.392513 121.427583 
L 271.328342 129.229383 
L 283.264171 129.126589 
L 295.2 115.661014 
L 307.135829 132.035572 
L 319.071658 137.699346 
L 331.007487 129.434972 
L 342.943316 124.028183 
L 354.879144 138.059126 
L 366.814973 157.548256 
L 378.750802 154.999053 
L 390.686631 146.734678 
L 402.62246 149.386676 
L 414.558289 152.398453 
L 426.494118 163.520413 
L 438.429947 166.480794 
L 450.365775 166.686382 
L 462.301604 174.89936 
L 474.237433 172.093171 
L 486.173262 160.97121 
L 498.109091 158.473404 
" clip-path="url(#p48d55ec44b)" style="fill: none; stroke: #7f7f7f; stroke-width: 1.5; stroke-linecap: square"/>
   </g>
   <g id="line2d_14">
    <path d="M 92.290909 157.6922 
L 104.226738 160.241403 
L 116.162567 179.473547 
L 128.098396 174.015361 
L 140.034225 157.435214 
L 151.970053 160.035814 
L 163.905882 168.300189 
L 175.841711 165.545397 
L 187.77754 157.024037 
L 199.713369 145.902076 
L 211.649198 148.605471 
L 223.585027 156.921243 
L 235.520856 156.767051 
L 247.456684 140.08411 
L 259.392513 131.20297 
L 271.328342 114.468632 
L 283.264171 111.611046 
L 295.2 122.68161 
L 307.135829 128.499576 
L 319.071658 133.906364 
L 331.007487 122.938595 
L 342.943316 119.978215 
L 354.879144 120.235201 
L 366.814973 137.020936 
L 378.750802 150.949085 
L 390.686631 143.198682 
L 402.62246 157.024037 
L 414.558289 167.940409 
L 426.494118 148.913854 
L 438.429947 151.463057 
L 450.365775 160.190006 
L 462.301604 182.331132 
L 474.237433 179.216561 
L 486.173262 138.357262 
L 498.109091 165.750986 
" clip-path="url(#p48d55ec44b)" style="fill: none; stroke: #17becf; stroke-width: 1.5; stroke-linecap: square"/>
   </g>
   <g id="line2d_15"/>
   <g id="line2d_16"/>
   <g id="patch_3">
    <path d="M 72 224.512941 
L 72 77.76 
" style="fill: none; stroke: #000000; stroke-width: 0.8; stroke-linejoin: miter; stroke-linecap: square"/>
   </g>
   <g id="patch_4">
    <path d="M 72 224.512941 
L 518.4 224.512941 
" style="fill: none; stroke: #000000; stroke-width: 0.8; stroke-linejoin: miter; stroke-linecap: square"/>
   </g>
   <g id="text_14">
    <!-- N47 -->
    <g transform="translate(280.045312 71.76) scale(0.15 -0.15)">
     <defs>
      <path id="DejaVuSans-4e" d="M 628 4666 
L 1478 4666 
L 3547 763 
L 3547 4666 
L 4159 4666 
L 4159 0 
L 3309 0 
L 1241 3903 
L 1241 0 
L 628 0 
L 628 4666 
z
" transform="scale(0.015625)"/>
      <path id="DejaVuSans-37" d="M 525 4666 
L 3525 4666 
L 3525 4397 
L 1831 0 
L 1172 0 
L 2766 4134 
L 525 4134 
L 525 4666 
z
" transform="scale(0.015625)"/>
     </defs>
     <use xlink:href="#DejaVuSans-4e"/>
     <use xlink:href="#DejaVuSans-34" x="74.804688"/>
     <use xlink:href="#DejaVuSans-37" x="138.427734"/>
    </g>
   </g>
  </g>
  <g id="axes_2">
   <g id="patch_5">
    <path d="M 72 400.616471 
L 518.4 400.616471 
L 518.4 253.863529 
L 72 253.863529 
z
" style="fill: #ffffff"/>
   </g>
   <g id="PolyCollection_3">
    <defs>
     <path id="m7af735ece9" d="M 92.290909 -322.710191 
L 92.290909 -317.248152 
L 104.226738 -314.532655 
L 116.162567 -307.60636 
L 128.098396 -300.383195 
L 140.034225 -294.277569 
L 151.970053 -289.002619 
L 163.905882 -286.010811 
L 175.841711 -284.179548 
L 187.77754 -285.168069 
L 199.713369 -287.387818 
L 211.649198 -287.385002 
L 223.585027 -283.947118 
L 235.520856 -273.993924 
L 247.456684 -270.338387 
L 259.392513 -267.114891 
L 271.328342 -260.910593 
L 283.264171 -254.927111 
L 295.2 -256.179262 
L 307.135829 -254.054118 
L 319.071658 -254.51422 
L 331.007487 -254.953995 
L 342.943316 -257.123646 
L 354.879144 -258.291441 
L 366.814973 -261.599295 
L 378.750802 -267.326792 
L 390.686631 -275.200063 
L 402.62246 -285.306654 
L 414.558289 -298.183491 
L 426.494118 -307.683019 
L 438.429947 -317.005108 
L 450.365775 -324.195668 
L 462.301604 -329.978315 
L 474.237433 -335.626666 
L 486.173262 -339.007953 
L 498.109091 -338.1534 
L 498.109091 -370.751936 
L 498.109091 -370.751936 
L 486.173262 -372.743623 
L 474.237433 -371.970624 
L 462.301604 -367.120603 
L 450.365775 -361.566152 
L 438.429947 -355.895045 
L 426.494118 -344.8411 
L 414.558289 -334.722794 
L 402.62246 -318.828151 
L 390.686631 -305.827649 
L 378.750802 -297.031597 
L 366.814973 -289.143933 
L 354.879144 -285.033108 
L 342.943316 -283.271495 
L 331.007487 -282.178483 
L 319.071658 -280.62271 
L 307.135829 -281.32358 
L 295.2 -281.366579 
L 283.264171 -281.078411 
L 271.328342 -286.028571 
L 259.392513 -292.517152 
L 247.456684 -297.957031 
L 235.520856 -304.066325 
L 223.585027 -311.170585 
L 211.649198 -312.336449 
L 199.713369 -310.4113 
L 187.77754 -306.780614 
L 175.841711 -306.431391 
L 163.905882 -308.255626 
L 151.970053 -308.117801 
L 140.034225 -309.031123 
L 128.098396 -311.480889 
L 116.162567 -314.066687 
L 104.226738 -316.882333 
L 92.290909 -322.710191 
z
" style="stroke: #7f7f7f; stroke-opacity: 0.2"/>
    </defs>
    <g clip-path="url(#p681d1ab0ec)">
     <use xlink:href="#m7af735ece9" x="0" y="648" style="fill: #7f7f7f; fill-opacity: 0.2; stroke: #7f7f7f; stroke-opacity: 0.2"/>
    </g>
   </g>
   <g id="PolyCollection_4">
    <defs>
     <path id="m30d1f04606" d="M 92.290909 -325.656962 
L 92.290909 -316.717412 
L 104.226738 -314.800066 
L 116.162567 -305.165048 
L 128.098396 -299.06462 
L 140.034225 -298.110263 
L 151.970053 -295.334209 
L 163.905882 -292.776955 
L 175.841711 -292.911515 
L 187.77754 -295.979267 
L 199.713369 -295.172434 
L 211.649198 -291.857728 
L 223.585027 -287.19227 
L 235.520856 -286.280787 
L 247.456684 -282.119362 
L 259.392513 -279.547966 
L 271.328342 -272.432165 
L 283.264171 -261.867077 
L 295.2 -257.888808 
L 307.135829 -256.833479 
L 319.071658 -259.33767 
L 331.007487 -260.777699 
L 342.943316 -261.073296 
L 354.879144 -262.666768 
L 366.814973 -266.812786 
L 378.750802 -275.133965 
L 390.686631 -288.032488 
L 402.62246 -299.664528 
L 414.558289 -312.409311 
L 426.494118 -324.232387 
L 438.429947 -328.585584 
L 450.365775 -331.752364 
L 462.301604 -333.611666 
L 474.237433 -336.925791 
L 486.173262 -343.51798 
L 498.109091 -351.277117 
L 498.109091 -387.465882 
L 498.109091 -387.465882 
L 486.173262 -377.474817 
L 474.237433 -369.254701 
L 462.301604 -368.423126 
L 450.365775 -365.817569 
L 438.429947 -361.738394 
L 426.494118 -357.070532 
L 414.558289 -345.108193 
L 402.62246 -330.662037 
L 390.686631 -316.140601 
L 378.750802 -301.876953 
L 366.814973 -292.039693 
L 354.879144 -285.663484 
L 342.943316 -284.249647 
L 331.007487 -283.21959 
L 319.071658 -281.261597 
L 307.135829 -281.010518 
L 295.2 -280.028799 
L 283.264171 -284.773275 
L 271.328342 -294.262471 
L 259.392513 -303.567501 
L 247.456684 -307.128535 
L 235.520856 -310.604934 
L 223.585027 -313.708568 
L 211.649198 -317.021827 
L 199.713369 -321.205631 
L 187.77754 -320.488923 
L 175.841711 -314.979505 
L 163.905882 -311.070155 
L 151.970053 -311.758018 
L 140.034225 -311.289877 
L 128.098396 -310.569921 
L 116.162567 -313.727381 
L 104.226738 -316.833209 
L 92.290909 -325.656962 
z
" style="stroke: #17becf; stroke-opacity: 0.2"/>
    </defs>
    <g clip-path="url(#p681d1ab0ec)">
     <use xlink:href="#m30d1f04606" x="0" y="648" style="fill: #17becf; fill-opacity: 0.2; stroke: #17becf; stroke-opacity: 0.2"/>
    </g>
   </g>
   <g id="matplotlib.axis_3">
    <g id="xtick_9">
     <g id="line2d_17">
      <g>
       <use xlink:href="#m2ebd4ef7cc" x="80.35508" y="400.616471" style="stroke: #000000; stroke-width: 0.8"/>
      </g>
     </g>
     <g id="text_15">
      <!-- −2 -->
      <g transform="translate(72.983986 415.214908) scale(0.1 -0.1)">
       <use xlink:href="#DejaVuSans-2212"/>
       <use xlink:href="#DejaVuSans-32" x="83.789062"/>
      </g>
     </g>
    </g>
    <g id="xtick_10">
     <g id="line2d_18">
      <g>
       <use xlink:href="#m2ebd4ef7cc" x="140.034225" y="400.616471" style="stroke: #000000; stroke-width: 0.8"/>
      </g>
     </g>
     <g id="text_16">
      <!-- −1 -->
      <g transform="translate(132.663131 415.214908) scale(0.1 -0.1)">
       <use xlink:href="#DejaVuSans-2212"/>
       <use xlink:href="#DejaVuSans-31" x="83.789062"/>
      </g>
     </g>
    </g>
    <g id="xtick_11">
     <g id="line2d_19">
      <g>
       <use xlink:href="#m2ebd4ef7cc" x="199.713369" y="400.616471" style="stroke: #000000; stroke-width: 0.8"/>
      </g>
     </g>
     <g id="text_17">
      <!-- 0 -->
      <g transform="translate(196.532119 415.214908) scale(0.1 -0.1)">
       <use xlink:href="#DejaVuSans-30"/>
      </g>
     </g>
    </g>
    <g id="xtick_12">
     <g id="line2d_20">
      <g>
       <use xlink:href="#m2ebd4ef7cc" x="259.392513" y="400.616471" style="stroke: #000000; stroke-width: 0.8"/>
      </g>
     </g>
     <g id="text_18">
      <!-- 1 -->
      <g transform="translate(256.211263 415.214908) scale(0.1 -0.1)">
       <use xlink:href="#DejaVuSans-31"/>
      </g>
     </g>
    </g>
    <g id="xtick_13">
     <g id="line2d_21">
      <g>
       <use xlink:href="#m2ebd4ef7cc" x="319.071658" y="400.616471" style="stroke: #000000; stroke-width: 0.8"/>
      </g>
     </g>
     <g id="text_19">
      <!-- 2 -->
      <g transform="translate(315.890408 415.214908) scale(0.1 -0.1)">
       <use xlink:href="#DejaVuSans-32"/>
      </g>
     </g>
    </g>
    <g id="xtick_14">
     <g id="line2d_22">
      <g>
       <use xlink:href="#m2ebd4ef7cc" x="378.750802" y="400.616471" style="stroke: #000000; stroke-width: 0.8"/>
      </g>
     </g>
     <g id="text_20">
      <!-- 3 -->
      <g transform="translate(375.569552 415.214908) scale(0.1 -0.1)">
       <use xlink:href="#DejaVuSans-33"/>
      </g>
     </g>
    </g>
    <g id="xtick_15">
     <g id="line2d_23">
      <g>
       <use xlink:href="#m2ebd4ef7cc" x="438.429947" y="400.616471" style="stroke: #000000; stroke-width: 0.8"/>
      </g>
     </g>
     <g id="text_21">
      <!-- 4 -->
      <g transform="translate(435.248697 415.214908) scale(0.1 -0.1)">
       <use xlink:href="#DejaVuSans-34"/>
      </g>
     </g>
    </g>
    <g id="xtick_16">
     <g id="line2d_24">
      <g>
       <use xlink:href="#m2ebd4ef7cc" x="498.109091" y="400.616471" style="stroke: #000000; stroke-width: 0.8"/>
      </g>
     </g>
     <g id="text_22">
      <!-- 5 -->
      <g transform="translate(494.927841 415.214908) scale(0.1 -0.1)">
       <use xlink:href="#DejaVuSans-35"/>
      </g>
     </g>
    </g>
   </g>
   <g id="matplotlib.axis_4">
    <g id="ytick_5">
     <g id="line2d_25">
      <g>
       <use xlink:href="#me1664f0153" x="72" y="389.748943" style="stroke: #000000; stroke-width: 0.8"/>
      </g>
     </g>
     <g id="text_23">
      <!-- −0.10 -->
      <g transform="translate(34.354687 393.548162) scale(0.1 -0.1)">
       <use xlink:href="#DejaVuSans-2212"/>
       <use xlink:href="#DejaVuSans-30" x="83.789062"/>
       <use xlink:href="#DejaVuSans-2e" x="147.412109"/>
       <use xlink:href="#DejaVuSans-31" x="179.199219"/>
       <use xlink:href="#DejaVuSans-30" x="242.822266"/>
      </g>
     </g>
    </g>
    <g id="ytick_6">
     <g id="line2d_26">
      <g>
       <use xlink:href="#me1664f0153" x="72" y="361.121101" style="stroke: #000000; stroke-width: 0.8"/>
      </g>
     </g>
     <g id="text_24">
      <!-- −0.05 -->
      <g transform="translate(34.354687 364.92032) scale(0.1 -0.1)">
       <use xlink:href="#DejaVuSans-2212"/>
       <use xlink:href="#DejaVuSans-30" x="83.789062"/>
       <use xlink:href="#DejaVuSans-2e" x="147.412109"/>
       <use xlink:href="#DejaVuSans-30" x="179.199219"/>
       <use xlink:href="#DejaVuSans-35" x="242.822266"/>
      </g>
     </g>
    </g>
    <g id="ytick_7">
     <g id="line2d_27">
      <g>
       <use xlink:href="#me1664f0153" x="72" y="332.493258" style="stroke: #000000; stroke-width: 0.8"/>
      </g>
     </g>
     <g id="text_25">
      <!-- 0.00 -->
      <g transform="translate(42.734375 336.292477) scale(0.1 -0.1)">
       <use xlink:href="#DejaVuSans-30"/>
       <use xlink:href="#DejaVuSans-2e" x="63.623047"/>
       <use xlink:href="#DejaVuSans-30" x="95.410156"/>
       <use xlink:href="#DejaVuSans-30" x="159.033203"/>
      </g>
     </g>
    </g>
    <g id="ytick_8">
     <g id="line2d_28">
      <g>
       <use xlink:href="#me1664f0153" x="72" y="303.865416" style="stroke: #000000; stroke-width: 0.8"/>
      </g>
     </g>
     <g id="text_26">
      <!-- 0.05 -->
      <g transform="translate(42.734375 307.664635) scale(0.1 -0.1)">
       <use xlink:href="#DejaVuSans-30"/>
       <use xlink:href="#DejaVuSans-2e" x="63.623047"/>
       <use xlink:href="#DejaVuSans-30" x="95.410156"/>
       <use xlink:href="#DejaVuSans-35" x="159.033203"/>
      </g>
     </g>
    </g>
    <g id="ytick_9">
     <g id="line2d_29">
      <g>
       <use xlink:href="#me1664f0153" x="72" y="275.237573" style="stroke: #000000; stroke-width: 0.8"/>
      </g>
     </g>
     <g id="text_27">
      <!-- 0.10 -->
      <g transform="translate(42.734375 279.036792) scale(0.1 -0.1)">
       <use xlink:href="#DejaVuSans-30"/>
       <use xlink:href="#DejaVuSans-2e" x="63.623047"/>
       <use xlink:href="#DejaVuSans-31" x="95.410156"/>
       <use xlink:href="#DejaVuSans-30" x="159.033203"/>
      </g>
     </g>
    </g>
    <g id="text_28">
     <!-- Velocity -->
     <g transform="translate(28.275 346.855625) rotate(-90) scale(0.1 -0.1)">
      <defs>
       <path id="DejaVuSans-56" d="M 1831 0 
L 50 4666 
L 709 4666 
L 2188 738 
L 3669 4666 
L 4325 4666 
L 2547 0 
L 1831 0 
z
" transform="scale(0.015625)"/>
       <path id="DejaVuSans-6c" d="M 603 4863 
L 1178 4863 
L 1178 0 
L 603 0 
L 603 4863 
z
" transform="scale(0.015625)"/>
       <path id="DejaVuSans-6f" d="M 1959 3097 
Q 1497 3097 1228 2736 
Q 959 2375 959 1747 
Q 959 1119 1226 758 
Q 1494 397 1959 397 
Q 2419 397 2687 759 
Q 2956 1122 2956 1747 
Q 2956 2369 2687 2733 
Q 2419 3097 1959 3097 
z
M 1959 3584 
Q 2709 3584 3137 3096 
Q 3566 2609 3566 1747 
Q 3566 888 3137 398 
Q 2709 -91 1959 -91 
Q 1206 -91 779 398 
Q 353 888 353 1747 
Q 353 2609 779 3096 
Q 1206 3584 1959 3584 
z
" transform="scale(0.015625)"/>
       <path id="DejaVuSans-79" d="M 2059 -325 
Q 1816 -950 1584 -1140 
Q 1353 -1331 966 -1331 
L 506 -1331 
L 506 -850 
L 844 -850 
Q 1081 -850 1212 -737 
Q 1344 -625 1503 -206 
L 1606 56 
L 191 3500 
L 800 3500 
L 1894 763 
L 2988 3500 
L 3597 3500 
L 2059 -325 
z
" transform="scale(0.015625)"/>
      </defs>
      <use xlink:href="#DejaVuSans-56"/>
      <use xlink:href="#DejaVuSans-65" x="60.658203"/>
      <use xlink:href="#DejaVuSans-6c" x="122.181641"/>
      <use xlink:href="#DejaVuSans-6f" x="149.964844"/>
      <use xlink:href="#DejaVuSans-63" x="211.146484"/>
      <use xlink:href="#DejaVuSans-69" x="266.126953"/>
      <use xlink:href="#DejaVuSans-74" x="293.910156"/>
      <use xlink:href="#DejaVuSans-79" x="333.119141"/>
     </g>
    </g>
   </g>
   <g id="line2d_30">
    <path d="M 92.290909 328.135966 
L 104.226738 332.290145 
L 116.162567 337.053664 
L 128.098396 341.69319 
L 140.034225 345.873332 
L 151.970053 348.751672 
L 163.905882 350.386306 
L 175.841711 352.067319 
L 187.77754 351.653446 
L 199.713369 348.647183 
L 211.649198 347.383114 
L 223.585027 351.21248 
L 235.520856 358.373561 
L 247.456684 363.883162 
L 259.392513 367.986891 
L 271.328342 374.155834 
L 283.264171 378.983005 
L 295.2 379.423217 
L 307.135829 379.370956 
L 319.071658 379.804321 
L 331.007487 379.061358 
L 342.943316 377.91716 
L 354.879144 375.716264 
L 366.814973 371.963488 
L 378.750802 366.261175 
L 390.686631 357.115989 
L 402.62246 344.797982 
L 414.558289 332.540442 
L 426.494118 321.872419 
L 438.429947 311.686429 
L 450.365775 304.125224 
L 462.301604 299.142397 
L 474.237433 294.008941 
L 486.173262 291.950049 
L 498.109091 293.844469 
" clip-path="url(#p681d1ab0ec)" style="fill: none; stroke: #7f7f7f; stroke-width: 1.5; stroke-linecap: square"/>
   </g>
   <g id="line2d_31">
    <path d="M 92.290909 326.97037 
L 104.226738 332.155223 
L 116.162567 338.354182 
L 128.098396 342.758805 
L 140.034225 343.137346 
L 151.970053 344.113333 
L 163.905882 345.90929 
L 175.841711 344.168205 
L 187.77754 340.569186 
L 199.713369 339.787618 
L 211.649198 343.72151 
L 223.585027 347.345201 
L 235.520856 349.520437 
L 247.456684 352.456788 
L 259.392513 356.342632 
L 271.328342 364.394009 
L 283.264171 374.2057 
L 295.2 378.601835 
L 307.135829 378.369517 
L 319.071658 377.462135 
L 331.007487 375.85839 
L 342.943316 374.639512 
L 354.879144 373.037574 
L 366.814973 368.238113 
L 378.750802 358.814262 
L 390.686631 346.138624 
L 402.62246 333.074885 
L 414.558289 318.63782 
L 426.494118 306.672627 
L 438.429947 301.767918 
L 450.365775 298.941411 
L 462.301604 296.325903 
L 474.237433 294.238795 
L 486.173262 287.272109 
L 498.109091 277.339825 
" clip-path="url(#p681d1ab0ec)" style="fill: none; stroke: #17becf; stroke-width: 1.5; stroke-linecap: square"/>
   </g>
   <g id="line2d_32"/>
   <g id="line2d_33"/>
   <g id="patch_6">
    <path d="M 72 400.616471 
L 72 253.863529 
" style="fill: none; stroke: #000000; stroke-width: 0.8; stroke-linejoin: miter; stroke-linecap: square"/>
   </g>
   <g id="patch_7">
    <path d="M 72 400.616471 
L 518.4 400.616471 
" style="fill: none; stroke: #000000; stroke-width: 0.8; stroke-linejoin: miter; stroke-linecap: square"/>
   </g>
   <g id="legend_1">
    <g id="patch_8">
     <path d="M 526.030312 305.897904 
L 689.96 305.897904 
Q 691.96 305.897904 691.96 303.897904 
L 691.96 260.863529 
Q 691.96 258.863529 689.96 258.863529 
L 526.030312 258.863529 
Q 524.030312 258.863529 524.030312 260.863529 
L 524.030312 303.897904 
Q 524.030312 305.897904 526.030312 305.897904 
z
" style="fill: #ffffff; opacity: 0.8; stroke: #cccccc; stroke-linejoin: miter"/>
    </g>
    <g id="text_29">
     <!-- Condition -->
     <g transform="translate(584.135 270.461967) scale(0.1 -0.1)">
      <defs>
       <path id="DejaVuSans-43" d="M 4122 4306 
L 4122 3641 
Q 3803 3938 3442 4084 
Q 3081 4231 2675 4231 
Q 1875 4231 1450 3742 
Q 1025 3253 1025 2328 
Q 1025 1406 1450 917 
Q 1875 428 2675 428 
Q 3081 428 3442 575 
Q 3803 722 4122 1019 
L 4122 359 
Q 3791 134 3420 21 
Q 3050 -91 2638 -91 
Q 1578 -91 968 557 
Q 359 1206 359 2328 
Q 359 3453 968 4101 
Q 1578 4750 2638 4750 
Q 3056 4750 3426 4639 
Q 3797 4528 4122 4306 
z
" transform="scale(0.015625)"/>
       <path id="DejaVuSans-6e" d="M 3513 2113 
L 3513 0 
L 2938 0 
L 2938 2094 
Q 2938 2591 2744 2837 
Q 2550 3084 2163 3084 
Q 1697 3084 1428 2787 
Q 1159 2491 1159 1978 
L 1159 0 
L 581 0 
L 581 3500 
L 1159 3500 
L 1159 2956 
Q 1366 3272 1645 3428 
Q 1925 3584 2291 3584 
Q 2894 3584 3203 3211 
Q 3513 2838 3513 2113 
z
" transform="scale(0.015625)"/>
       <path id="DejaVuSans-64" d="M 2906 2969 
L 2906 4863 
L 3481 4863 
L 3481 0 
L 2906 0 
L 2906 525 
Q 2725 213 2448 61 
Q 2172 -91 1784 -91 
Q 1150 -91 751 415 
Q 353 922 353 1747 
Q 353 2572 751 3078 
Q 1150 3584 1784 3584 
Q 2172 3584 2448 3432 
Q 2725 3281 2906 2969 
z
M 947 1747 
Q 947 1113 1208 752 
Q 1469 391 1925 391 
Q 2381 391 2643 752 
Q 2906 1113 2906 1747 
Q 2906 2381 2643 2742 
Q 2381 3103 1925 3103 
Q 1469 3103 1208 2742 
Q 947 2381 947 1747 
z
" transform="scale(0.015625)"/>
      </defs>
      <use xlink:href="#DejaVuSans-43"/>
      <use xlink:href="#DejaVuSans-6f" x="69.824219"/>
      <use xlink:href="#DejaVuSans-6e" x="131.005859"/>
      <use xlink:href="#DejaVuSans-64" x="194.384766"/>
      <use xlink:href="#DejaVuSans-69" x="257.861328"/>
      <use xlink:href="#DejaVuSans-74" x="285.644531"/>
      <use xlink:href="#DejaVuSans-69" x="324.853516"/>
      <use xlink:href="#DejaVuSans-6f" x="352.636719"/>
      <use xlink:href="#DejaVuSans-6e" x="413.818359"/>
     </g>
    </g>
    <g id="line2d_34">
     <path d="M 528.030312 281.640092 
L 538.030312 281.640092 
L 548.030312 281.640092 
" style="fill: none; stroke: #7f7f7f; stroke-width: 1.5; stroke-linecap: square"/>
    </g>
    <g id="text_30">
     <!-- Ctrl (# trials=38) -->
     <g transform="translate(556.030312 285.140092) scale(0.1 -0.1)">
      <defs>
       <path id="DejaVuSans-72" d="M 2631 2963 
Q 2534 3019 2420 3045 
Q 2306 3072 2169 3072 
Q 1681 3072 1420 2755 
Q 1159 2438 1159 1844 
L 1159 0 
L 581 0 
L 581 3500 
L 1159 3500 
L 1159 2956 
Q 1341 3275 1631 3429 
Q 1922 3584 2338 3584 
Q 2397 3584 2469 3576 
Q 2541 3569 2628 3553 
L 2631 2963 
z
" transform="scale(0.015625)"/>
       <path id="DejaVuSans-28" d="M 1984 4856 
Q 1566 4138 1362 3434 
Q 1159 2731 1159 2009 
Q 1159 1288 1364 580 
Q 1569 -128 1984 -844 
L 1484 -844 
Q 1016 -109 783 600 
Q 550 1309 550 2009 
Q 550 2706 781 3412 
Q 1013 4119 1484 4856 
L 1984 4856 
z
" transform="scale(0.015625)"/>
       <path id="DejaVuSans-23" d="M 3272 2816 
L 2363 2816 
L 2100 1772 
L 3016 1772 
L 3272 2816 
z
M 2803 4594 
L 2478 3297 
L 3391 3297 
L 3719 4594 
L 4219 4594 
L 3897 3297 
L 4872 3297 
L 4872 2816 
L 3775 2816 
L 3519 1772 
L 4513 1772 
L 4513 1294 
L 3397 1294 
L 3072 0 
L 2572 0 
L 2894 1294 
L 1978 1294 
L 1656 0 
L 1153 0 
L 1478 1294 
L 494 1294 
L 494 1772 
L 1594 1772 
L 1856 2816 
L 850 2816 
L 850 3297 
L 1978 3297 
L 2297 4594 
L 2803 4594 
z
" transform="scale(0.015625)"/>
       <path id="DejaVuSans-73" d="M 2834 3397 
L 2834 2853 
Q 2591 2978 2328 3040 
Q 2066 3103 1784 3103 
Q 1356 3103 1142 2972 
Q 928 2841 928 2578 
Q 928 2378 1081 2264 
Q 1234 2150 1697 2047 
L 1894 2003 
Q 2506 1872 2764 1633 
Q 3022 1394 3022 966 
Q 3022 478 2636 193 
Q 2250 -91 1575 -91 
Q 1294 -91 989 -36 
Q 684 19 347 128 
L 347 722 
Q 666 556 975 473 
Q 1284 391 1588 391 
Q 1994 391 2212 530 
Q 2431 669 2431 922 
Q 2431 1156 2273 1281 
Q 2116 1406 1581 1522 
L 1381 1569 
Q 847 1681 609 1914 
Q 372 2147 372 2553 
Q 372 3047 722 3315 
Q 1072 3584 1716 3584 
Q 2034 3584 2315 3537 
Q 2597 3491 2834 3397 
z
" transform="scale(0.015625)"/>
       <path id="DejaVuSans-3d" d="M 678 2906 
L 4684 2906 
L 4684 2381 
L 678 2381 
L 678 2906 
z
M 678 1631 
L 4684 1631 
L 4684 1100 
L 678 1100 
L 678 1631 
z
" transform="scale(0.015625)"/>
       <path id="DejaVuSans-38" d="M 2034 2216 
Q 1584 2216 1326 1975 
Q 1069 1734 1069 1313 
Q 1069 891 1326 650 
Q 1584 409 2034 409 
Q 2484 409 2743 651 
Q 3003 894 3003 1313 
Q 3003 1734 2745 1975 
Q 2488 2216 2034 2216 
z
M 1403 2484 
Q 997 2584 770 2862 
Q 544 3141 544 3541 
Q 544 4100 942 4425 
Q 1341 4750 2034 4750 
Q 2731 4750 3128 4425 
Q 3525 4100 3525 3541 
Q 3525 3141 3298 2862 
Q 3072 2584 2669 2484 
Q 3125 2378 3379 2068 
Q 3634 1759 3634 1313 
Q 3634 634 3220 271 
Q 2806 -91 2034 -91 
Q 1263 -91 848 271 
Q 434 634 434 1313 
Q 434 1759 690 2068 
Q 947 2378 1403 2484 
z
M 1172 3481 
Q 1172 3119 1398 2916 
Q 1625 2713 2034 2713 
Q 2441 2713 2670 2916 
Q 2900 3119 2900 3481 
Q 2900 3844 2670 4047 
Q 2441 4250 2034 4250 
Q 1625 4250 1398 4047 
Q 1172 3844 1172 3481 
z
" transform="scale(0.015625)"/>
       <path id="DejaVuSans-29" d="M 513 4856 
L 1013 4856 
Q 1481 4119 1714 3412 
Q 1947 2706 1947 2009 
Q 1947 1309 1714 600 
Q 1481 -109 1013 -844 
L 513 -844 
Q 928 -128 1133 580 
Q 1338 1288 1338 2009 
Q 1338 2731 1133 3434 
Q 928 4138 513 4856 
z
" transform="scale(0.015625)"/>
      </defs>
      <use xlink:href="#DejaVuSans-43"/>
      <use xlink:href="#DejaVuSans-74" x="69.824219"/>
      <use xlink:href="#DejaVuSans-72" x="109.033203"/>
      <use xlink:href="#DejaVuSans-6c" x="150.146484"/>
      <use xlink:href="#DejaVuSans-20" x="177.929688"/>
      <use xlink:href="#DejaVuSans-28" x="209.716797"/>
      <use xlink:href="#DejaVuSans-23" x="248.730469"/>
      <use xlink:href="#DejaVuSans-20" x="332.519531"/>
      <use xlink:href="#DejaVuSans-74" x="364.306641"/>
      <use xlink:href="#DejaVuSans-72" x="403.515625"/>
      <use xlink:href="#DejaVuSans-69" x="444.628906"/>
      <use xlink:href="#DejaVuSans-61" x="472.412109"/>
      <use xlink:href="#DejaVuSans-6c" x="533.691406"/>
      <use xlink:href="#DejaVuSans-73" x="561.474609"/>
      <use xlink:href="#DejaVuSans-3d" x="613.574219"/>
      <use xlink:href="#DejaVuSans-33" x="697.363281"/>
      <use xlink:href="#DejaVuSans-38" x="760.986328"/>
      <use xlink:href="#DejaVuSans-29" x="824.609375"/>
     </g>
    </g>
    <g id="line2d_35">
     <path d="M 528.030312 296.318217 
L 538.030312 296.318217 
L 548.030312 296.318217 
" style="fill: none; stroke: #17becf; stroke-width: 1.5; stroke-linecap: square"/>
    </g>
    <g id="text_31">
     <!-- Freeze At RZ (# trials=38) -->
     <g transform="translate(556.030312 299.818217) scale(0.1 -0.1)">
      <defs>
       <path id="DejaVuSans-46" d="M 628 4666 
L 3309 4666 
L 3309 4134 
L 1259 4134 
L 1259 2759 
L 3109 2759 
L 3109 2228 
L 1259 2228 
L 1259 0 
L 628 0 
L 628 4666 
z
" transform="scale(0.015625)"/>
       <path id="DejaVuSans-7a" d="M 353 3500 
L 3084 3500 
L 3084 2975 
L 922 459 
L 3084 459 
L 3084 0 
L 275 0 
L 275 525 
L 2438 3041 
L 353 3041 
L 353 3500 
z
" transform="scale(0.015625)"/>
       <path id="DejaVuSans-41" d="M 2188 4044 
L 1331 1722 
L 3047 1722 
L 2188 4044 
z
M 1831 4666 
L 2547 4666 
L 4325 0 
L 3669 0 
L 3244 1197 
L 1141 1197 
L 716 0 
L 50 0 
L 1831 4666 
z
" transform="scale(0.015625)"/>
       <path id="DejaVuSans-5a" d="M 359 4666 
L 4025 4666 
L 4025 4184 
L 1075 531 
L 4097 531 
L 4097 0 
L 288 0 
L 288 481 
L 3238 4134 
L 359 4134 
L 359 4666 
z
" transform="scale(0.015625)"/>
      </defs>
      <use xlink:href="#DejaVuSans-46"/>
      <use xlink:href="#DejaVuSans-72" x="50.269531"/>
      <use xlink:href="#DejaVuSans-65" x="89.132812"/>
      <use xlink:href="#DejaVuSans-65" x="150.65625"/>
      <use xlink:href="#DejaVuSans-7a" x="212.179688"/>
      <use xlink:href="#DejaVuSans-65" x="264.669922"/>
      <use xlink:href="#DejaVuSans-20" x="326.193359"/>
      <use xlink:href="#DejaVuSans-41" x="357.980469"/>
      <use xlink:href="#DejaVuSans-74" x="424.638672"/>
      <use xlink:href="#DejaVuSans-20" x="463.847656"/>
      <use xlink:href="#DejaVuSans-52" x="495.634766"/>
      <use xlink:href="#DejaVuSans-5a" x="565.117188"/>
      <use xlink:href="#DejaVuSans-20" x="633.623047"/>
      <use xlink:href="#DejaVuSans-28" x="665.410156"/>
      <use xlink:href="#DejaVuSans-23" x="704.423828"/>
      <use xlink:href="#DejaVuSans-20" x="788.212891"/>
      <use xlink:href="#DejaVuSans-74" x="820"/>
      <use xlink:href="#DejaVuSans-72" x="859.208984"/>
      <use xlink:href="#DejaVuSans-69" x="900.322266"/>
      <use xlink:href="#DejaVuSans-61" x="928.105469"/>
      <use xlink:href="#DejaVuSans-6c" x="989.384766"/>
      <use xlink:href="#DejaVuSans-73" x="1017.167969"/>
      <use xlink:href="#DejaVuSans-3d" x="1069.267578"/>
      <use xlink:href="#DejaVuSans-33" x="1153.056641"/>
      <use xlink:href="#DejaVuSans-38" x="1216.679688"/>
      <use xlink:href="#DejaVuSans-29" x="1280.302734"/>
     </g>
    </g>
   </g>
  </g>
  <g id="axes_3">
   <g id="patch_9">
    <path d="M 72 576.72 
L 518.4 576.72 
L 518.4 429.967059 
L 72 429.967059 
z
" style="fill: #ffffff"/>
   </g>
   <g id="PolyCollection_5">
    <defs>
     <path id="mf299022106" d="M 92.290909 -177.905629 
L 92.290909 -142.109955 
L 104.226738 -137.512191 
L 116.162567 -148.924524 
L 128.098396 -149.026363 
L 140.034225 -126.177924 
L 151.970053 -129.088652 
L 163.905882 -142.715122 
L 175.841711 -126.520061 
L 187.77754 -111.264411 
L 199.713369 -116.756058 
L 211.649198 -127.443465 
L 223.585027 -107.506861 
L 235.520856 -77.950588 
L 247.456684 -93.47256 
L 259.392513 -107.112435 
L 271.328342 -106.831155 
L 283.264171 -111.901507 
L 295.2 -101.07259 
L 307.135829 -96.982215 
L 319.071658 -97.247092 
L 331.007487 -109.419779 
L 342.943316 -98.985432 
L 354.879144 -100.421655 
L 366.814973 -108.608616 
L 378.750802 -83.409023 
L 390.686631 -78.175331 
L 402.62246 -84.056346 
L 414.558289 -93.587661 
L 426.494118 -101.848162 
L 438.429947 -94.471013 
L 450.365775 -88.861696 
L 462.301604 -96.602719 
L 474.237433 -87.804873 
L 486.173262 -83.985232 
L 498.109091 -81.884733 
L 498.109091 -162.828342 
L 498.109091 -162.828342 
L 486.173262 -160.158986 
L 474.237433 -155.011438 
L 462.301604 -175.557831 
L 450.365775 -175.592603 
L 438.429947 -166.83134 
L 426.494118 -159.4204 
L 414.558289 -154.303236 
L 402.62246 -137.76008 
L 390.686631 -139.32519 
L 378.750802 -142.281192 
L 366.814973 -158.738174 
L 354.879144 -158.628051 
L 342.943316 -152.246918 
L 331.007487 -171.769429 
L 319.071658 -153.869115 
L 307.135829 -154.888693 
L 295.2 -167.301905 
L 283.264171 -186.83238 
L 271.328342 -178.520848 
L 259.392513 -177.667721 
L 247.456684 -167.717919 
L 235.520856 -138.169435 
L 223.585027 -166.018667 
L 211.649198 -195.734829 
L 199.713369 -182.659526 
L 187.77754 -179.44493 
L 175.841711 -194.918002 
L 163.905882 -211.362353 
L 151.970053 -191.664411 
L 140.034225 -182.058195 
L 128.098396 -199.52694 
L 116.162567 -178.41273 
L 104.226738 -157.225961 
L 92.290909 -177.905629 
z
" style="stroke: #7f7f7f; stroke-opacity: 0.2"/>
    </defs>
    <g clip-path="url(#pc20a493e14)">
     <use xlink:href="#mf299022106" x="0" y="648" style="fill: #7f7f7f; fill-opacity: 0.2; stroke: #7f7f7f; stroke-opacity: 0.2"/>
    </g>
   </g>
   <g id="PolyCollection_6">
    <defs>
     <path id="mfebdcc9104" d="M 92.290909 -177.465772 
L 92.290909 -136.814353 
L 104.226738 -153.136325 
L 116.162567 -134.159853 
L 128.098396 -107.215501 
L 140.034225 -98.453664 
L 151.970053 -106.498324 
L 163.905882 -124.70083 
L 175.841711 -124.83038 
L 187.77754 -110.912495 
L 199.713369 -117.012143 
L 211.649198 -119.073327 
L 223.585027 -102.570091 
L 235.520856 -105.986149 
L 247.456684 -111.517008 
L 259.392513 -104.342803 
L 271.328342 -107.394228 
L 283.264171 -104.026963 
L 295.2 -116.943074 
L 307.135829 -110.771797 
L 319.071658 -97.905123 
L 331.007487 -110.369922 
L 342.943316 -120.996175 
L 354.879144 -117.97909 
L 366.814973 -114.997217 
L 378.750802 -101.810704 
L 390.686631 -89.564199 
L 402.62246 -87.153961 
L 414.558289 -91.490094 
L 426.494118 -105.986918 
L 438.429947 -115.335738 
L 450.365775 -116.295226 
L 462.301604 -114.52579 
L 474.237433 -111.713063 
L 486.173262 -101.963165 
L 498.109091 -98.531443 
L 498.109091 -166.549183 
L 498.109091 -166.549183 
L 486.173262 -175.222373 
L 474.237433 -180.258355 
L 462.301604 -182.096987 
L 450.365775 -195.457384 
L 438.429947 -173.320926 
L 426.494118 -149.999146 
L 414.558289 -148.238397 
L 402.62246 -143.989556 
L 390.686631 -148.016075 
L 378.750802 -168.122718 
L 366.814973 -182.244346 
L 354.879144 -182.956909 
L 342.943316 -188.241124 
L 331.007487 -179.082977 
L 319.071658 -159.409731 
L 307.135829 -170.74977 
L 295.2 -183.827337 
L 283.264171 -166.003872 
L 271.328342 -161.60377 
L 259.392513 -157.51805 
L 247.456684 -169.831031 
L 235.520856 -162.120943 
L 223.585027 -163.176536 
L 211.649198 -180.821659 
L 199.713369 -180.364301 
L 187.77754 -170.215453 
L 175.841711 -189.254046 
L 163.905882 -185.423273 
L 151.970053 -160.520527 
L 140.034225 -166.709103 
L 128.098396 -162.869768 
L 116.162567 -169.040304 
L 104.226738 -174.775675 
L 92.290909 -177.465772 
z
" style="stroke: #17becf; stroke-opacity: 0.2"/>
    </defs>
    <g clip-path="url(#pc20a493e14)">
     <use xlink:href="#mfebdcc9104" x="0" y="648" style="fill: #17becf; fill-opacity: 0.2; stroke: #17becf; stroke-opacity: 0.2"/>
    </g>
   </g>
   <g id="matplotlib.axis_5">
    <g id="xtick_17">
     <g id="line2d_36">
      <g>
       <use xlink:href="#m2ebd4ef7cc" x="80.35508" y="576.72" style="stroke: #000000; stroke-width: 0.8"/>
      </g>
     </g>
     <g id="text_32">
      <!-- −2 -->
      <g transform="translate(72.983986 591.318438) scale(0.1 -0.1)">
       <use xlink:href="#DejaVuSans-2212"/>
       <use xlink:href="#DejaVuSans-32" x="83.789062"/>
      </g>
     </g>
    </g>
    <g id="xtick_18">
     <g id="line2d_37">
      <g>
       <use xlink:href="#m2ebd4ef7cc" x="140.034225" y="576.72" style="stroke: #000000; stroke-width: 0.8"/>
      </g>
     </g>
     <g id="text_33">
      <!-- −1 -->
      <g transform="translate(132.663131 591.318438) scale(0.1 -0.1)">
       <use xlink:href="#DejaVuSans-2212"/>
       <use xlink:href="#DejaVuSans-31" x="83.789062"/>
      </g>
     </g>
    </g>
    <g id="xtick_19">
     <g id="line2d_38">
      <g>
       <use xlink:href="#m2ebd4ef7cc" x="199.713369" y="576.72" style="stroke: #000000; stroke-width: 0.8"/>
      </g>
     </g>
     <g id="text_34">
      <!-- 0 -->
      <g transform="translate(196.532119 591.318438) scale(0.1 -0.1)">
       <use xlink:href="#DejaVuSans-30"/>
      </g>
     </g>
    </g>
    <g id="xtick_20">
     <g id="line2d_39">
      <g>
       <use xlink:href="#m2ebd4ef7cc" x="259.392513" y="576.72" style="stroke: #000000; stroke-width: 0.8"/>
      </g>
     </g>
     <g id="text_35">
      <!-- 1 -->
      <g transform="translate(256.211263 591.318438) scale(0.1 -0.1)">
       <use xlink:href="#DejaVuSans-31"/>
      </g>
     </g>
    </g>
    <g id="xtick_21">
     <g id="line2d_40">
      <g>
       <use xlink:href="#m2ebd4ef7cc" x="319.071658" y="576.72" style="stroke: #000000; stroke-width: 0.8"/>
      </g>
     </g>
     <g id="text_36">
      <!-- 2 -->
      <g transform="translate(315.890408 591.318438) scale(0.1 -0.1)">
       <use xlink:href="#DejaVuSans-32"/>
      </g>
     </g>
    </g>
    <g id="xtick_22">
     <g id="line2d_41">
      <g>
       <use xlink:href="#m2ebd4ef7cc" x="378.750802" y="576.72" style="stroke: #000000; stroke-width: 0.8"/>
      </g>
     </g>
     <g id="text_37">
      <!-- 3 -->
      <g transform="translate(375.569552 591.318438) scale(0.1 -0.1)">
       <use xlink:href="#DejaVuSans-33"/>
      </g>
     </g>
    </g>
    <g id="xtick_23">
     <g id="line2d_42">
      <g>
       <use xlink:href="#m2ebd4ef7cc" x="438.429947" y="576.72" style="stroke: #000000; stroke-width: 0.8"/>
      </g>
     </g>
     <g id="text_38">
      <!-- 4 -->
      <g transform="translate(435.248697 591.318438) scale(0.1 -0.1)">
       <use xlink:href="#DejaVuSans-34"/>
      </g>
     </g>
    </g>
    <g id="xtick_24">
     <g id="line2d_43">
      <g>
       <use xlink:href="#m2ebd4ef7cc" x="498.109091" y="576.72" style="stroke: #000000; stroke-width: 0.8"/>
      </g>
     </g>
     <g id="text_39">
      <!-- 5 -->
      <g transform="translate(494.927841 591.318438) scale(0.1 -0.1)">
       <use xlink:href="#DejaVuSans-35"/>
      </g>
     </g>
    </g>
    <g id="text_40">
     <!-- Time to RZ (s) -->
     <g transform="translate(259.774219 604.996562) scale(0.1 -0.1)">
      <defs>
       <path id="DejaVuSans-54" d="M -19 4666 
L 3928 4666 
L 3928 4134 
L 2272 4134 
L 2272 0 
L 1638 0 
L 1638 4134 
L -19 4134 
L -19 4666 
z
" transform="scale(0.015625)"/>
       <path id="DejaVuSans-6d" d="M 3328 2828 
Q 3544 3216 3844 3400 
Q 4144 3584 4550 3584 
Q 5097 3584 5394 3201 
Q 5691 2819 5691 2113 
L 5691 0 
L 5113 0 
L 5113 2094 
Q 5113 2597 4934 2840 
Q 4756 3084 4391 3084 
Q 3944 3084 3684 2787 
Q 3425 2491 3425 1978 
L 3425 0 
L 2847 0 
L 2847 2094 
Q 2847 2600 2669 2842 
Q 2491 3084 2119 3084 
Q 1678 3084 1418 2786 
Q 1159 2488 1159 1978 
L 1159 0 
L 581 0 
L 581 3500 
L 1159 3500 
L 1159 2956 
Q 1356 3278 1631 3431 
Q 1906 3584 2284 3584 
Q 2666 3584 2933 3390 
Q 3200 3197 3328 2828 
z
" transform="scale(0.015625)"/>
      </defs>
      <use xlink:href="#DejaVuSans-54"/>
      <use xlink:href="#DejaVuSans-69" x="57.958984"/>
      <use xlink:href="#DejaVuSans-6d" x="85.742188"/>
      <use xlink:href="#DejaVuSans-65" x="183.154297"/>
      <use xlink:href="#DejaVuSans-20" x="244.677734"/>
      <use xlink:href="#DejaVuSans-74" x="276.464844"/>
      <use xlink:href="#DejaVuSans-6f" x="315.673828"/>
      <use xlink:href="#DejaVuSans-20" x="376.855469"/>
      <use xlink:href="#DejaVuSans-52" x="408.642578"/>
      <use xlink:href="#DejaVuSans-5a" x="478.125"/>
      <use xlink:href="#DejaVuSans-20" x="546.630859"/>
      <use xlink:href="#DejaVuSans-28" x="578.417969"/>
      <use xlink:href="#DejaVuSans-73" x="617.431641"/>
      <use xlink:href="#DejaVuSans-29" x="669.53125"/>
     </g>
    </g>
   </g>
   <g id="matplotlib.axis_6">
    <g id="ytick_10">
     <g id="line2d_44">
      <g>
       <use xlink:href="#me1664f0153" x="72" y="567.836791" style="stroke: #000000; stroke-width: 0.8"/>
      </g>
     </g>
     <g id="text_41">
      <!-- −0.2 -->
      <g transform="translate(40.717187 571.63601) scale(0.1 -0.1)">
       <use xlink:href="#DejaVuSans-2212"/>
       <use xlink:href="#DejaVuSans-30" x="83.789062"/>
       <use xlink:href="#DejaVuSans-2e" x="147.412109"/>
       <use xlink:href="#DejaVuSans-32" x="179.199219"/>
      </g>
     </g>
    </g>
    <g id="ytick_11">
     <g id="line2d_45">
      <g>
       <use xlink:href="#me1664f0153" x="72" y="529.611821" style="stroke: #000000; stroke-width: 0.8"/>
      </g>
     </g>
     <g id="text_42">
      <!-- −0.1 -->
      <g transform="translate(40.717187 533.41104) scale(0.1 -0.1)">
       <use xlink:href="#DejaVuSans-2212"/>
       <use xlink:href="#DejaVuSans-30" x="83.789062"/>
       <use xlink:href="#DejaVuSans-2e" x="147.412109"/>
       <use xlink:href="#DejaVuSans-31" x="179.199219"/>
      </g>
     </g>
    </g>
    <g id="ytick_12">
     <g id="line2d_46">
      <g>
       <use xlink:href="#me1664f0153" x="72" y="491.38685" style="stroke: #000000; stroke-width: 0.8"/>
      </g>
     </g>
     <g id="text_43">
      <!-- 0.0 -->
      <g transform="translate(49.096875 495.186069) scale(0.1 -0.1)">
       <use xlink:href="#DejaVuSans-30"/>
       <use xlink:href="#DejaVuSans-2e" x="63.623047"/>
       <use xlink:href="#DejaVuSans-30" x="95.410156"/>
      </g>
     </g>
    </g>
    <g id="ytick_13">
     <g id="line2d_47">
      <g>
       <use xlink:href="#me1664f0153" x="72" y="453.16188" style="stroke: #000000; stroke-width: 0.8"/>
      </g>
     </g>
     <g id="text_44">
      <!-- 0.1 -->
      <g transform="translate(49.096875 456.961098) scale(0.1 -0.1)">
       <use xlink:href="#DejaVuSans-30"/>
       <use xlink:href="#DejaVuSans-2e" x="63.623047"/>
       <use xlink:href="#DejaVuSans-31" x="95.410156"/>
      </g>
     </g>
    </g>
    <g id="text_45">
     <!-- Firing Rate -->
     <g transform="translate(34.6375 530.084936) rotate(-90) scale(0.1 -0.1)">
      <defs>
       <path id="DejaVuSans-67" d="M 2906 1791 
Q 2906 2416 2648 2759 
Q 2391 3103 1925 3103 
Q 1463 3103 1205 2759 
Q 947 2416 947 1791 
Q 947 1169 1205 825 
Q 1463 481 1925 481 
Q 2391 481 2648 825 
Q 2906 1169 2906 1791 
z
M 3481 434 
Q 3481 -459 3084 -895 
Q 2688 -1331 1869 -1331 
Q 1566 -1331 1297 -1286 
Q 1028 -1241 775 -1147 
L 775 -588 
Q 1028 -725 1275 -790 
Q 1522 -856 1778 -856 
Q 2344 -856 2625 -561 
Q 2906 -266 2906 331 
L 2906 616 
Q 2728 306 2450 153 
Q 2172 0 1784 0 
Q 1141 0 747 490 
Q 353 981 353 1791 
Q 353 2603 747 3093 
Q 1141 3584 1784 3584 
Q 2172 3584 2450 3431 
Q 2728 3278 2906 2969 
L 2906 3500 
L 3481 3500 
L 3481 434 
z
" transform="scale(0.015625)"/>
      </defs>
      <use xlink:href="#DejaVuSans-46"/>
      <use xlink:href="#DejaVuSans-69" x="50.269531"/>
      <use xlink:href="#DejaVuSans-72" x="78.052734"/>
      <use xlink:href="#DejaVuSans-69" x="119.166016"/>
      <use xlink:href="#DejaVuSans-6e" x="146.949219"/>
      <use xlink:href="#DejaVuSans-67" x="210.328125"/>
      <use xlink:href="#DejaVuSans-20" x="273.804688"/>
      <use xlink:href="#DejaVuSans-52" x="305.591797"/>
      <use xlink:href="#DejaVuSans-61" x="372.824219"/>
      <use xlink:href="#DejaVuSans-74" x="434.103516"/>
      <use xlink:href="#DejaVuSans-65" x="473.3125"/>
     </g>
    </g>
   </g>
   <g id="line2d_48">
    <path d="M 92.290909 488.298975 
L 104.226738 500.660109 
L 116.162567 485.201467 
L 128.098396 474.446878 
L 140.034225 494.262824 
L 151.970053 488.125601 
L 163.905882 471.262683 
L 175.841711 486.779117 
L 187.77754 505.537535 
L 199.713369 499.458103 
L 211.649198 487.385925 
L 223.585027 510.935084 
L 235.520856 540.361405 
L 247.456684 517.476847 
L 259.392513 506.231031 
L 271.328342 507.461933 
L 283.264171 501.526979 
L 295.2 513.9748 
L 307.135829 523.498488 
L 319.071658 523.382905 
L 331.007487 508.155429 
L 342.943316 521.747464 
L 354.879144 518.794435 
L 366.814973 512.946168 
L 378.750802 534.599825 
L 390.686631 539.592834 
L 402.62246 536.350848 
L 414.558289 523.787444 
L 426.494118 517.39016 
L 438.429947 518.794435 
L 450.365775 517.216786 
L 462.301604 514.350444 
L 474.237433 528.20254 
L 486.173262 526.884952 
L 498.109091 525.336198 
" clip-path="url(#pc20a493e14)" style="fill: none; stroke: #7f7f7f; stroke-width: 1.5; stroke-linecap: square"/>
   </g>
   <g id="line2d_49">
    <path d="M 92.290909 492.07263 
L 104.226738 484.793479 
L 116.162567 497.294442 
L 128.098396 512.452442 
L 140.034225 517.628124 
L 151.970053 514.832695 
L 163.905882 492.533936 
L 175.841711 492.395544 
L 187.77754 507.046108 
L 199.713369 497.432834 
L 211.649198 497.617356 
L 223.585027 517.30521 
L 235.520856 512.636965 
L 247.456684 507.738066 
L 259.392513 515.017218 
L 271.328342 512.729226 
L 283.264171 514.878826 
L 295.2 500.228262 
L 307.135829 507.599675 
L 319.071658 519.777724 
L 331.007487 502.562385 
L 342.943316 494.868058 
L 354.879144 497.248311 
L 366.814973 499.997609 
L 378.750802 512.683095 
L 390.686631 527.794965 
L 402.62246 530.498132 
L 414.558289 527.933356 
L 426.494118 520.192899 
L 438.429947 505.034899 
L 450.365775 494.96032 
L 462.301604 499.766956 
L 474.237433 502.470124 
L 486.173262 510.026058 
L 498.109091 515.294001 
" clip-path="url(#pc20a493e14)" style="fill: none; stroke: #17becf; stroke-width: 1.5; stroke-linecap: square"/>
   </g>
   <g id="line2d_50"/>
   <g id="line2d_51"/>
   <g id="patch_10">
    <path d="M 72 576.72 
L 72 429.967059 
" style="fill: none; stroke: #000000; stroke-width: 0.8; stroke-linejoin: miter; stroke-linecap: square"/>
   </g>
   <g id="patch_11">
    <path d="M 72 576.72 
L 518.4 576.72 
" style="fill: none; stroke: #000000; stroke-width: 0.8; stroke-linejoin: miter; stroke-linecap: square"/>
   </g>
  </g>
 </g>
 <defs>
  <clipPath id="p48d55ec44b">
   <rect x="72" y="77.76" width="446.4" height="146.752941"/>
  </clipPath>
  <clipPath id="p681d1ab0ec">
   <rect x="72" y="253.863529" width="446.4" height="146.752941"/>
  </clipPath>
  <clipPath id="pc20a493e14">
   <rect x="72" y="429.967059" width="446.4" height="146.752941"/>
  </clipPath>
 </defs>
</svg>
