<?xml version="1.0" encoding="utf-8" standalone="no"?>
<!DOCTYPE svg PUBLIC "-//W3C//DTD SVG 1.1//EN"
  "http://www.w3.org/Graphics/SVG/1.1/DTD/svg11.dtd">
<svg xmlns:xlink="http://www.w3.org/1999/xlink" width="576pt" height="648pt" viewBox="0 0 576 648" xmlns="http://www.w3.org/2000/svg" version="1.1">
 <metadata>
  <rdf:RDF xmlns:dc="http://purl.org/dc/elements/1.1/" xmlns:cc="http://creativecommons.org/ns#" xmlns:rdf="http://www.w3.org/1999/02/22-rdf-syntax-ns#">
   <cc:Work>
    <dc:type rdf:resource="http://purl.org/dc/dcmitype/StillImage"/>
    <dc:date>2025-01-14T09:52:53.859051</dc:date>
    <dc:format>image/svg+xml</dc:format>
    <dc:creator>
     <cc:Agent>
      <dc:title>Matplotlib v3.7.2, https://matplotlib.org/</dc:title>
     </cc:Agent>
    </dc:creator>
   </cc:Work>
  </rdf:RDF>
 </metadata>
 <defs>
  <style type="text/css">*{stroke-linejoin: round; stroke-linecap: butt}</style>
 </defs>
 <g id="figure_1">
  <g id="patch_1">
   <path d="M 0 648 
L 576 648 
L 576 0 
L 0 0 
z
" style="fill: #ffffff"/>
  </g>
  <g id="axes_1">
   <g id="patch_2">
    <path d="M 72 224.512941 
L 518.4 224.512941 
L 518.4 77.76 
L 72 77.76 
z
" style="fill: #ffffff"/>
   </g>
   <g id="PolyCollection_1">
    <defs>
     <path id="m0acc88aaed" d="M 92.290909 -494.448379 
L 92.290909 -470.546418 
L 104.226738 -474.380327 
L 116.162567 -472.534996 
L 128.098396 -477.31314 
L 140.034225 -483.284323 
L 151.970053 -493.370978 
L 163.905882 -497.901034 
L 175.841711 -504.238151 
L 187.77754 -500.238293 
L 199.713369 -500.556816 
L 211.649198 -511.529261 
L 223.585027 -504.149922 
L 235.520856 -502.30712 
L 247.456684 -512.560341 
L 259.392513 -512.884597 
L 271.328342 -512.272634 
L 283.264171 -513.522692 
L 295.2 -510.908776 
L 307.135829 -500.625658 
L 319.071658 -495.122012 
L 331.007487 -492.208025 
L 342.943316 -485.466479 
L 354.879144 -485.750365 
L 366.814973 -481.774467 
L 378.750802 -479.327287 
L 390.686631 -482.422396 
L 402.62246 -487.298436 
L 414.558289 -485.334697 
L 426.494118 -485.937669 
L 438.429947 -467.418434 
L 450.365775 -464.860321 
L 462.301604 -459.208223 
L 474.237433 -464.613055 
L 486.173262 -465.586737 
L 498.109091 -447.176319 
L 498.109091 -481.013468 
L 498.109091 -481.013468 
L 486.173262 -502.181554 
L 474.237433 -506.36791 
L 462.301604 -499.874867 
L 450.365775 -501.090645 
L 438.429947 -510.587049 
L 426.494118 -523.270535 
L 414.558289 -520.427076 
L 402.62246 -513.924198 
L 390.686631 -524.097171 
L 378.750802 -515.596837 
L 366.814973 -518.428495 
L 354.879144 -522.379856 
L 342.943316 -523.849531 
L 331.007487 -526.517396 
L 319.071658 -533.517147 
L 307.135829 -530.386823 
L 295.2 -541.741294 
L 283.264171 -545.389191 
L 271.328342 -538.286995 
L 259.392513 -541.227956 
L 247.456684 -542.95932 
L 235.520856 -532.180566 
L 223.585027 -533.421633 
L 211.649198 -542.152353 
L 199.713369 -534.621282 
L 187.77754 -535.639079 
L 175.841711 -534.765519 
L 163.905882 -531.818826 
L 151.970053 -519.971059 
L 140.034225 -507.652269 
L 128.098396 -501.111719 
L 116.162567 -499.056661 
L 104.226738 -489.294467 
L 92.290909 -494.448379 
z
" style="stroke: #7f7f7f; stroke-opacity: 0.2"/>
    </defs>
    <g clip-path="url(#p94d754b018)">
     <use xlink:href="#m0acc88aaed" x="0" y="648" style="fill: #7f7f7f; fill-opacity: 0.2; stroke: #7f7f7f; stroke-opacity: 0.2"/>
    </g>
   </g>
   <g id="PolyCollection_2">
    <defs>
     <path id="mf1b4511730" d="M 92.290909 -492.988165 
L 92.290909 -475.52614 
L 104.226738 -473.889749 
L 116.162567 -475.984124 
L 128.098396 -471.913085 
L 140.034225 -480.894276 
L 151.970053 -490.209184 
L 163.905882 -493.223757 
L 175.841711 -493.526037 
L 187.77754 -500.556641 
L 199.713369 -500.209521 
L 211.649198 -497.878274 
L 223.585027 -500.118881 
L 235.520856 -500.186583 
L 247.456684 -504.048493 
L 259.392513 -513.956799 
L 271.328342 -519.771291 
L 283.264171 -518.873406 
L 295.2 -512.964397 
L 307.135829 -500.143305 
L 319.071658 -480.295519 
L 331.007487 -461.701878 
L 342.943316 -456.680456 
L 354.879144 -442.601454 
L 366.814973 -447.139341 
L 378.750802 -452.46987 
L 390.686631 -432.6552 
L 402.62246 -430.157647 
L 414.558289 -450.109497 
L 426.494118 -454.457841 
L 438.429947 -451.605706 
L 450.365775 -450.094713 
L 462.301604 -442.443403 
L 474.237433 -445.461371 
L 486.173262 -443.107292 
L 498.109091 -446.542531 
L 498.109091 -494.847894 
L 498.109091 -494.847894 
L 486.173262 -489.533786 
L 474.237433 -488.57066 
L 462.301604 -487.42329 
L 450.365775 -489.408264 
L 438.429947 -490.522054 
L 426.494118 -502.472609 
L 414.558289 -508.855223 
L 402.62246 -484.024652 
L 390.686631 -480.683558 
L 378.750802 -496.382359 
L 366.814973 -494.787815 
L 354.879144 -494.136669 
L 342.943316 -503.647028 
L 331.007487 -503.920216 
L 319.071658 -515.934632 
L 307.135829 -539.173761 
L 295.2 -551.317665 
L 283.264171 -563.557245 
L 271.328342 -563.569412 
L 259.392513 -553.137348 
L 247.456684 -544.320085 
L 235.520856 -537.51572 
L 223.585027 -536.956869 
L 211.649198 -541.723592 
L 199.713369 -544.788603 
L 187.77754 -540.752267 
L 175.841711 -536.676625 
L 163.905882 -537.891365 
L 151.970053 -529.062574 
L 140.034225 -511.4696 
L 128.098396 -500.576352 
L 116.162567 -493.612772 
L 104.226738 -488.044689 
L 92.290909 -492.988165 
z
" style="stroke: #17becf; stroke-opacity: 0.2"/>
    </defs>
    <g clip-path="url(#p94d754b018)">
     <use xlink:href="#mf1b4511730" x="0" y="648" style="fill: #17becf; fill-opacity: 0.2; stroke: #17becf; stroke-opacity: 0.2"/>
    </g>
   </g>
   <g id="matplotlib.axis_1">
    <g id="xtick_1">
     <g id="line2d_1">
      <defs>
       <path id="m954b66091b" d="M 0 0 
L 0 3.5 
" style="stroke: #000000; stroke-width: 0.8"/>
      </defs>
      <g>
       <use xlink:href="#m954b66091b" x="80.35508" y="224.512941" style="stroke: #000000; stroke-width: 0.8"/>
      </g>
     </g>
     <g id="text_1">
      <!-- −2 -->
      <g transform="translate(72.983986 239.111379) scale(0.1 -0.1)">
       <defs>
        <path id="DejaVuSans-2212" d="M 678 2272 
L 4684 2272 
L 4684 1741 
L 678 1741 
L 678 2272 
z
" transform="scale(0.015625)"/>
        <path id="DejaVuSans-32" d="M 1228 531 
L 3431 531 
L 3431 0 
L 469 0 
L 469 531 
Q 828 903 1448 1529 
Q 2069 2156 2228 2338 
Q 2531 2678 2651 2914 
Q 2772 3150 2772 3378 
Q 2772 3750 2511 3984 
Q 2250 4219 1831 4219 
Q 1534 4219 1204 4116 
Q 875 4013 500 3803 
L 500 4441 
Q 881 4594 1212 4672 
Q 1544 4750 1819 4750 
Q 2544 4750 2975 4387 
Q 3406 4025 3406 3419 
Q 3406 3131 3298 2873 
Q 3191 2616 2906 2266 
Q 2828 2175 2409 1742 
Q 1991 1309 1228 531 
z
" transform="scale(0.015625)"/>
       </defs>
       <use xlink:href="#DejaVuSans-2212"/>
       <use xlink:href="#DejaVuSans-32" x="83.789062"/>
      </g>
     </g>
    </g>
    <g id="xtick_2">
     <g id="line2d_2">
      <g>
       <use xlink:href="#m954b66091b" x="140.034225" y="224.512941" style="stroke: #000000; stroke-width: 0.8"/>
      </g>
     </g>
     <g id="text_2">
      <!-- −1 -->
      <g transform="translate(132.663131 239.111379) scale(0.1 -0.1)">
       <defs>
        <path id="DejaVuSans-31" d="M 794 531 
L 1825 531 
L 1825 4091 
L 703 3866 
L 703 4441 
L 1819 4666 
L 2450 4666 
L 2450 531 
L 3481 531 
L 3481 0 
L 794 0 
L 794 531 
z
" transform="scale(0.015625)"/>
       </defs>
       <use xlink:href="#DejaVuSans-2212"/>
       <use xlink:href="#DejaVuSans-31" x="83.789062"/>
      </g>
     </g>
    </g>
    <g id="xtick_3">
     <g id="line2d_3">
      <g>
       <use xlink:href="#m954b66091b" x="199.713369" y="224.512941" style="stroke: #000000; stroke-width: 0.8"/>
      </g>
     </g>
     <g id="text_3">
      <!-- 0 -->
      <g transform="translate(196.532119 239.111379) scale(0.1 -0.1)">
       <defs>
        <path id="DejaVuSans-30" d="M 2034 4250 
Q 1547 4250 1301 3770 
Q 1056 3291 1056 2328 
Q 1056 1369 1301 889 
Q 1547 409 2034 409 
Q 2525 409 2770 889 
Q 3016 1369 3016 2328 
Q 3016 3291 2770 3770 
Q 2525 4250 2034 4250 
z
M 2034 4750 
Q 2819 4750 3233 4129 
Q 3647 3509 3647 2328 
Q 3647 1150 3233 529 
Q 2819 -91 2034 -91 
Q 1250 -91 836 529 
Q 422 1150 422 2328 
Q 422 3509 836 4129 
Q 1250 4750 2034 4750 
z
" transform="scale(0.015625)"/>
       </defs>
       <use xlink:href="#DejaVuSans-30"/>
      </g>
     </g>
    </g>
    <g id="xtick_4">
     <g id="line2d_4">
      <g>
       <use xlink:href="#m954b66091b" x="259.392513" y="224.512941" style="stroke: #000000; stroke-width: 0.8"/>
      </g>
     </g>
     <g id="text_4">
      <!-- 1 -->
      <g transform="translate(256.211263 239.111379) scale(0.1 -0.1)">
       <use xlink:href="#DejaVuSans-31"/>
      </g>
     </g>
    </g>
    <g id="xtick_5">
     <g id="line2d_5">
      <g>
       <use xlink:href="#m954b66091b" x="319.071658" y="224.512941" style="stroke: #000000; stroke-width: 0.8"/>
      </g>
     </g>
     <g id="text_5">
      <!-- 2 -->
      <g transform="translate(315.890408 239.111379) scale(0.1 -0.1)">
       <use xlink:href="#DejaVuSans-32"/>
      </g>
     </g>
    </g>
    <g id="xtick_6">
     <g id="line2d_6">
      <g>
       <use xlink:href="#m954b66091b" x="378.750802" y="224.512941" style="stroke: #000000; stroke-width: 0.8"/>
      </g>
     </g>
     <g id="text_6">
      <!-- 3 -->
      <g transform="translate(375.569552 239.111379) scale(0.1 -0.1)">
       <defs>
        <path id="DejaVuSans-33" d="M 2597 2516 
Q 3050 2419 3304 2112 
Q 3559 1806 3559 1356 
Q 3559 666 3084 287 
Q 2609 -91 1734 -91 
Q 1441 -91 1130 -33 
Q 819 25 488 141 
L 488 750 
Q 750 597 1062 519 
Q 1375 441 1716 441 
Q 2309 441 2620 675 
Q 2931 909 2931 1356 
Q 2931 1769 2642 2001 
Q 2353 2234 1838 2234 
L 1294 2234 
L 1294 2753 
L 1863 2753 
Q 2328 2753 2575 2939 
Q 2822 3125 2822 3475 
Q 2822 3834 2567 4026 
Q 2313 4219 1838 4219 
Q 1578 4219 1281 4162 
Q 984 4106 628 3988 
L 628 4550 
Q 988 4650 1302 4700 
Q 1616 4750 1894 4750 
Q 2613 4750 3031 4423 
Q 3450 4097 3450 3541 
Q 3450 3153 3228 2886 
Q 3006 2619 2597 2516 
z
" transform="scale(0.015625)"/>
       </defs>
       <use xlink:href="#DejaVuSans-33"/>
      </g>
     </g>
    </g>
    <g id="xtick_7">
     <g id="line2d_7">
      <g>
       <use xlink:href="#m954b66091b" x="438.429947" y="224.512941" style="stroke: #000000; stroke-width: 0.8"/>
      </g>
     </g>
     <g id="text_7">
      <!-- 4 -->
      <g transform="translate(435.248697 239.111379) scale(0.1 -0.1)">
       <defs>
        <path id="DejaVuSans-34" d="M 2419 4116 
L 825 1625 
L 2419 1625 
L 2419 4116 
z
M 2253 4666 
L 3047 4666 
L 3047 1625 
L 3713 1625 
L 3713 1100 
L 3047 1100 
L 3047 0 
L 2419 0 
L 2419 1100 
L 313 1100 
L 313 1709 
L 2253 4666 
z
" transform="scale(0.015625)"/>
       </defs>
       <use xlink:href="#DejaVuSans-34"/>
      </g>
     </g>
    </g>
    <g id="xtick_8">
     <g id="line2d_8">
      <g>
       <use xlink:href="#m954b66091b" x="498.109091" y="224.512941" style="stroke: #000000; stroke-width: 0.8"/>
      </g>
     </g>
     <g id="text_8">
      <!-- 5 -->
      <g transform="translate(494.927841 239.111379) scale(0.1 -0.1)">
       <defs>
        <path id="DejaVuSans-35" d="M 691 4666 
L 3169 4666 
L 3169 4134 
L 1269 4134 
L 1269 2991 
Q 1406 3038 1543 3061 
Q 1681 3084 1819 3084 
Q 2600 3084 3056 2656 
Q 3513 2228 3513 1497 
Q 3513 744 3044 326 
Q 2575 -91 1722 -91 
Q 1428 -91 1123 -41 
Q 819 9 494 109 
L 494 744 
Q 775 591 1075 516 
Q 1375 441 1709 441 
Q 2250 441 2565 725 
Q 2881 1009 2881 1497 
Q 2881 1984 2565 2268 
Q 2250 2553 1709 2553 
Q 1456 2553 1204 2497 
Q 953 2441 691 2322 
L 691 4666 
z
" transform="scale(0.015625)"/>
       </defs>
       <use xlink:href="#DejaVuSans-35"/>
      </g>
     </g>
    </g>
   </g>
   <g id="matplotlib.axis_2">
    <g id="ytick_1">
     <g id="line2d_9">
      <defs>
       <path id="m349e081f25" d="M 0 0 
L -3.5 0 
" style="stroke: #000000; stroke-width: 0.8"/>
      </defs>
      <g>
       <use xlink:href="#m349e081f25" x="72" y="198.260082" style="stroke: #000000; stroke-width: 0.8"/>
      </g>
     </g>
     <g id="text_9">
      <!-- −0.2 -->
      <g transform="translate(40.717187 202.059301) scale(0.1 -0.1)">
       <defs>
        <path id="DejaVuSans-2e" d="M 684 794 
L 1344 794 
L 1344 0 
L 684 0 
L 684 794 
z
" transform="scale(0.015625)"/>
       </defs>
       <use xlink:href="#DejaVuSans-2212"/>
       <use xlink:href="#DejaVuSans-30" x="83.789062"/>
       <use xlink:href="#DejaVuSans-2e" x="147.412109"/>
       <use xlink:href="#DejaVuSans-32" x="179.199219"/>
      </g>
     </g>
    </g>
    <g id="ytick_2">
     <g id="line2d_10">
      <g>
       <use xlink:href="#m349e081f25" x="72" y="164.718395" style="stroke: #000000; stroke-width: 0.8"/>
      </g>
     </g>
     <g id="text_10">
      <!-- 0.0 -->
      <g transform="translate(49.096875 168.517613) scale(0.1 -0.1)">
       <use xlink:href="#DejaVuSans-30"/>
       <use xlink:href="#DejaVuSans-2e" x="63.623047"/>
       <use xlink:href="#DejaVuSans-30" x="95.410156"/>
      </g>
     </g>
    </g>
    <g id="ytick_3">
     <g id="line2d_11">
      <g>
       <use xlink:href="#m349e081f25" x="72" y="131.176707" style="stroke: #000000; stroke-width: 0.8"/>
      </g>
     </g>
     <g id="text_11">
      <!-- 0.2 -->
      <g transform="translate(49.096875 134.975926) scale(0.1 -0.1)">
       <use xlink:href="#DejaVuSans-30"/>
       <use xlink:href="#DejaVuSans-2e" x="63.623047"/>
       <use xlink:href="#DejaVuSans-32" x="95.410156"/>
      </g>
     </g>
    </g>
    <g id="ytick_4">
     <g id="line2d_12">
      <g>
       <use xlink:href="#m349e081f25" x="72" y="97.63502" style="stroke: #000000; stroke-width: 0.8"/>
      </g>
     </g>
     <g id="text_12">
      <!-- 0.4 -->
      <g transform="translate(49.096875 101.434239) scale(0.1 -0.1)">
       <use xlink:href="#DejaVuSans-30"/>
       <use xlink:href="#DejaVuSans-2e" x="63.623047"/>
       <use xlink:href="#DejaVuSans-34" x="95.410156"/>
      </g>
     </g>
    </g>
    <g id="text_13">
     <!-- Lick Rate -->
     <g transform="translate(34.6375 174.007564) rotate(-90) scale(0.1 -0.1)">
      <defs>
       <path id="DejaVuSans-4c" d="M 628 4666 
L 1259 4666 
L 1259 531 
L 3531 531 
L 3531 0 
L 628 0 
L 628 4666 
z
" transform="scale(0.015625)"/>
       <path id="DejaVuSans-69" d="M 603 3500 
L 1178 3500 
L 1178 0 
L 603 0 
L 603 3500 
z
M 603 4863 
L 1178 4863 
L 1178 4134 
L 603 4134 
L 603 4863 
z
" transform="scale(0.015625)"/>
       <path id="DejaVuSans-63" d="M 3122 3366 
L 3122 2828 
Q 2878 2963 2633 3030 
Q 2388 3097 2138 3097 
Q 1578 3097 1268 2742 
Q 959 2388 959 1747 
Q 959 1106 1268 751 
Q 1578 397 2138 397 
Q 2388 397 2633 464 
Q 2878 531 3122 666 
L 3122 134 
Q 2881 22 2623 -34 
Q 2366 -91 2075 -91 
Q 1284 -91 818 406 
Q 353 903 353 1747 
Q 353 2603 823 3093 
Q 1294 3584 2113 3584 
Q 2378 3584 2631 3529 
Q 2884 3475 3122 3366 
z
" transform="scale(0.015625)"/>
       <path id="DejaVuSans-6b" d="M 581 4863 
L 1159 4863 
L 1159 1991 
L 2875 3500 
L 3609 3500 
L 1753 1863 
L 3688 0 
L 2938 0 
L 1159 1709 
L 1159 0 
L 581 0 
L 581 4863 
z
" transform="scale(0.015625)"/>
       <path id="DejaVuSans-20" transform="scale(0.015625)"/>
       <path id="DejaVuSans-52" d="M 2841 2188 
Q 3044 2119 3236 1894 
Q 3428 1669 3622 1275 
L 4263 0 
L 3584 0 
L 2988 1197 
Q 2756 1666 2539 1819 
Q 2322 1972 1947 1972 
L 1259 1972 
L 1259 0 
L 628 0 
L 628 4666 
L 2053 4666 
Q 2853 4666 3247 4331 
Q 3641 3997 3641 3322 
Q 3641 2881 3436 2590 
Q 3231 2300 2841 2188 
z
M 1259 4147 
L 1259 2491 
L 2053 2491 
Q 2509 2491 2742 2702 
Q 2975 2913 2975 3322 
Q 2975 3731 2742 3939 
Q 2509 4147 2053 4147 
L 1259 4147 
z
" transform="scale(0.015625)"/>
       <path id="DejaVuSans-61" d="M 2194 1759 
Q 1497 1759 1228 1600 
Q 959 1441 959 1056 
Q 959 750 1161 570 
Q 1363 391 1709 391 
Q 2188 391 2477 730 
Q 2766 1069 2766 1631 
L 2766 1759 
L 2194 1759 
z
M 3341 1997 
L 3341 0 
L 2766 0 
L 2766 531 
Q 2569 213 2275 61 
Q 1981 -91 1556 -91 
Q 1019 -91 701 211 
Q 384 513 384 1019 
Q 384 1609 779 1909 
Q 1175 2209 1959 2209 
L 2766 2209 
L 2766 2266 
Q 2766 2663 2505 2880 
Q 2244 3097 1772 3097 
Q 1472 3097 1187 3025 
Q 903 2953 641 2809 
L 641 3341 
Q 956 3463 1253 3523 
Q 1550 3584 1831 3584 
Q 2591 3584 2966 3190 
Q 3341 2797 3341 1997 
z
" transform="scale(0.015625)"/>
       <path id="DejaVuSans-74" d="M 1172 4494 
L 1172 3500 
L 2356 3500 
L 2356 3053 
L 1172 3053 
L 1172 1153 
Q 1172 725 1289 603 
Q 1406 481 1766 481 
L 2356 481 
L 2356 0 
L 1766 0 
Q 1100 0 847 248 
Q 594 497 594 1153 
L 594 3053 
L 172 3053 
L 172 3500 
L 594 3500 
L 594 4494 
L 1172 4494 
z
" transform="scale(0.015625)"/>
       <path id="DejaVuSans-65" d="M 3597 1894 
L 3597 1613 
L 953 1613 
Q 991 1019 1311 708 
Q 1631 397 2203 397 
Q 2534 397 2845 478 
Q 3156 559 3463 722 
L 3463 178 
Q 3153 47 2828 -22 
Q 2503 -91 2169 -91 
Q 1331 -91 842 396 
Q 353 884 353 1716 
Q 353 2575 817 3079 
Q 1281 3584 2069 3584 
Q 2775 3584 3186 3129 
Q 3597 2675 3597 1894 
z
M 3022 2063 
Q 3016 2534 2758 2815 
Q 2500 3097 2075 3097 
Q 1594 3097 1305 2825 
Q 1016 2553 972 2059 
L 3022 2063 
z
" transform="scale(0.015625)"/>
      </defs>
      <use xlink:href="#DejaVuSans-4c"/>
      <use xlink:href="#DejaVuSans-69" x="55.712891"/>
      <use xlink:href="#DejaVuSans-63" x="83.496094"/>
      <use xlink:href="#DejaVuSans-6b" x="138.476562"/>
      <use xlink:href="#DejaVuSans-20" x="196.386719"/>
      <use xlink:href="#DejaVuSans-52" x="228.173828"/>
      <use xlink:href="#DejaVuSans-61" x="295.40625"/>
      <use xlink:href="#DejaVuSans-74" x="356.685547"/>
      <use xlink:href="#DejaVuSans-65" x="395.894531"/>
     </g>
    </g>
   </g>
   <g id="line2d_13">
    <path d="M 92.290909 166.103045 
L 104.226738 165.867018 
L 116.162567 162.185121 
L 128.098396 158.40207 
L 140.034225 152.710634 
L 151.970053 141.597508 
L 163.905882 132.291612 
L 175.841711 128.542279 
L 187.77754 130.282073 
L 199.713369 130.147201 
L 211.649198 121.279641 
L 223.585027 130.180919 
L 235.520856 131.954431 
L 247.456684 121.144768 
L 259.392513 120.976177 
L 271.328342 122.715971 
L 283.264171 119.168947 
L 295.2 121.11105 
L 307.135829 131.988149 
L 319.071658 132.291612 
L 331.007487 137.814457 
L 342.943316 143.337302 
L 354.879144 143.539611 
L 366.814973 148.99502 
L 378.750802 150.768532 
L 390.686631 143.640765 
L 402.62246 147.052917 
L 414.558289 143.505893 
L 426.494118 143.74192 
L 438.429947 160.108146 
L 450.365775 165.867018 
L 462.301604 167.674248 
L 474.237433 162.319994 
L 486.173262 164.396969 
L 498.109091 184.276501 
" clip-path="url(#p94d754b018)" style="fill: none; stroke: #7f7f7f; stroke-width: 1.5; stroke-linecap: square"/>
   </g>
   <g id="line2d_14">
    <path d="M 92.290909 163.59225 
L 104.226738 167.071838 
L 116.162567 163.491096 
L 128.098396 161.447839 
L 140.034225 152.141943 
L 151.970053 139.221177 
L 163.905882 133.541526 
L 175.841711 133.339013 
L 187.77754 127.894366 
L 199.713369 126.042656 
L 211.649198 129.623194 
L 223.585027 129.69063 
L 235.520856 129.589475 
L 247.456684 123.999194 
L 259.392513 114.727016 
L 271.328342 107.329505 
L 283.264171 107.363018 
L 295.2 116.624434 
L 307.135829 129.825502 
L 319.071658 150.221978 
L 331.007487 165.084641 
L 342.943316 167.397439 
L 354.879144 180.00357 
L 366.814973 176.568667 
L 378.750802 173.234918 
L 390.686631 191.228817 
L 402.62246 191.150414 
L 414.558289 169.474619 
L 426.494118 169.21584 
L 438.429947 176.467717 
L 450.365775 178.510974 
L 462.301604 183.943427 
L 474.237433 182.226385 
L 486.173262 182.080341 
L 498.109091 176.894677 
" clip-path="url(#p94d754b018)" style="fill: none; stroke: #17becf; stroke-width: 1.5; stroke-linecap: square"/>
   </g>
   <g id="line2d_15"/>
   <g id="line2d_16"/>
   <g id="patch_3">
    <path d="M 72 224.512941 
L 72 77.76 
" style="fill: none; stroke: #000000; stroke-width: 0.8; stroke-linejoin: miter; stroke-linecap: square"/>
   </g>
   <g id="patch_4">
    <path d="M 72 224.512941 
L 518.4 224.512941 
" style="fill: none; stroke: #000000; stroke-width: 0.8; stroke-linejoin: miter; stroke-linecap: square"/>
   </g>
   <g id="text_14">
    <!-- N46 -->
    <g transform="translate(280.045312 71.76) scale(0.15 -0.15)">
     <defs>
      <path id="DejaVuSans-4e" d="M 628 4666 
L 1478 4666 
L 3547 763 
L 3547 4666 
L 4159 4666 
L 4159 0 
L 3309 0 
L 1241 3903 
L 1241 0 
L 628 0 
L 628 4666 
z
" transform="scale(0.015625)"/>
      <path id="DejaVuSans-36" d="M 2113 2584 
Q 1688 2584 1439 2293 
Q 1191 2003 1191 1497 
Q 1191 994 1439 701 
Q 1688 409 2113 409 
Q 2538 409 2786 701 
Q 3034 994 3034 1497 
Q 3034 2003 2786 2293 
Q 2538 2584 2113 2584 
z
M 3366 4563 
L 3366 3988 
Q 3128 4100 2886 4159 
Q 2644 4219 2406 4219 
Q 1781 4219 1451 3797 
Q 1122 3375 1075 2522 
Q 1259 2794 1537 2939 
Q 1816 3084 2150 3084 
Q 2853 3084 3261 2657 
Q 3669 2231 3669 1497 
Q 3669 778 3244 343 
Q 2819 -91 2113 -91 
Q 1303 -91 875 529 
Q 447 1150 447 2328 
Q 447 3434 972 4092 
Q 1497 4750 2381 4750 
Q 2619 4750 2861 4703 
Q 3103 4656 3366 4563 
z
" transform="scale(0.015625)"/>
     </defs>
     <use xlink:href="#DejaVuSans-4e"/>
     <use xlink:href="#DejaVuSans-34" x="74.804688"/>
     <use xlink:href="#DejaVuSans-36" x="138.427734"/>
    </g>
   </g>
  </g>
  <g id="axes_2">
   <g id="patch_5">
    <path d="M 72 400.616471 
L 518.4 400.616471 
L 518.4 253.863529 
L 72 253.863529 
z
" style="fill: #ffffff"/>
   </g>
   <g id="PolyCollection_3">
    <defs>
     <path id="med0c8b6056" d="M 92.290909 -357.641513 
L 92.290909 -351.118179 
L 104.226738 -355.456922 
L 116.162567 -353.417083 
L 128.098396 -345.937756 
L 140.034225 -336.864189 
L 151.970053 -326.274075 
L 163.905882 -317.655858 
L 175.841711 -310.078101 
L 187.77754 -300.809477 
L 199.713369 -291.595142 
L 211.649198 -286.479495 
L 223.585027 -280.267389 
L 235.520856 -274.936034 
L 247.456684 -272.49787 
L 259.392513 -268.12947 
L 271.328342 -260.155511 
L 283.264171 -255.359006 
L 295.2 -254.054118 
L 307.135829 -256.300191 
L 319.071658 -261.991174 
L 331.007487 -266.421367 
L 342.943316 -272.979015 
L 354.879144 -279.134654 
L 366.814973 -285.483553 
L 378.750802 -294.966115 
L 390.686631 -306.694473 
L 402.62246 -318.887451 
L 414.558289 -329.752614 
L 426.494118 -337.286883 
L 438.429947 -338.793374 
L 450.365775 -339.017625 
L 462.301604 -340.516514 
L 474.237433 -342.945167 
L 486.173262 -344.037458 
L 498.109091 -346.065919 
L 498.109091 -386.756046 
L 498.109091 -386.756046 
L 486.173262 -385.471076 
L 474.237433 -384.018965 
L 462.301604 -382.206444 
L 450.365775 -377.319243 
L 438.429947 -376.113929 
L 426.494118 -372.486345 
L 414.558289 -363.956371 
L 402.62246 -352.651865 
L 390.686631 -340.612482 
L 378.750802 -328.383322 
L 366.814973 -319.289726 
L 354.879144 -314.348119 
L 342.943316 -306.051944 
L 331.007487 -299.030391 
L 319.071658 -294.551358 
L 307.135829 -288.567796 
L 295.2 -282.360447 
L 283.264171 -284.655587 
L 271.328342 -290.312003 
L 259.392513 -299.107368 
L 247.456684 -301.823692 
L 235.520856 -308.324633 
L 223.585027 -310.182251 
L 211.649198 -314.216156 
L 199.713369 -318.62941 
L 187.77754 -325.90773 
L 175.841711 -335.267848 
L 163.905882 -343.563008 
L 151.970053 -349.179076 
L 140.034225 -353.99996 
L 128.098396 -357.753822 
L 116.162567 -360.145474 
L 104.226738 -357.485623 
L 92.290909 -357.641513 
z
" style="stroke: #7f7f7f; stroke-opacity: 0.2"/>
    </defs>
    <g clip-path="url(#p7a7a2848d9)">
     <use xlink:href="#med0c8b6056" x="0" y="648" style="fill: #7f7f7f; fill-opacity: 0.2; stroke: #7f7f7f; stroke-opacity: 0.2"/>
    </g>
   </g>
   <g id="PolyCollection_4">
    <defs>
     <path id="m3e66e87362" d="M 92.290909 -362.035739 
L 92.290909 -349.606193 
L 104.226738 -354.854992 
L 116.162567 -349.101563 
L 128.098396 -341.59242 
L 140.034225 -333.925803 
L 151.970053 -329.994369 
L 163.905882 -325.426242 
L 175.841711 -321.737469 
L 187.77754 -314.037905 
L 199.713369 -308.289715 
L 211.649198 -304.248437 
L 223.585027 -300.194605 
L 235.520856 -295.929945 
L 247.456684 -293.504308 
L 259.392513 -292.458906 
L 271.328342 -285.682067 
L 283.264171 -278.503838 
L 295.2 -274.427159 
L 307.135829 -278.023991 
L 319.071658 -281.746858 
L 331.007487 -283.154107 
L 342.943316 -283.998168 
L 354.879144 -286.521824 
L 366.814973 -292.13804 
L 378.750802 -299.642205 
L 390.686631 -306.329083 
L 402.62246 -308.885875 
L 414.558289 -313.444012 
L 426.494118 -318.465034 
L 438.429947 -325.000199 
L 450.365775 -332.514526 
L 462.301604 -339.587323 
L 474.237433 -342.938665 
L 486.173262 -345.745446 
L 498.109091 -349.045567 
L 498.109091 -387.465882 
L 498.109091 -387.465882 
L 486.173262 -385.017499 
L 474.237433 -379.692602 
L 462.301604 -375.671887 
L 450.365775 -367.961617 
L 438.429947 -360.092263 
L 426.494118 -350.033458 
L 414.558289 -344.290915 
L 402.62246 -338.66579 
L 390.686631 -333.381352 
L 378.750802 -328.386285 
L 366.814973 -323.456723 
L 354.879144 -316.291084 
L 342.943316 -312.630139 
L 331.007487 -309.963581 
L 319.071658 -308.653333 
L 307.135829 -302.041402 
L 295.2 -298.129937 
L 283.264171 -303.527523 
L 271.328342 -313.596295 
L 259.392513 -319.621666 
L 247.456684 -321.358536 
L 235.520856 -324.407472 
L 223.585027 -328.931805 
L 211.649198 -332.747501 
L 199.713369 -336.82402 
L 187.77754 -343.494749 
L 175.841711 -352.041913 
L 163.905882 -359.028229 
L 151.970053 -360.996183 
L 140.034225 -361.165325 
L 128.098396 -362.323047 
L 116.162567 -361.44557 
L 104.226738 -357.381719 
L 92.290909 -362.035739 
z
" style="stroke: #17becf; stroke-opacity: 0.2"/>
    </defs>
    <g clip-path="url(#p7a7a2848d9)">
     <use xlink:href="#m3e66e87362" x="0" y="648" style="fill: #17becf; fill-opacity: 0.2; stroke: #17becf; stroke-opacity: 0.2"/>
    </g>
   </g>
   <g id="matplotlib.axis_3">
    <g id="xtick_9">
     <g id="line2d_17">
      <g>
       <use xlink:href="#m954b66091b" x="80.35508" y="400.616471" style="stroke: #000000; stroke-width: 0.8"/>
      </g>
     </g>
     <g id="text_15">
      <!-- −2 -->
      <g transform="translate(72.983986 415.214908) scale(0.1 -0.1)">
       <use xlink:href="#DejaVuSans-2212"/>
       <use xlink:href="#DejaVuSans-32" x="83.789062"/>
      </g>
     </g>
    </g>
    <g id="xtick_10">
     <g id="line2d_18">
      <g>
       <use xlink:href="#m954b66091b" x="140.034225" y="400.616471" style="stroke: #000000; stroke-width: 0.8"/>
      </g>
     </g>
     <g id="text_16">
      <!-- −1 -->
      <g transform="translate(132.663131 415.214908) scale(0.1 -0.1)">
       <use xlink:href="#DejaVuSans-2212"/>
       <use xlink:href="#DejaVuSans-31" x="83.789062"/>
      </g>
     </g>
    </g>
    <g id="xtick_11">
     <g id="line2d_19">
      <g>
       <use xlink:href="#m954b66091b" x="199.713369" y="400.616471" style="stroke: #000000; stroke-width: 0.8"/>
      </g>
     </g>
     <g id="text_17">
      <!-- 0 -->
      <g transform="translate(196.532119 415.214908) scale(0.1 -0.1)">
       <use xlink:href="#DejaVuSans-30"/>
      </g>
     </g>
    </g>
    <g id="xtick_12">
     <g id="line2d_20">
      <g>
       <use xlink:href="#m954b66091b" x="259.392513" y="400.616471" style="stroke: #000000; stroke-width: 0.8"/>
      </g>
     </g>
     <g id="text_18">
      <!-- 1 -->
      <g transform="translate(256.211263 415.214908) scale(0.1 -0.1)">
       <use xlink:href="#DejaVuSans-31"/>
      </g>
     </g>
    </g>
    <g id="xtick_13">
     <g id="line2d_21">
      <g>
       <use xlink:href="#m954b66091b" x="319.071658" y="400.616471" style="stroke: #000000; stroke-width: 0.8"/>
      </g>
     </g>
     <g id="text_19">
      <!-- 2 -->
      <g transform="translate(315.890408 415.214908) scale(0.1 -0.1)">
       <use xlink:href="#DejaVuSans-32"/>
      </g>
     </g>
    </g>
    <g id="xtick_14">
     <g id="line2d_22">
      <g>
       <use xlink:href="#m954b66091b" x="378.750802" y="400.616471" style="stroke: #000000; stroke-width: 0.8"/>
      </g>
     </g>
     <g id="text_20">
      <!-- 3 -->
      <g transform="translate(375.569552 415.214908) scale(0.1 -0.1)">
       <use xlink:href="#DejaVuSans-33"/>
      </g>
     </g>
    </g>
    <g id="xtick_15">
     <g id="line2d_23">
      <g>
       <use xlink:href="#m954b66091b" x="438.429947" y="400.616471" style="stroke: #000000; stroke-width: 0.8"/>
      </g>
     </g>
     <g id="text_21">
      <!-- 4 -->
      <g transform="translate(435.248697 415.214908) scale(0.1 -0.1)">
       <use xlink:href="#DejaVuSans-34"/>
      </g>
     </g>
    </g>
    <g id="xtick_16">
     <g id="line2d_24">
      <g>
       <use xlink:href="#m954b66091b" x="498.109091" y="400.616471" style="stroke: #000000; stroke-width: 0.8"/>
      </g>
     </g>
     <g id="text_22">
      <!-- 5 -->
      <g transform="translate(494.927841 415.214908) scale(0.1 -0.1)">
       <use xlink:href="#DejaVuSans-35"/>
      </g>
     </g>
    </g>
   </g>
   <g id="matplotlib.axis_4">
    <g id="ytick_5">
     <g id="line2d_25">
      <g>
       <use xlink:href="#m349e081f25" x="72" y="386.184988" style="stroke: #000000; stroke-width: 0.8"/>
      </g>
     </g>
     <g id="text_23">
      <!-- −0.20 -->
      <g transform="translate(34.354687 389.984206) scale(0.1 -0.1)">
       <use xlink:href="#DejaVuSans-2212"/>
       <use xlink:href="#DejaVuSans-30" x="83.789062"/>
       <use xlink:href="#DejaVuSans-2e" x="147.412109"/>
       <use xlink:href="#DejaVuSans-32" x="179.199219"/>
       <use xlink:href="#DejaVuSans-30" x="242.822266"/>
      </g>
     </g>
    </g>
    <g id="ytick_6">
     <g id="line2d_26">
      <g>
       <use xlink:href="#m349e081f25" x="72" y="362.676054" style="stroke: #000000; stroke-width: 0.8"/>
      </g>
     </g>
     <g id="text_24">
      <!-- −0.15 -->
      <g transform="translate(34.354687 366.475272) scale(0.1 -0.1)">
       <use xlink:href="#DejaVuSans-2212"/>
       <use xlink:href="#DejaVuSans-30" x="83.789062"/>
       <use xlink:href="#DejaVuSans-2e" x="147.412109"/>
       <use xlink:href="#DejaVuSans-31" x="179.199219"/>
       <use xlink:href="#DejaVuSans-35" x="242.822266"/>
      </g>
     </g>
    </g>
    <g id="ytick_7">
     <g id="line2d_27">
      <g>
       <use xlink:href="#m349e081f25" x="72" y="339.16712" style="stroke: #000000; stroke-width: 0.8"/>
      </g>
     </g>
     <g id="text_25">
      <!-- −0.10 -->
      <g transform="translate(34.354687 342.966339) scale(0.1 -0.1)">
       <use xlink:href="#DejaVuSans-2212"/>
       <use xlink:href="#DejaVuSans-30" x="83.789062"/>
       <use xlink:href="#DejaVuSans-2e" x="147.412109"/>
       <use xlink:href="#DejaVuSans-31" x="179.199219"/>
       <use xlink:href="#DejaVuSans-30" x="242.822266"/>
      </g>
     </g>
    </g>
    <g id="ytick_8">
     <g id="line2d_28">
      <g>
       <use xlink:href="#m349e081f25" x="72" y="315.658186" style="stroke: #000000; stroke-width: 0.8"/>
      </g>
     </g>
     <g id="text_26">
      <!-- −0.05 -->
      <g transform="translate(34.354687 319.457405) scale(0.1 -0.1)">
       <use xlink:href="#DejaVuSans-2212"/>
       <use xlink:href="#DejaVuSans-30" x="83.789062"/>
       <use xlink:href="#DejaVuSans-2e" x="147.412109"/>
       <use xlink:href="#DejaVuSans-30" x="179.199219"/>
       <use xlink:href="#DejaVuSans-35" x="242.822266"/>
      </g>
     </g>
    </g>
    <g id="ytick_9">
     <g id="line2d_29">
      <g>
       <use xlink:href="#m349e081f25" x="72" y="292.149252" style="stroke: #000000; stroke-width: 0.8"/>
      </g>
     </g>
     <g id="text_27">
      <!-- 0.00 -->
      <g transform="translate(42.734375 295.948471) scale(0.1 -0.1)">
       <use xlink:href="#DejaVuSans-30"/>
       <use xlink:href="#DejaVuSans-2e" x="63.623047"/>
       <use xlink:href="#DejaVuSans-30" x="95.410156"/>
       <use xlink:href="#DejaVuSans-30" x="159.033203"/>
      </g>
     </g>
    </g>
    <g id="ytick_10">
     <g id="line2d_30">
      <g>
       <use xlink:href="#m349e081f25" x="72" y="268.640318" style="stroke: #000000; stroke-width: 0.8"/>
      </g>
     </g>
     <g id="text_28">
      <!-- 0.05 -->
      <g transform="translate(42.734375 272.439537) scale(0.1 -0.1)">
       <use xlink:href="#DejaVuSans-30"/>
       <use xlink:href="#DejaVuSans-2e" x="63.623047"/>
       <use xlink:href="#DejaVuSans-30" x="95.410156"/>
       <use xlink:href="#DejaVuSans-35" x="159.033203"/>
      </g>
     </g>
    </g>
    <g id="text_29">
     <!-- Velocity -->
     <g transform="translate(28.275 346.855625) rotate(-90) scale(0.1 -0.1)">
      <defs>
       <path id="DejaVuSans-56" d="M 1831 0 
L 50 4666 
L 709 4666 
L 2188 738 
L 3669 4666 
L 4325 4666 
L 2547 0 
L 1831 0 
z
" transform="scale(0.015625)"/>
       <path id="DejaVuSans-6c" d="M 603 4863 
L 1178 4863 
L 1178 0 
L 603 0 
L 603 4863 
z
" transform="scale(0.015625)"/>
       <path id="DejaVuSans-6f" d="M 1959 3097 
Q 1497 3097 1228 2736 
Q 959 2375 959 1747 
Q 959 1119 1226 758 
Q 1494 397 1959 397 
Q 2419 397 2687 759 
Q 2956 1122 2956 1747 
Q 2956 2369 2687 2733 
Q 2419 3097 1959 3097 
z
M 1959 3584 
Q 2709 3584 3137 3096 
Q 3566 2609 3566 1747 
Q 3566 888 3137 398 
Q 2709 -91 1959 -91 
Q 1206 -91 779 398 
Q 353 888 353 1747 
Q 353 2609 779 3096 
Q 1206 3584 1959 3584 
z
" transform="scale(0.015625)"/>
       <path id="DejaVuSans-79" d="M 2059 -325 
Q 1816 -950 1584 -1140 
Q 1353 -1331 966 -1331 
L 506 -1331 
L 506 -850 
L 844 -850 
Q 1081 -850 1212 -737 
Q 1344 -625 1503 -206 
L 1606 56 
L 191 3500 
L 800 3500 
L 1894 763 
L 2988 3500 
L 3597 3500 
L 2059 -325 
z
" transform="scale(0.015625)"/>
      </defs>
      <use xlink:href="#DejaVuSans-56"/>
      <use xlink:href="#DejaVuSans-65" x="60.658203"/>
      <use xlink:href="#DejaVuSans-6c" x="122.181641"/>
      <use xlink:href="#DejaVuSans-6f" x="149.964844"/>
      <use xlink:href="#DejaVuSans-63" x="211.146484"/>
      <use xlink:href="#DejaVuSans-69" x="266.126953"/>
      <use xlink:href="#DejaVuSans-74" x="293.910156"/>
      <use xlink:href="#DejaVuSans-79" x="333.119141"/>
     </g>
    </g>
   </g>
   <g id="line2d_31">
    <path d="M 92.290909 293.547203 
L 104.226738 291.507605 
L 116.162567 291.392948 
L 128.098396 296.016746 
L 140.034225 303.072008 
L 151.970053 310.231535 
L 163.905882 316.796173 
L 175.841711 324.877608 
L 187.77754 334.664666 
L 199.713369 342.736467 
L 211.649198 348.484455 
L 223.585027 352.708616 
L 235.520856 356.477683 
L 247.456684 360.84607 
L 259.392513 365.520353 
L 271.328342 372.556091 
L 283.264171 379.131309 
L 295.2 379.707001 
L 307.135829 376.012857 
L 319.071658 371.388848 
L 331.007487 365.555114 
L 342.943316 358.231627 
L 354.879144 351.99575 
L 366.814973 345.679797 
L 378.750802 336.065296 
L 390.686631 324.165463 
L 402.62246 312.632259 
L 414.558289 302.11923 
L 426.494118 293.750377 
L 438.429947 290.831125 
L 450.365775 290.725973 
L 462.301604 288.221979 
L 474.237433 285.144423 
L 486.173262 283.077412 
L 498.109091 281.490902 
" clip-path="url(#p7a7a2848d9)" style="fill: none; stroke: #7f7f7f; stroke-width: 1.5; stroke-linecap: square"/>
   </g>
   <g id="line2d_32">
    <path d="M 92.290909 292.07174 
L 104.226738 291.876347 
L 116.162567 292.49967 
L 128.098396 295.908314 
L 140.034225 300.395371 
L 151.970053 303.02927 
L 163.905882 305.56977 
L 175.841711 311.062711 
L 187.77754 318.99223 
L 199.713369 325.308316 
L 211.649198 328.856006 
L 223.585027 333.082192 
L 235.520856 337.973056 
L 247.456684 340.21746 
L 259.392513 341.851068 
L 271.328342 347.920866 
L 283.264171 357.016273 
L 295.2 361.597586 
L 307.135829 358.46985 
L 319.071658 353.188647 
L 331.007487 350.964792 
L 342.943316 349.912046 
L 354.879144 346.358189 
L 366.814973 340.163504 
L 378.750802 333.611993 
L 390.686631 328.329224 
L 402.62246 323.973745 
L 414.558289 319.085635 
L 426.494118 312.880716 
L 438.429947 305.88971 
L 450.365775 298.324676 
L 462.301604 290.967454 
L 474.237433 285.460844 
L 486.173262 281.640359 
L 498.109091 279.221916 
" clip-path="url(#p7a7a2848d9)" style="fill: none; stroke: #17becf; stroke-width: 1.5; stroke-linecap: square"/>
   </g>
   <g id="line2d_33"/>
   <g id="line2d_34"/>
   <g id="patch_6">
    <path d="M 72 400.616471 
L 72 253.863529 
" style="fill: none; stroke: #000000; stroke-width: 0.8; stroke-linejoin: miter; stroke-linecap: square"/>
   </g>
   <g id="patch_7">
    <path d="M 72 400.616471 
L 518.4 400.616471 
" style="fill: none; stroke: #000000; stroke-width: 0.8; stroke-linejoin: miter; stroke-linecap: square"/>
   </g>
   <g id="legend_1">
    <g id="patch_8">
     <path d="M 526.030312 305.897904 
L 689.96 305.897904 
Q 691.96 305.897904 691.96 303.897904 
L 691.96 260.863529 
Q 691.96 258.863529 689.96 258.863529 
L 526.030312 258.863529 
Q 524.030312 258.863529 524.030312 260.863529 
L 524.030312 303.897904 
Q 524.030312 305.897904 526.030312 305.897904 
z
" style="fill: #ffffff; opacity: 0.8; stroke: #cccccc; stroke-linejoin: miter"/>
    </g>
    <g id="text_30">
     <!-- Condition -->
     <g transform="translate(584.135 270.461967) scale(0.1 -0.1)">
      <defs>
       <path id="DejaVuSans-43" d="M 4122 4306 
L 4122 3641 
Q 3803 3938 3442 4084 
Q 3081 4231 2675 4231 
Q 1875 4231 1450 3742 
Q 1025 3253 1025 2328 
Q 1025 1406 1450 917 
Q 1875 428 2675 428 
Q 3081 428 3442 575 
Q 3803 722 4122 1019 
L 4122 359 
Q 3791 134 3420 21 
Q 3050 -91 2638 -91 
Q 1578 -91 968 557 
Q 359 1206 359 2328 
Q 359 3453 968 4101 
Q 1578 4750 2638 4750 
Q 3056 4750 3426 4639 
Q 3797 4528 4122 4306 
z
" transform="scale(0.015625)"/>
       <path id="DejaVuSans-6e" d="M 3513 2113 
L 3513 0 
L 2938 0 
L 2938 2094 
Q 2938 2591 2744 2837 
Q 2550 3084 2163 3084 
Q 1697 3084 1428 2787 
Q 1159 2491 1159 1978 
L 1159 0 
L 581 0 
L 581 3500 
L 1159 3500 
L 1159 2956 
Q 1366 3272 1645 3428 
Q 1925 3584 2291 3584 
Q 2894 3584 3203 3211 
Q 3513 2838 3513 2113 
z
" transform="scale(0.015625)"/>
       <path id="DejaVuSans-64" d="M 2906 2969 
L 2906 4863 
L 3481 4863 
L 3481 0 
L 2906 0 
L 2906 525 
Q 2725 213 2448 61 
Q 2172 -91 1784 -91 
Q 1150 -91 751 415 
Q 353 922 353 1747 
Q 353 2572 751 3078 
Q 1150 3584 1784 3584 
Q 2172 3584 2448 3432 
Q 2725 3281 2906 2969 
z
M 947 1747 
Q 947 1113 1208 752 
Q 1469 391 1925 391 
Q 2381 391 2643 752 
Q 2906 1113 2906 1747 
Q 2906 2381 2643 2742 
Q 2381 3103 1925 3103 
Q 1469 3103 1208 2742 
Q 947 2381 947 1747 
z
" transform="scale(0.015625)"/>
      </defs>
      <use xlink:href="#DejaVuSans-43"/>
      <use xlink:href="#DejaVuSans-6f" x="69.824219"/>
      <use xlink:href="#DejaVuSans-6e" x="131.005859"/>
      <use xlink:href="#DejaVuSans-64" x="194.384766"/>
      <use xlink:href="#DejaVuSans-69" x="257.861328"/>
      <use xlink:href="#DejaVuSans-74" x="285.644531"/>
      <use xlink:href="#DejaVuSans-69" x="324.853516"/>
      <use xlink:href="#DejaVuSans-6f" x="352.636719"/>
      <use xlink:href="#DejaVuSans-6e" x="413.818359"/>
     </g>
    </g>
    <g id="line2d_35">
     <path d="M 528.030312 281.640092 
L 538.030312 281.640092 
L 548.030312 281.640092 
" style="fill: none; stroke: #7f7f7f; stroke-width: 1.5; stroke-linecap: square"/>
    </g>
    <g id="text_31">
     <!-- Ctrl (# trials=30) -->
     <g transform="translate(556.030312 285.140092) scale(0.1 -0.1)">
      <defs>
       <path id="DejaVuSans-72" d="M 2631 2963 
Q 2534 3019 2420 3045 
Q 2306 3072 2169 3072 
Q 1681 3072 1420 2755 
Q 1159 2438 1159 1844 
L 1159 0 
L 581 0 
L 581 3500 
L 1159 3500 
L 1159 2956 
Q 1341 3275 1631 3429 
Q 1922 3584 2338 3584 
Q 2397 3584 2469 3576 
Q 2541 3569 2628 3553 
L 2631 2963 
z
" transform="scale(0.015625)"/>
       <path id="DejaVuSans-28" d="M 1984 4856 
Q 1566 4138 1362 3434 
Q 1159 2731 1159 2009 
Q 1159 1288 1364 580 
Q 1569 -128 1984 -844 
L 1484 -844 
Q 1016 -109 783 600 
Q 550 1309 550 2009 
Q 550 2706 781 3412 
Q 1013 4119 1484 4856 
L 1984 4856 
z
" transform="scale(0.015625)"/>
       <path id="DejaVuSans-23" d="M 3272 2816 
L 2363 2816 
L 2100 1772 
L 3016 1772 
L 3272 2816 
z
M 2803 4594 
L 2478 3297 
L 3391 3297 
L 3719 4594 
L 4219 4594 
L 3897 3297 
L 4872 3297 
L 4872 2816 
L 3775 2816 
L 3519 1772 
L 4513 1772 
L 4513 1294 
L 3397 1294 
L 3072 0 
L 2572 0 
L 2894 1294 
L 1978 1294 
L 1656 0 
L 1153 0 
L 1478 1294 
L 494 1294 
L 494 1772 
L 1594 1772 
L 1856 2816 
L 850 2816 
L 850 3297 
L 1978 3297 
L 2297 4594 
L 2803 4594 
z
" transform="scale(0.015625)"/>
       <path id="DejaVuSans-73" d="M 2834 3397 
L 2834 2853 
Q 2591 2978 2328 3040 
Q 2066 3103 1784 3103 
Q 1356 3103 1142 2972 
Q 928 2841 928 2578 
Q 928 2378 1081 2264 
Q 1234 2150 1697 2047 
L 1894 2003 
Q 2506 1872 2764 1633 
Q 3022 1394 3022 966 
Q 3022 478 2636 193 
Q 2250 -91 1575 -91 
Q 1294 -91 989 -36 
Q 684 19 347 128 
L 347 722 
Q 666 556 975 473 
Q 1284 391 1588 391 
Q 1994 391 2212 530 
Q 2431 669 2431 922 
Q 2431 1156 2273 1281 
Q 2116 1406 1581 1522 
L 1381 1569 
Q 847 1681 609 1914 
Q 372 2147 372 2553 
Q 372 3047 722 3315 
Q 1072 3584 1716 3584 
Q 2034 3584 2315 3537 
Q 2597 3491 2834 3397 
z
" transform="scale(0.015625)"/>
       <path id="DejaVuSans-3d" d="M 678 2906 
L 4684 2906 
L 4684 2381 
L 678 2381 
L 678 2906 
z
M 678 1631 
L 4684 1631 
L 4684 1100 
L 678 1100 
L 678 1631 
z
" transform="scale(0.015625)"/>
       <path id="DejaVuSans-29" d="M 513 4856 
L 1013 4856 
Q 1481 4119 1714 3412 
Q 1947 2706 1947 2009 
Q 1947 1309 1714 600 
Q 1481 -109 1013 -844 
L 513 -844 
Q 928 -128 1133 580 
Q 1338 1288 1338 2009 
Q 1338 2731 1133 3434 
Q 928 4138 513 4856 
z
" transform="scale(0.015625)"/>
      </defs>
      <use xlink:href="#DejaVuSans-43"/>
      <use xlink:href="#DejaVuSans-74" x="69.824219"/>
      <use xlink:href="#DejaVuSans-72" x="109.033203"/>
      <use xlink:href="#DejaVuSans-6c" x="150.146484"/>
      <use xlink:href="#DejaVuSans-20" x="177.929688"/>
      <use xlink:href="#DejaVuSans-28" x="209.716797"/>
      <use xlink:href="#DejaVuSans-23" x="248.730469"/>
      <use xlink:href="#DejaVuSans-20" x="332.519531"/>
      <use xlink:href="#DejaVuSans-74" x="364.306641"/>
      <use xlink:href="#DejaVuSans-72" x="403.515625"/>
      <use xlink:href="#DejaVuSans-69" x="444.628906"/>
      <use xlink:href="#DejaVuSans-61" x="472.412109"/>
      <use xlink:href="#DejaVuSans-6c" x="533.691406"/>
      <use xlink:href="#DejaVuSans-73" x="561.474609"/>
      <use xlink:href="#DejaVuSans-3d" x="613.574219"/>
      <use xlink:href="#DejaVuSans-33" x="697.363281"/>
      <use xlink:href="#DejaVuSans-30" x="760.986328"/>
      <use xlink:href="#DejaVuSans-29" x="824.609375"/>
     </g>
    </g>
    <g id="line2d_36">
     <path d="M 528.030312 296.318217 
L 538.030312 296.318217 
L 548.030312 296.318217 
" style="fill: none; stroke: #17becf; stroke-width: 1.5; stroke-linecap: square"/>
    </g>
    <g id="text_32">
     <!-- Freeze At RZ (# trials=30) -->
     <g transform="translate(556.030312 299.818217) scale(0.1 -0.1)">
      <defs>
       <path id="DejaVuSans-46" d="M 628 4666 
L 3309 4666 
L 3309 4134 
L 1259 4134 
L 1259 2759 
L 3109 2759 
L 3109 2228 
L 1259 2228 
L 1259 0 
L 628 0 
L 628 4666 
z
" transform="scale(0.015625)"/>
       <path id="DejaVuSans-7a" d="M 353 3500 
L 3084 3500 
L 3084 2975 
L 922 459 
L 3084 459 
L 3084 0 
L 275 0 
L 275 525 
L 2438 3041 
L 353 3041 
L 353 3500 
z
" transform="scale(0.015625)"/>
       <path id="DejaVuSans-41" d="M 2188 4044 
L 1331 1722 
L 3047 1722 
L 2188 4044 
z
M 1831 4666 
L 2547 4666 
L 4325 0 
L 3669 0 
L 3244 1197 
L 1141 1197 
L 716 0 
L 50 0 
L 1831 4666 
z
" transform="scale(0.015625)"/>
       <path id="DejaVuSans-5a" d="M 359 4666 
L 4025 4666 
L 4025 4184 
L 1075 531 
L 4097 531 
L 4097 0 
L 288 0 
L 288 481 
L 3238 4134 
L 359 4134 
L 359 4666 
z
" transform="scale(0.015625)"/>
      </defs>
      <use xlink:href="#DejaVuSans-46"/>
      <use xlink:href="#DejaVuSans-72" x="50.269531"/>
      <use xlink:href="#DejaVuSans-65" x="89.132812"/>
      <use xlink:href="#DejaVuSans-65" x="150.65625"/>
      <use xlink:href="#DejaVuSans-7a" x="212.179688"/>
      <use xlink:href="#DejaVuSans-65" x="264.669922"/>
      <use xlink:href="#DejaVuSans-20" x="326.193359"/>
      <use xlink:href="#DejaVuSans-41" x="357.980469"/>
      <use xlink:href="#DejaVuSans-74" x="424.638672"/>
      <use xlink:href="#DejaVuSans-20" x="463.847656"/>
      <use xlink:href="#DejaVuSans-52" x="495.634766"/>
      <use xlink:href="#DejaVuSans-5a" x="565.117188"/>
      <use xlink:href="#DejaVuSans-20" x="633.623047"/>
      <use xlink:href="#DejaVuSans-28" x="665.410156"/>
      <use xlink:href="#DejaVuSans-23" x="704.423828"/>
      <use xlink:href="#DejaVuSans-20" x="788.212891"/>
      <use xlink:href="#DejaVuSans-74" x="820"/>
      <use xlink:href="#DejaVuSans-72" x="859.208984"/>
      <use xlink:href="#DejaVuSans-69" x="900.322266"/>
      <use xlink:href="#DejaVuSans-61" x="928.105469"/>
      <use xlink:href="#DejaVuSans-6c" x="989.384766"/>
      <use xlink:href="#DejaVuSans-73" x="1017.167969"/>
      <use xlink:href="#DejaVuSans-3d" x="1069.267578"/>
      <use xlink:href="#DejaVuSans-33" x="1153.056641"/>
      <use xlink:href="#DejaVuSans-30" x="1216.679688"/>
      <use xlink:href="#DejaVuSans-29" x="1280.302734"/>
     </g>
    </g>
   </g>
  </g>
  <g id="axes_3">
   <g id="patch_9">
    <path d="M 72 576.72 
L 518.4 576.72 
L 518.4 429.967059 
L 72 429.967059 
z
" style="fill: #ffffff"/>
   </g>
   <g id="PolyCollection_5">
    <defs>
     <path id="m435762a5f2" d="M 92.290909 -186.857578 
L 92.290909 -173.899307 
L 104.226738 -179.763479 
L 116.162567 -179.136918 
L 128.098396 -171.746671 
L 140.034225 -169.886927 
L 151.970053 -166.493908 
L 163.905882 -155.527721 
L 175.841711 -150.426614 
L 187.77754 -145.163067 
L 199.713369 -137.455388 
L 211.649198 -135.182564 
L 223.585027 -133.749931 
L 235.520856 -110.418548 
L 247.456684 -81.773434 
L 259.392513 -77.950588 
L 271.328342 -92.70284 
L 283.264171 -110.624167 
L 295.2 -123.955915 
L 307.135829 -127.654747 
L 319.071658 -133.653635 
L 331.007487 -142.821474 
L 342.943316 -139.313403 
L 354.879144 -139.550536 
L 366.814973 -142.217983 
L 378.750802 -141.262891 
L 390.686631 -129.857593 
L 402.62246 -126.165545 
L 414.558289 -129.012995 
L 426.494118 -118.001096 
L 438.429947 -116.545891 
L 450.365775 -119.435564 
L 462.301604 -128.163349 
L 474.237433 -131.21886 
L 486.173262 -133.934059 
L 498.109091 -139.306952 
L 498.109091 -165.794791 
L 498.109091 -165.794791 
L 486.173262 -159.742082 
L 474.237433 -161.867702 
L 462.301604 -159.260537 
L 450.365775 -147.301283 
L 438.429947 -144.986174 
L 426.494118 -149.218473 
L 414.558289 -157.720031 
L 402.62246 -155.913717 
L 390.686631 -162.828655 
L 378.750802 -170.376368 
L 366.814973 -173.487529 
L 354.879144 -170.737593 
L 342.943316 -168.250101 
L 331.007487 -167.26757 
L 319.071658 -160.113996 
L 307.135829 -155.963004 
L 295.2 -153.013016 
L 283.264171 -136.028822 
L 271.328342 -124.259082 
L 259.392513 -111.564497 
L 247.456684 -111.89505 
L 235.520856 -140.180897 
L 223.585027 -160.349143 
L 211.649198 -162.265907 
L 199.713369 -165.816502 
L 187.77754 -175.256788 
L 175.841711 -178.364947 
L 163.905882 -182.853037 
L 151.970053 -192.533155 
L 140.034225 -193.161031 
L 128.098396 -194.666461 
L 116.162567 -192.187405 
L 104.226738 -187.564162 
L 92.290909 -186.857578 
z
" style="stroke: #7f7f7f; stroke-opacity: 0.2"/>
    </defs>
    <g clip-path="url(#p29d51ba107)">
     <use xlink:href="#m435762a5f2" x="0" y="648" style="fill: #7f7f7f; fill-opacity: 0.2; stroke: #7f7f7f; stroke-opacity: 0.2"/>
    </g>
   </g>
   <g id="PolyCollection_6">
    <defs>
     <path id="m53ad4d972a" d="M 92.290909 -191.87367 
L 92.290909 -174.779667 
L 104.226738 -175.462717 
L 116.162567 -178.19369 
L 128.098396 -169.094607 
L 140.034225 -169.139215 
L 151.970053 -174.418301 
L 163.905882 -168.387882 
L 175.841711 -169.328807 
L 187.77754 -178.300443 
L 199.713369 -164.940622 
L 211.649198 -149.265914 
L 223.585027 -143.520905 
L 235.520856 -132.919138 
L 247.456684 -108.054089 
L 259.392513 -79.808507 
L 271.328342 -81.005405 
L 283.264171 -87.178722 
L 295.2 -91.052757 
L 307.135829 -91.565244 
L 319.071658 -89.124046 
L 331.007487 -90.288307 
L 342.943316 -96.494941 
L 354.879144 -104.708977 
L 366.814973 -117.725858 
L 378.750802 -123.948112 
L 390.686631 -115.401285 
L 402.62246 -117.481146 
L 414.558289 -116.673212 
L 426.494118 -108.314815 
L 438.429947 -110.470701 
L 450.365775 -109.858088 
L 462.301604 -117.234595 
L 474.237433 -126.069697 
L 486.173262 -126.958891 
L 498.109091 -121.627139 
L 498.109091 -156.872851 
L 498.109091 -156.872851 
L 486.173262 -160.805043 
L 474.237433 -159.28318 
L 462.301604 -154.10493 
L 450.365775 -145.413164 
L 438.429947 -142.89651 
L 426.494118 -140.531758 
L 414.558289 -149.04332 
L 402.62246 -150.302189 
L 390.686631 -144.922305 
L 378.750802 -152.068309 
L 366.814973 -148.807248 
L 354.879144 -137.95077 
L 342.943316 -128.808064 
L 331.007487 -122.571668 
L 319.071658 -119.853128 
L 307.135829 -120.258541 
L 295.2 -119.623271 
L 283.264171 -117.274732 
L 271.328342 -112.904849 
L 259.392513 -113.596355 
L 247.456684 -141.955877 
L 235.520856 -165.301157 
L 223.585027 -175.105018 
L 211.649198 -182.273229 
L 199.713369 -197.510292 
L 187.77754 -211.362353 
L 175.841711 -199.176921 
L 163.905882 -197.743847 
L 151.970053 -204.592479 
L 140.034225 -196.157678 
L 128.098396 -194.150643 
L 116.162567 -195.922804 
L 104.226738 -183.708306 
L 92.290909 -191.87367 
z
" style="stroke: #17becf; stroke-opacity: 0.2"/>
    </defs>
    <g clip-path="url(#p29d51ba107)">
     <use xlink:href="#m53ad4d972a" x="0" y="648" style="fill: #17becf; fill-opacity: 0.2; stroke: #17becf; stroke-opacity: 0.2"/>
    </g>
   </g>
   <g id="matplotlib.axis_5">
    <g id="xtick_17">
     <g id="line2d_37">
      <g>
       <use xlink:href="#m954b66091b" x="80.35508" y="576.72" style="stroke: #000000; stroke-width: 0.8"/>
      </g>
     </g>
     <g id="text_33">
      <!-- −2 -->
      <g transform="translate(72.983986 591.318438) scale(0.1 -0.1)">
       <use xlink:href="#DejaVuSans-2212"/>
       <use xlink:href="#DejaVuSans-32" x="83.789062"/>
      </g>
     </g>
    </g>
    <g id="xtick_18">
     <g id="line2d_38">
      <g>
       <use xlink:href="#m954b66091b" x="140.034225" y="576.72" style="stroke: #000000; stroke-width: 0.8"/>
      </g>
     </g>
     <g id="text_34">
      <!-- −1 -->
      <g transform="translate(132.663131 591.318438) scale(0.1 -0.1)">
       <use xlink:href="#DejaVuSans-2212"/>
       <use xlink:href="#DejaVuSans-31" x="83.789062"/>
      </g>
     </g>
    </g>
    <g id="xtick_19">
     <g id="line2d_39">
      <g>
       <use xlink:href="#m954b66091b" x="199.713369" y="576.72" style="stroke: #000000; stroke-width: 0.8"/>
      </g>
     </g>
     <g id="text_35">
      <!-- 0 -->
      <g transform="translate(196.532119 591.318438) scale(0.1 -0.1)">
       <use xlink:href="#DejaVuSans-30"/>
      </g>
     </g>
    </g>
    <g id="xtick_20">
     <g id="line2d_40">
      <g>
       <use xlink:href="#m954b66091b" x="259.392513" y="576.72" style="stroke: #000000; stroke-width: 0.8"/>
      </g>
     </g>
     <g id="text_36">
      <!-- 1 -->
      <g transform="translate(256.211263 591.318438) scale(0.1 -0.1)">
       <use xlink:href="#DejaVuSans-31"/>
      </g>
     </g>
    </g>
    <g id="xtick_21">
     <g id="line2d_41">
      <g>
       <use xlink:href="#m954b66091b" x="319.071658" y="576.72" style="stroke: #000000; stroke-width: 0.8"/>
      </g>
     </g>
     <g id="text_37">
      <!-- 2 -->
      <g transform="translate(315.890408 591.318438) scale(0.1 -0.1)">
       <use xlink:href="#DejaVuSans-32"/>
      </g>
     </g>
    </g>
    <g id="xtick_22">
     <g id="line2d_42">
      <g>
       <use xlink:href="#m954b66091b" x="378.750802" y="576.72" style="stroke: #000000; stroke-width: 0.8"/>
      </g>
     </g>
     <g id="text_38">
      <!-- 3 -->
      <g transform="translate(375.569552 591.318438) scale(0.1 -0.1)">
       <use xlink:href="#DejaVuSans-33"/>
      </g>
     </g>
    </g>
    <g id="xtick_23">
     <g id="line2d_43">
      <g>
       <use xlink:href="#m954b66091b" x="438.429947" y="576.72" style="stroke: #000000; stroke-width: 0.8"/>
      </g>
     </g>
     <g id="text_39">
      <!-- 4 -->
      <g transform="translate(435.248697 591.318438) scale(0.1 -0.1)">
       <use xlink:href="#DejaVuSans-34"/>
      </g>
     </g>
    </g>
    <g id="xtick_24">
     <g id="line2d_44">
      <g>
       <use xlink:href="#m954b66091b" x="498.109091" y="576.72" style="stroke: #000000; stroke-width: 0.8"/>
      </g>
     </g>
     <g id="text_40">
      <!-- 5 -->
      <g transform="translate(494.927841 591.318438) scale(0.1 -0.1)">
       <use xlink:href="#DejaVuSans-35"/>
      </g>
     </g>
    </g>
    <g id="text_41">
     <!-- Time to RZ (s) -->
     <g transform="translate(259.774219 604.996562) scale(0.1 -0.1)">
      <defs>
       <path id="DejaVuSans-54" d="M -19 4666 
L 3928 4666 
L 3928 4134 
L 2272 4134 
L 2272 0 
L 1638 0 
L 1638 4134 
L -19 4134 
L -19 4666 
z
" transform="scale(0.015625)"/>
       <path id="DejaVuSans-6d" d="M 3328 2828 
Q 3544 3216 3844 3400 
Q 4144 3584 4550 3584 
Q 5097 3584 5394 3201 
Q 5691 2819 5691 2113 
L 5691 0 
L 5113 0 
L 5113 2094 
Q 5113 2597 4934 2840 
Q 4756 3084 4391 3084 
Q 3944 3084 3684 2787 
Q 3425 2491 3425 1978 
L 3425 0 
L 2847 0 
L 2847 2094 
Q 2847 2600 2669 2842 
Q 2491 3084 2119 3084 
Q 1678 3084 1418 2786 
Q 1159 2488 1159 1978 
L 1159 0 
L 581 0 
L 581 3500 
L 1159 3500 
L 1159 2956 
Q 1356 3278 1631 3431 
Q 1906 3584 2284 3584 
Q 2666 3584 2933 3390 
Q 3200 3197 3328 2828 
z
" transform="scale(0.015625)"/>
      </defs>
      <use xlink:href="#DejaVuSans-54"/>
      <use xlink:href="#DejaVuSans-69" x="57.958984"/>
      <use xlink:href="#DejaVuSans-6d" x="85.742188"/>
      <use xlink:href="#DejaVuSans-65" x="183.154297"/>
      <use xlink:href="#DejaVuSans-20" x="244.677734"/>
      <use xlink:href="#DejaVuSans-74" x="276.464844"/>
      <use xlink:href="#DejaVuSans-6f" x="315.673828"/>
      <use xlink:href="#DejaVuSans-20" x="376.855469"/>
      <use xlink:href="#DejaVuSans-52" x="408.642578"/>
      <use xlink:href="#DejaVuSans-5a" x="478.125"/>
      <use xlink:href="#DejaVuSans-20" x="546.630859"/>
      <use xlink:href="#DejaVuSans-28" x="578.417969"/>
      <use xlink:href="#DejaVuSans-73" x="617.431641"/>
      <use xlink:href="#DejaVuSans-29" x="669.53125"/>
     </g>
    </g>
   </g>
   <g id="matplotlib.axis_6">
    <g id="ytick_11">
     <g id="line2d_45">
      <g>
       <use xlink:href="#m349e081f25" x="72" y="574.161232" style="stroke: #000000; stroke-width: 0.8"/>
      </g>
     </g>
     <g id="text_42">
      <!-- −0.3 -->
      <g transform="translate(40.717187 577.960451) scale(0.1 -0.1)">
       <use xlink:href="#DejaVuSans-2212"/>
       <use xlink:href="#DejaVuSans-30" x="83.789062"/>
       <use xlink:href="#DejaVuSans-2e" x="147.412109"/>
       <use xlink:href="#DejaVuSans-33" x="179.199219"/>
      </g>
     </g>
    </g>
    <g id="ytick_12">
     <g id="line2d_46">
      <g>
       <use xlink:href="#m349e081f25" x="72" y="537.703163" style="stroke: #000000; stroke-width: 0.8"/>
      </g>
     </g>
     <g id="text_43">
      <!-- −0.2 -->
      <g transform="translate(40.717187 541.502382) scale(0.1 -0.1)">
       <use xlink:href="#DejaVuSans-2212"/>
       <use xlink:href="#DejaVuSans-30" x="83.789062"/>
       <use xlink:href="#DejaVuSans-2e" x="147.412109"/>
       <use xlink:href="#DejaVuSans-32" x="179.199219"/>
      </g>
     </g>
    </g>
    <g id="ytick_13">
     <g id="line2d_47">
      <g>
       <use xlink:href="#m349e081f25" x="72" y="501.245094" style="stroke: #000000; stroke-width: 0.8"/>
      </g>
     </g>
     <g id="text_44">
      <!-- −0.1 -->
      <g transform="translate(40.717187 505.044312) scale(0.1 -0.1)">
       <use xlink:href="#DejaVuSans-2212"/>
       <use xlink:href="#DejaVuSans-30" x="83.789062"/>
       <use xlink:href="#DejaVuSans-2e" x="147.412109"/>
       <use xlink:href="#DejaVuSans-31" x="179.199219"/>
      </g>
     </g>
    </g>
    <g id="ytick_14">
     <g id="line2d_48">
      <g>
       <use xlink:href="#m349e081f25" x="72" y="464.787024" style="stroke: #000000; stroke-width: 0.8"/>
      </g>
     </g>
     <g id="text_45">
      <!-- 0.0 -->
      <g transform="translate(49.096875 468.586243) scale(0.1 -0.1)">
       <use xlink:href="#DejaVuSans-30"/>
       <use xlink:href="#DejaVuSans-2e" x="63.623047"/>
       <use xlink:href="#DejaVuSans-30" x="95.410156"/>
      </g>
     </g>
    </g>
    <g id="text_46">
     <!-- Firing Rate -->
     <g transform="translate(34.6375 530.084936) rotate(-90) scale(0.1 -0.1)">
      <defs>
       <path id="DejaVuSans-67" d="M 2906 1791 
Q 2906 2416 2648 2759 
Q 2391 3103 1925 3103 
Q 1463 3103 1205 2759 
Q 947 2416 947 1791 
Q 947 1169 1205 825 
Q 1463 481 1925 481 
Q 2391 481 2648 825 
Q 2906 1169 2906 1791 
z
M 3481 434 
Q 3481 -459 3084 -895 
Q 2688 -1331 1869 -1331 
Q 1566 -1331 1297 -1286 
Q 1028 -1241 775 -1147 
L 775 -588 
Q 1028 -725 1275 -790 
Q 1522 -856 1778 -856 
Q 2344 -856 2625 -561 
Q 2906 -266 2906 331 
L 2906 616 
Q 2728 306 2450 153 
Q 2172 0 1784 0 
Q 1141 0 747 490 
Q 353 981 353 1791 
Q 353 2603 747 3093 
Q 1141 3584 1784 3584 
Q 2172 3584 2450 3431 
Q 2728 3278 2906 2969 
L 2906 3500 
L 3481 3500 
L 3481 434 
z
" transform="scale(0.015625)"/>
      </defs>
      <use xlink:href="#DejaVuSans-46"/>
      <use xlink:href="#DejaVuSans-69" x="50.269531"/>
      <use xlink:href="#DejaVuSans-72" x="78.052734"/>
      <use xlink:href="#DejaVuSans-69" x="119.166016"/>
      <use xlink:href="#DejaVuSans-6e" x="146.949219"/>
      <use xlink:href="#DejaVuSans-67" x="210.328125"/>
      <use xlink:href="#DejaVuSans-20" x="273.804688"/>
      <use xlink:href="#DejaVuSans-52" x="305.591797"/>
      <use xlink:href="#DejaVuSans-61" x="372.824219"/>
      <use xlink:href="#DejaVuSans-74" x="434.103516"/>
      <use xlink:href="#DejaVuSans-65" x="473.3125"/>
     </g>
    </g>
   </g>
   <g id="line2d_49">
    <path d="M 92.290909 467.527275 
L 104.226738 464.332738 
L 116.162567 462.50106 
L 128.098396 464.31512 
L 140.034225 467.039245 
L 151.970053 468.883654 
L 163.905882 478.831481 
L 175.841711 483.297899 
L 187.77754 487.269223 
L 199.713369 496.449935 
L 211.649198 498.218473 
L 223.585027 501.211734 
L 235.520856 522.353481 
L 247.456684 550.665263 
L 259.392513 552.950071 
L 271.328342 539.190372 
L 283.264171 524.447938 
L 295.2 508.825774 
L 307.135829 506.375631 
L 319.071658 500.929783 
L 331.007487 492.526785 
L 342.943316 494.418578 
L 354.879144 491.510021 
L 366.814973 489.82024 
L 378.750802 492.767578 
L 390.686631 501.796815 
L 402.62246 506.595891 
L 414.558289 505.631693 
L 426.494118 513.434052 
L 438.429947 516.793903 
L 450.365775 513.557641 
L 462.301604 504.152025 
L 474.237433 501.325045 
L 486.173262 501.698003 
L 498.109091 495.032831 
" clip-path="url(#p29d51ba107)" style="fill: none; stroke: #7f7f7f; stroke-width: 1.5; stroke-linecap: square"/>
   </g>
   <g id="line2d_50">
    <path d="M 92.290909 464.941979 
L 104.226738 468.563713 
L 116.162567 460.855381 
L 128.098396 466.160865 
L 140.034225 465.174947 
L 151.970053 458.414512 
L 163.905882 465.111539 
L 175.841711 463.852789 
L 187.77754 452.778149 
L 199.713369 466.584097 
L 211.649198 482.103978 
L 223.585027 488.140945 
L 235.520856 499.458176 
L 247.456684 523.373236 
L 259.392513 550.860521 
L 271.328342 550.767148 
L 283.264171 546.283542 
L 295.2 542.056182 
L 307.135829 542.780366 
L 319.071658 542.952564 
L 331.007487 541.461088 
L 342.943316 535.108629 
L 354.879144 526.276869 
L 366.814973 514.562965 
L 378.750802 509.614536 
L 390.686631 517.970521 
L 402.62246 513.608343 
L 414.558289 514.810974 
L 426.494118 522.9203 
L 438.429947 521.693099 
L 450.365775 519.731533 
L 462.301604 512.268663 
L 474.237433 504.319736 
L 486.173262 504.377799 
L 498.109091 508.792077 
" clip-path="url(#p29d51ba107)" style="fill: none; stroke: #17becf; stroke-width: 1.5; stroke-linecap: square"/>
   </g>
   <g id="line2d_51"/>
   <g id="line2d_52"/>
   <g id="patch_10">
    <path d="M 72 576.72 
L 72 429.967059 
" style="fill: none; stroke: #000000; stroke-width: 0.8; stroke-linejoin: miter; stroke-linecap: square"/>
   </g>
   <g id="patch_11">
    <path d="M 72 576.72 
L 518.4 576.72 
" style="fill: none; stroke: #000000; stroke-width: 0.8; stroke-linejoin: miter; stroke-linecap: square"/>
   </g>
  </g>
 </g>
 <defs>
  <clipPath id="p94d754b018">
   <rect x="72" y="77.76" width="446.4" height="146.752941"/>
  </clipPath>
  <clipPath id="p7a7a2848d9">
   <rect x="72" y="253.863529" width="446.4" height="146.752941"/>
  </clipPath>
  <clipPath id="p29d51ba107">
   <rect x="72" y="429.967059" width="446.4" height="146.752941"/>
  </clipPath>
 </defs>
</svg>
