<?xml version="1.0" encoding="utf-8" standalone="no"?>
<!DOCTYPE svg PUBLIC "-//W3C//DTD SVG 1.1//EN"
  "http://www.w3.org/Graphics/SVG/1.1/DTD/svg11.dtd">
<svg xmlns:xlink="http://www.w3.org/1999/xlink" width="576pt" height="648pt" viewBox="0 0 576 648" xmlns="http://www.w3.org/2000/svg" version="1.1">
 <metadata>
  <rdf:RDF xmlns:dc="http://purl.org/dc/elements/1.1/" xmlns:cc="http://creativecommons.org/ns#" xmlns:rdf="http://www.w3.org/1999/02/22-rdf-syntax-ns#">
   <cc:Work>
    <dc:type rdf:resource="http://purl.org/dc/dcmitype/StillImage"/>
    <dc:date>2025-01-14T09:11:24.995384</dc:date>
    <dc:format>image/svg+xml</dc:format>
    <dc:creator>
     <cc:Agent>
      <dc:title>Matplotlib v3.7.2, https://matplotlib.org/</dc:title>
     </cc:Agent>
    </dc:creator>
   </cc:Work>
  </rdf:RDF>
 </metadata>
 <defs>
  <style type="text/css">*{stroke-linejoin: round; stroke-linecap: butt}</style>
 </defs>
 <g id="figure_1">
  <g id="patch_1">
   <path d="M 0 648 
L 576 648 
L 576 0 
L 0 0 
z
" style="fill: #ffffff"/>
  </g>
  <g id="axes_1">
   <g id="patch_2">
    <path d="M 72 224.512941 
L 518.4 224.512941 
L 518.4 77.76 
L 72 77.76 
z
" style="fill: #ffffff"/>
   </g>
   <g id="PolyCollection_1">
    <defs>
     <path id="mdeb7766a44" d="M 92.290909 -443.728208 
L 92.290909 -432.636501 
L 104.226738 -443.457017 
L 116.162567 -450.849774 
L 128.098396 -455.957093 
L 140.034225 -465.53312 
L 151.970053 -469.681955 
L 163.905882 -468.240612 
L 175.841711 -474.720871 
L 187.77754 -487.83979 
L 199.713369 -496.276433 
L 211.649198 -501.474891 
L 223.585027 -499.960759 
L 235.520856 -493.186473 
L 247.456684 -506.343164 
L 259.392513 -523.188404 
L 271.328342 -529.072559 
L 283.264171 -534.582398 
L 295.2 -532.402898 
L 307.135829 -535.386347 
L 319.071658 -535.3208 
L 331.007487 -533.758532 
L 342.943316 -536.699505 
L 354.879144 -537.634727 
L 366.814973 -534.39497 
L 378.750802 -530.261378 
L 390.686631 -520.80705 
L 402.62246 -514.371666 
L 414.558289 -506.852347 
L 426.494118 -492.981549 
L 438.429947 -478.791645 
L 450.365775 -462.561758 
L 462.301604 -451.755089 
L 474.237433 -440.332755 
L 486.173262 -434.234102 
L 498.109091 -430.157647 
L 498.109091 -454.3153 
L 498.109091 -454.3153 
L 486.173262 -458.009195 
L 474.237433 -465.880239 
L 462.301604 -476.65844 
L 450.365775 -487.476465 
L 438.429947 -502.81517 
L 426.494118 -516.872629 
L 414.558289 -530.544931 
L 402.62246 -537.078669 
L 390.686631 -542.846732 
L 378.750802 -550.563162 
L 366.814973 -555.569251 
L 354.879144 -560.070308 
L 342.943316 -559.026935 
L 331.007487 -553.938497 
L 319.071658 -557.900594 
L 307.135829 -555.533668 
L 295.2 -553.049629 
L 283.264171 -553.859242 
L 271.328342 -550.812778 
L 259.392513 -546.239169 
L 247.456684 -530.38019 
L 235.520856 -514.632634 
L 223.585027 -522.83501 
L 211.649198 -523.404926 
L 199.713369 -518.392514 
L 187.77754 -510.785673 
L 175.841711 -497.010739 
L 163.905882 -490.368384 
L 151.970053 -490.435484 
L 140.034225 -486.660812 
L 128.098396 -473.694952 
L 116.162567 -462.123087 
L 104.226738 -451.057411 
L 92.290909 -443.728208 
z
" style="stroke: #7f7f7f; stroke-opacity: 0.2"/>
    </defs>
    <g clip-path="url(#pcf07e918cf)">
     <use xlink:href="#mdeb7766a44" x="0" y="648" style="fill: #7f7f7f; fill-opacity: 0.2; stroke: #7f7f7f; stroke-opacity: 0.2"/>
    </g>
   </g>
   <g id="PolyCollection_2">
    <defs>
     <path id="mb8f02a040b" d="M 92.290909 -445.264597 
L 92.290909 -433.011788 
L 104.226738 -444.522962 
L 116.162567 -448.03523 
L 128.098396 -453.197963 
L 140.034225 -465.928505 
L 151.970053 -473.572995 
L 163.905882 -473.719613 
L 175.841711 -476.482822 
L 187.77754 -485.750492 
L 199.713369 -493.969744 
L 211.649198 -503.825976 
L 223.585027 -498.395881 
L 235.520856 -491.579773 
L 247.456684 -510.280663 
L 259.392513 -524.790871 
L 271.328342 -529.507154 
L 283.264171 -532.415043 
L 295.2 -534.657942 
L 307.135829 -541.312683 
L 319.071658 -541.168385 
L 331.007487 -535.278753 
L 342.943316 -538.603445 
L 354.879144 -541.417546 
L 366.814973 -537.382997 
L 378.750802 -530.635386 
L 390.686631 -532.573791 
L 402.62246 -535.389824 
L 414.558289 -527.90901 
L 426.494118 -515.719689 
L 438.429947 -510.848409 
L 450.365775 -498.348346 
L 462.301604 -479.540628 
L 474.237433 -467.689904 
L 486.173262 -456.62406 
L 498.109091 -448.505709 
L 498.109091 -475.310855 
L 498.109091 -475.310855 
L 486.173262 -482.455219 
L 474.237433 -492.419021 
L 462.301604 -506.354563 
L 450.365775 -524.474892 
L 438.429947 -535.306366 
L 426.494118 -539.758612 
L 414.558289 -550.642749 
L 402.62246 -556.957452 
L 390.686631 -555.083769 
L 378.750802 -554.800542 
L 366.814973 -560.484 
L 354.879144 -562.771862 
L 342.943316 -560.059216 
L 331.007487 -556.490022 
L 319.071658 -562.223949 
L 307.135829 -563.569412 
L 295.2 -558.55119 
L 283.264171 -554.827962 
L 271.328342 -550.867035 
L 259.392513 -547.464515 
L 247.456684 -535.867393 
L 235.520856 -515.828869 
L 223.585027 -523.357174 
L 211.649198 -527.699955 
L 199.713369 -515.879997 
L 187.77754 -505.871157 
L 175.841711 -496.91288 
L 163.905882 -495.176572 
L 151.970053 -494.435779 
L 140.034225 -488.206234 
L 128.098396 -471.880874 
L 116.162567 -461.432559 
L 104.226738 -452.150512 
L 92.290909 -445.264597 
z
" style="stroke: #17becf; stroke-opacity: 0.2"/>
    </defs>
    <g clip-path="url(#pcf07e918cf)">
     <use xlink:href="#mb8f02a040b" x="0" y="648" style="fill: #17becf; fill-opacity: 0.2; stroke: #17becf; stroke-opacity: 0.2"/>
    </g>
   </g>
   <g id="matplotlib.axis_1">
    <g id="xtick_1">
     <g id="line2d_1">
      <defs>
       <path id="mb4747779e5" d="M 0 0 
L 0 3.5 
" style="stroke: #000000; stroke-width: 0.8"/>
      </defs>
      <g>
       <use xlink:href="#mb4747779e5" x="80.35508" y="224.512941" style="stroke: #000000; stroke-width: 0.8"/>
      </g>
     </g>
     <g id="text_1">
      <!-- −2 -->
      <g transform="translate(72.983986 239.111379) scale(0.1 -0.1)">
       <defs>
        <path id="DejaVuSans-2212" d="M 678 2272 
L 4684 2272 
L 4684 1741 
L 678 1741 
L 678 2272 
z
" transform="scale(0.015625)"/>
        <path id="DejaVuSans-32" d="M 1228 531 
L 3431 531 
L 3431 0 
L 469 0 
L 469 531 
Q 828 903 1448 1529 
Q 2069 2156 2228 2338 
Q 2531 2678 2651 2914 
Q 2772 3150 2772 3378 
Q 2772 3750 2511 3984 
Q 2250 4219 1831 4219 
Q 1534 4219 1204 4116 
Q 875 4013 500 3803 
L 500 4441 
Q 881 4594 1212 4672 
Q 1544 4750 1819 4750 
Q 2544 4750 2975 4387 
Q 3406 4025 3406 3419 
Q 3406 3131 3298 2873 
Q 3191 2616 2906 2266 
Q 2828 2175 2409 1742 
Q 1991 1309 1228 531 
z
" transform="scale(0.015625)"/>
       </defs>
       <use xlink:href="#DejaVuSans-2212"/>
       <use xlink:href="#DejaVuSans-32" x="83.789062"/>
      </g>
     </g>
    </g>
    <g id="xtick_2">
     <g id="line2d_2">
      <g>
       <use xlink:href="#mb4747779e5" x="140.034225" y="224.512941" style="stroke: #000000; stroke-width: 0.8"/>
      </g>
     </g>
     <g id="text_2">
      <!-- −1 -->
      <g transform="translate(132.663131 239.111379) scale(0.1 -0.1)">
       <defs>
        <path id="DejaVuSans-31" d="M 794 531 
L 1825 531 
L 1825 4091 
L 703 3866 
L 703 4441 
L 1819 4666 
L 2450 4666 
L 2450 531 
L 3481 531 
L 3481 0 
L 794 0 
L 794 531 
z
" transform="scale(0.015625)"/>
       </defs>
       <use xlink:href="#DejaVuSans-2212"/>
       <use xlink:href="#DejaVuSans-31" x="83.789062"/>
      </g>
     </g>
    </g>
    <g id="xtick_3">
     <g id="line2d_3">
      <g>
       <use xlink:href="#mb4747779e5" x="199.713369" y="224.512941" style="stroke: #000000; stroke-width: 0.8"/>
      </g>
     </g>
     <g id="text_3">
      <!-- 0 -->
      <g transform="translate(196.532119 239.111379) scale(0.1 -0.1)">
       <defs>
        <path id="DejaVuSans-30" d="M 2034 4250 
Q 1547 4250 1301 3770 
Q 1056 3291 1056 2328 
Q 1056 1369 1301 889 
Q 1547 409 2034 409 
Q 2525 409 2770 889 
Q 3016 1369 3016 2328 
Q 3016 3291 2770 3770 
Q 2525 4250 2034 4250 
z
M 2034 4750 
Q 2819 4750 3233 4129 
Q 3647 3509 3647 2328 
Q 3647 1150 3233 529 
Q 2819 -91 2034 -91 
Q 1250 -91 836 529 
Q 422 1150 422 2328 
Q 422 3509 836 4129 
Q 1250 4750 2034 4750 
z
" transform="scale(0.015625)"/>
       </defs>
       <use xlink:href="#DejaVuSans-30"/>
      </g>
     </g>
    </g>
    <g id="xtick_4">
     <g id="line2d_4">
      <g>
       <use xlink:href="#mb4747779e5" x="259.392513" y="224.512941" style="stroke: #000000; stroke-width: 0.8"/>
      </g>
     </g>
     <g id="text_4">
      <!-- 1 -->
      <g transform="translate(256.211263 239.111379) scale(0.1 -0.1)">
       <use xlink:href="#DejaVuSans-31"/>
      </g>
     </g>
    </g>
    <g id="xtick_5">
     <g id="line2d_5">
      <g>
       <use xlink:href="#mb4747779e5" x="319.071658" y="224.512941" style="stroke: #000000; stroke-width: 0.8"/>
      </g>
     </g>
     <g id="text_5">
      <!-- 2 -->
      <g transform="translate(315.890408 239.111379) scale(0.1 -0.1)">
       <use xlink:href="#DejaVuSans-32"/>
      </g>
     </g>
    </g>
    <g id="xtick_6">
     <g id="line2d_6">
      <g>
       <use xlink:href="#mb4747779e5" x="378.750802" y="224.512941" style="stroke: #000000; stroke-width: 0.8"/>
      </g>
     </g>
     <g id="text_6">
      <!-- 3 -->
      <g transform="translate(375.569552 239.111379) scale(0.1 -0.1)">
       <defs>
        <path id="DejaVuSans-33" d="M 2597 2516 
Q 3050 2419 3304 2112 
Q 3559 1806 3559 1356 
Q 3559 666 3084 287 
Q 2609 -91 1734 -91 
Q 1441 -91 1130 -33 
Q 819 25 488 141 
L 488 750 
Q 750 597 1062 519 
Q 1375 441 1716 441 
Q 2309 441 2620 675 
Q 2931 909 2931 1356 
Q 2931 1769 2642 2001 
Q 2353 2234 1838 2234 
L 1294 2234 
L 1294 2753 
L 1863 2753 
Q 2328 2753 2575 2939 
Q 2822 3125 2822 3475 
Q 2822 3834 2567 4026 
Q 2313 4219 1838 4219 
Q 1578 4219 1281 4162 
Q 984 4106 628 3988 
L 628 4550 
Q 988 4650 1302 4700 
Q 1616 4750 1894 4750 
Q 2613 4750 3031 4423 
Q 3450 4097 3450 3541 
Q 3450 3153 3228 2886 
Q 3006 2619 2597 2516 
z
" transform="scale(0.015625)"/>
       </defs>
       <use xlink:href="#DejaVuSans-33"/>
      </g>
     </g>
    </g>
    <g id="xtick_7">
     <g id="line2d_7">
      <g>
       <use xlink:href="#mb4747779e5" x="438.429947" y="224.512941" style="stroke: #000000; stroke-width: 0.8"/>
      </g>
     </g>
     <g id="text_7">
      <!-- 4 -->
      <g transform="translate(435.248697 239.111379) scale(0.1 -0.1)">
       <defs>
        <path id="DejaVuSans-34" d="M 2419 4116 
L 825 1625 
L 2419 1625 
L 2419 4116 
z
M 2253 4666 
L 3047 4666 
L 3047 1625 
L 3713 1625 
L 3713 1100 
L 3047 1100 
L 3047 0 
L 2419 0 
L 2419 1100 
L 313 1100 
L 313 1709 
L 2253 4666 
z
" transform="scale(0.015625)"/>
       </defs>
       <use xlink:href="#DejaVuSans-34"/>
      </g>
     </g>
    </g>
    <g id="xtick_8">
     <g id="line2d_8">
      <g>
       <use xlink:href="#mb4747779e5" x="498.109091" y="224.512941" style="stroke: #000000; stroke-width: 0.8"/>
      </g>
     </g>
     <g id="text_8">
      <!-- 5 -->
      <g transform="translate(494.927841 239.111379) scale(0.1 -0.1)">
       <defs>
        <path id="DejaVuSans-35" d="M 691 4666 
L 3169 4666 
L 3169 4134 
L 1269 4134 
L 1269 2991 
Q 1406 3038 1543 3061 
Q 1681 3084 1819 3084 
Q 2600 3084 3056 2656 
Q 3513 2228 3513 1497 
Q 3513 744 3044 326 
Q 2575 -91 1722 -91 
Q 1428 -91 1123 -41 
Q 819 9 494 109 
L 494 744 
Q 775 591 1075 516 
Q 1375 441 1709 441 
Q 2250 441 2565 725 
Q 2881 1009 2881 1497 
Q 2881 1984 2565 2268 
Q 2250 2553 1709 2553 
Q 1456 2553 1204 2497 
Q 953 2441 691 2322 
L 691 4666 
z
" transform="scale(0.015625)"/>
       </defs>
       <use xlink:href="#DejaVuSans-35"/>
      </g>
     </g>
    </g>
   </g>
   <g id="matplotlib.axis_2">
    <g id="ytick_1">
     <g id="line2d_9">
      <defs>
       <path id="m2419374846" d="M 0 0 
L -3.5 0 
" style="stroke: #000000; stroke-width: 0.8"/>
      </defs>
      <g>
       <use xlink:href="#m2419374846" x="72" y="200.68581" style="stroke: #000000; stroke-width: 0.8"/>
      </g>
     </g>
     <g id="text_9">
      <!-- 0.0 -->
      <g transform="translate(49.096875 204.485029) scale(0.1 -0.1)">
       <defs>
        <path id="DejaVuSans-2e" d="M 684 794 
L 1344 794 
L 1344 0 
L 684 0 
L 684 794 
z
" transform="scale(0.015625)"/>
       </defs>
       <use xlink:href="#DejaVuSans-30"/>
       <use xlink:href="#DejaVuSans-2e" x="63.623047"/>
       <use xlink:href="#DejaVuSans-30" x="95.410156"/>
      </g>
     </g>
    </g>
    <g id="ytick_2">
     <g id="line2d_10">
      <g>
       <use xlink:href="#m2419374846" x="72" y="176.763528" style="stroke: #000000; stroke-width: 0.8"/>
      </g>
     </g>
     <g id="text_10">
      <!-- 0.1 -->
      <g transform="translate(49.096875 180.562747) scale(0.1 -0.1)">
       <use xlink:href="#DejaVuSans-30"/>
       <use xlink:href="#DejaVuSans-2e" x="63.623047"/>
       <use xlink:href="#DejaVuSans-31" x="95.410156"/>
      </g>
     </g>
    </g>
    <g id="ytick_3">
     <g id="line2d_11">
      <g>
       <use xlink:href="#m2419374846" x="72" y="152.841246" style="stroke: #000000; stroke-width: 0.8"/>
      </g>
     </g>
     <g id="text_11">
      <!-- 0.2 -->
      <g transform="translate(49.096875 156.640465) scale(0.1 -0.1)">
       <use xlink:href="#DejaVuSans-30"/>
       <use xlink:href="#DejaVuSans-2e" x="63.623047"/>
       <use xlink:href="#DejaVuSans-32" x="95.410156"/>
      </g>
     </g>
    </g>
    <g id="ytick_4">
     <g id="line2d_12">
      <g>
       <use xlink:href="#m2419374846" x="72" y="128.918964" style="stroke: #000000; stroke-width: 0.8"/>
      </g>
     </g>
     <g id="text_12">
      <!-- 0.3 -->
      <g transform="translate(49.096875 132.718183) scale(0.1 -0.1)">
       <use xlink:href="#DejaVuSans-30"/>
       <use xlink:href="#DejaVuSans-2e" x="63.623047"/>
       <use xlink:href="#DejaVuSans-33" x="95.410156"/>
      </g>
     </g>
    </g>
    <g id="ytick_5">
     <g id="line2d_13">
      <g>
       <use xlink:href="#m2419374846" x="72" y="104.996682" style="stroke: #000000; stroke-width: 0.8"/>
      </g>
     </g>
     <g id="text_13">
      <!-- 0.4 -->
      <g transform="translate(49.096875 108.795901) scale(0.1 -0.1)">
       <use xlink:href="#DejaVuSans-30"/>
       <use xlink:href="#DejaVuSans-2e" x="63.623047"/>
       <use xlink:href="#DejaVuSans-34" x="95.410156"/>
      </g>
     </g>
    </g>
    <g id="ytick_6">
     <g id="line2d_14">
      <g>
       <use xlink:href="#m2419374846" x="72" y="81.0744" style="stroke: #000000; stroke-width: 0.8"/>
      </g>
     </g>
     <g id="text_14">
      <!-- 0.5 -->
      <g transform="translate(49.096875 84.873619) scale(0.1 -0.1)">
       <use xlink:href="#DejaVuSans-30"/>
       <use xlink:href="#DejaVuSans-2e" x="63.623047"/>
       <use xlink:href="#DejaVuSans-35" x="95.410156"/>
      </g>
     </g>
    </g>
    <g id="text_15">
     <!-- Lick Rate -->
     <g transform="translate(43.017187 174.007564) rotate(-90) scale(0.1 -0.1)">
      <defs>
       <path id="DejaVuSans-4c" d="M 628 4666 
L 1259 4666 
L 1259 531 
L 3531 531 
L 3531 0 
L 628 0 
L 628 4666 
z
" transform="scale(0.015625)"/>
       <path id="DejaVuSans-69" d="M 603 3500 
L 1178 3500 
L 1178 0 
L 603 0 
L 603 3500 
z
M 603 4863 
L 1178 4863 
L 1178 4134 
L 603 4134 
L 603 4863 
z
" transform="scale(0.015625)"/>
       <path id="DejaVuSans-63" d="M 3122 3366 
L 3122 2828 
Q 2878 2963 2633 3030 
Q 2388 3097 2138 3097 
Q 1578 3097 1268 2742 
Q 959 2388 959 1747 
Q 959 1106 1268 751 
Q 1578 397 2138 397 
Q 2388 397 2633 464 
Q 2878 531 3122 666 
L 3122 134 
Q 2881 22 2623 -34 
Q 2366 -91 2075 -91 
Q 1284 -91 818 406 
Q 353 903 353 1747 
Q 353 2603 823 3093 
Q 1294 3584 2113 3584 
Q 2378 3584 2631 3529 
Q 2884 3475 3122 3366 
z
" transform="scale(0.015625)"/>
       <path id="DejaVuSans-6b" d="M 581 4863 
L 1159 4863 
L 1159 1991 
L 2875 3500 
L 3609 3500 
L 1753 1863 
L 3688 0 
L 2938 0 
L 1159 1709 
L 1159 0 
L 581 0 
L 581 4863 
z
" transform="scale(0.015625)"/>
       <path id="DejaVuSans-20" transform="scale(0.015625)"/>
       <path id="DejaVuSans-52" d="M 2841 2188 
Q 3044 2119 3236 1894 
Q 3428 1669 3622 1275 
L 4263 0 
L 3584 0 
L 2988 1197 
Q 2756 1666 2539 1819 
Q 2322 1972 1947 1972 
L 1259 1972 
L 1259 0 
L 628 0 
L 628 4666 
L 2053 4666 
Q 2853 4666 3247 4331 
Q 3641 3997 3641 3322 
Q 3641 2881 3436 2590 
Q 3231 2300 2841 2188 
z
M 1259 4147 
L 1259 2491 
L 2053 2491 
Q 2509 2491 2742 2702 
Q 2975 2913 2975 3322 
Q 2975 3731 2742 3939 
Q 2509 4147 2053 4147 
L 1259 4147 
z
" transform="scale(0.015625)"/>
       <path id="DejaVuSans-61" d="M 2194 1759 
Q 1497 1759 1228 1600 
Q 959 1441 959 1056 
Q 959 750 1161 570 
Q 1363 391 1709 391 
Q 2188 391 2477 730 
Q 2766 1069 2766 1631 
L 2766 1759 
L 2194 1759 
z
M 3341 1997 
L 3341 0 
L 2766 0 
L 2766 531 
Q 2569 213 2275 61 
Q 1981 -91 1556 -91 
Q 1019 -91 701 211 
Q 384 513 384 1019 
Q 384 1609 779 1909 
Q 1175 2209 1959 2209 
L 2766 2209 
L 2766 2266 
Q 2766 2663 2505 2880 
Q 2244 3097 1772 3097 
Q 1472 3097 1187 3025 
Q 903 2953 641 2809 
L 641 3341 
Q 956 3463 1253 3523 
Q 1550 3584 1831 3584 
Q 2591 3584 2966 3190 
Q 3341 2797 3341 1997 
z
" transform="scale(0.015625)"/>
       <path id="DejaVuSans-74" d="M 1172 4494 
L 1172 3500 
L 2356 3500 
L 2356 3053 
L 1172 3053 
L 1172 1153 
Q 1172 725 1289 603 
Q 1406 481 1766 481 
L 2356 481 
L 2356 0 
L 1766 0 
Q 1100 0 847 248 
Q 594 497 594 1153 
L 594 3053 
L 172 3053 
L 172 3500 
L 594 3500 
L 594 4494 
L 1172 4494 
z
" transform="scale(0.015625)"/>
       <path id="DejaVuSans-65" d="M 3597 1894 
L 3597 1613 
L 953 1613 
Q 991 1019 1311 708 
Q 1631 397 2203 397 
Q 2534 397 2845 478 
Q 3156 559 3463 722 
L 3463 178 
Q 3153 47 2828 -22 
Q 2503 -91 2169 -91 
Q 1331 -91 842 396 
Q 353 884 353 1716 
Q 353 2575 817 3079 
Q 1281 3584 2069 3584 
Q 2775 3584 3186 3129 
Q 3597 2675 3597 1894 
z
M 3022 2063 
Q 3016 2534 2758 2815 
Q 2500 3097 2075 3097 
Q 1594 3097 1305 2825 
Q 1016 2553 972 2059 
L 3022 2063 
z
" transform="scale(0.015625)"/>
      </defs>
      <use xlink:href="#DejaVuSans-4c"/>
      <use xlink:href="#DejaVuSans-69" x="55.712891"/>
      <use xlink:href="#DejaVuSans-63" x="83.496094"/>
      <use xlink:href="#DejaVuSans-6b" x="138.476562"/>
      <use xlink:href="#DejaVuSans-20" x="196.386719"/>
      <use xlink:href="#DejaVuSans-52" x="228.173828"/>
      <use xlink:href="#DejaVuSans-61" x="295.40625"/>
      <use xlink:href="#DejaVuSans-74" x="356.685547"/>
      <use xlink:href="#DejaVuSans-65" x="395.894531"/>
     </g>
    </g>
   </g>
   <g id="line2d_15">
    <path d="M 92.290909 209.738702 
L 104.226738 200.775289 
L 116.162567 191.543439 
L 128.098396 183.281264 
L 140.034225 171.867283 
L 151.970053 168.375489 
L 163.905882 168.889605 
L 175.841711 161.958589 
L 187.77754 149.270997 
L 199.713369 140.159786 
L 211.649198 135.352714 
L 223.585027 136.653572 
L 235.520856 144.176275 
L 247.456684 129.332373 
L 259.392513 112.593043 
L 271.328342 108.083684 
L 283.264171 103.892855 
L 295.2 105.334497 
L 307.135829 102.75675 
L 319.071658 101.535036 
L 331.007487 103.705673 
L 342.943316 100.271234 
L 354.879144 99.22028 
L 366.814973 103.262504 
L 378.750802 107.46511 
L 390.686631 116.925234 
L 402.62246 122.57864 
L 414.558289 129.986466 
L 426.494118 143.315325 
L 438.429947 156.94106 
L 450.365775 172.895398 
L 462.301604 184.767917 
L 474.237433 194.695247 
L 486.173262 200.966945 
L 498.109091 205.786568 
" clip-path="url(#pcf07e918cf)" style="fill: none; stroke: #7f7f7f; stroke-width: 1.5; stroke-linecap: square"/>
   </g>
   <g id="line2d_16">
    <path d="M 92.290909 208.937037 
L 104.226738 199.737322 
L 116.162567 193.383071 
L 128.098396 185.587799 
L 140.034225 171.374604 
L 151.970053 164.355482 
L 163.905882 163.530288 
L 175.841711 161.647665 
L 187.77754 152.828315 
L 199.713369 142.98891 
L 211.649198 131.872097 
L 223.585027 136.857561 
L 235.520856 144.548505 
L 247.456684 125.112306 
L 259.392513 111.747611 
L 271.328342 108.012342 
L 283.264171 104.133559 
L 295.2 101.701114 
L 307.135829 95.636627 
L 319.071658 96.515638 
L 331.007487 102.188907 
L 342.943316 99.133498 
L 354.879144 95.993785 
L 366.814973 99.316195 
L 378.750802 105.383164 
L 390.686631 104.60207 
L 402.62246 101.800217 
L 414.558289 108.955323 
L 426.494118 119.873552 
L 438.429947 124.79211 
L 450.365775 136.549273 
L 462.301604 155.218757 
L 474.237433 168.302954 
L 486.173262 178.002735 
L 498.109091 186.174675 
" clip-path="url(#pcf07e918cf)" style="fill: none; stroke: #17becf; stroke-width: 1.5; stroke-linecap: square"/>
   </g>
   <g id="line2d_17"/>
   <g id="line2d_18"/>
   <g id="patch_3">
    <path d="M 72 224.512941 
L 72 77.76 
" style="fill: none; stroke: #000000; stroke-width: 0.8; stroke-linejoin: miter; stroke-linecap: square"/>
   </g>
   <g id="patch_4">
    <path d="M 72 224.512941 
L 518.4 224.512941 
" style="fill: none; stroke: #000000; stroke-width: 0.8; stroke-linejoin: miter; stroke-linecap: square"/>
   </g>
   <g id="text_16">
    <!-- X8 -->
    <g transform="translate(285.290625 71.76) scale(0.15 -0.15)">
     <defs>
      <path id="DejaVuSans-58" d="M 403 4666 
L 1081 4666 
L 2241 2931 
L 3406 4666 
L 4084 4666 
L 2584 2425 
L 4184 0 
L 3506 0 
L 2194 1984 
L 872 0 
L 191 0 
L 1856 2491 
L 403 4666 
z
" transform="scale(0.015625)"/>
      <path id="DejaVuSans-38" d="M 2034 2216 
Q 1584 2216 1326 1975 
Q 1069 1734 1069 1313 
Q 1069 891 1326 650 
Q 1584 409 2034 409 
Q 2484 409 2743 651 
Q 3003 894 3003 1313 
Q 3003 1734 2745 1975 
Q 2488 2216 2034 2216 
z
M 1403 2484 
Q 997 2584 770 2862 
Q 544 3141 544 3541 
Q 544 4100 942 4425 
Q 1341 4750 2034 4750 
Q 2731 4750 3128 4425 
Q 3525 4100 3525 3541 
Q 3525 3141 3298 2862 
Q 3072 2584 2669 2484 
Q 3125 2378 3379 2068 
Q 3634 1759 3634 1313 
Q 3634 634 3220 271 
Q 2806 -91 2034 -91 
Q 1263 -91 848 271 
Q 434 634 434 1313 
Q 434 1759 690 2068 
Q 947 2378 1403 2484 
z
M 1172 3481 
Q 1172 3119 1398 2916 
Q 1625 2713 2034 2713 
Q 2441 2713 2670 2916 
Q 2900 3119 2900 3481 
Q 2900 3844 2670 4047 
Q 2441 4250 2034 4250 
Q 1625 4250 1398 4047 
Q 1172 3844 1172 3481 
z
" transform="scale(0.015625)"/>
     </defs>
     <use xlink:href="#DejaVuSans-58"/>
     <use xlink:href="#DejaVuSans-38" x="68.505859"/>
    </g>
   </g>
  </g>
  <g id="axes_2">
   <g id="patch_5">
    <path d="M 72 400.616471 
L 518.4 400.616471 
L 518.4 253.863529 
L 72 253.863529 
z
" style="fill: #ffffff"/>
   </g>
   <g id="PolyCollection_3">
    <defs>
     <path id="m03d5718780" d="M 92.290909 -386.202467 
L 92.290909 -380.666531 
L 104.226738 -375.980221 
L 116.162567 -367.651825 
L 128.098396 -357.792393 
L 140.034225 -347.590581 
L 151.970053 -338.547654 
L 163.905882 -332.390343 
L 175.841711 -327.749083 
L 187.77754 -324.180721 
L 199.713369 -321.39377 
L 211.649198 -315.923854 
L 223.585027 -307.888307 
L 235.520856 -300.118313 
L 247.456684 -293.646618 
L 259.392513 -287.359267 
L 271.328342 -274.759378 
L 283.264171 -263.089983 
L 295.2 -257.714806 
L 307.135829 -255.355331 
L 319.071658 -254.054118 
L 331.007487 -254.524417 
L 342.943316 -255.185289 
L 354.879144 -256.446787 
L 366.814973 -258.546504 
L 378.750802 -260.057883 
L 390.686631 -261.706107 
L 402.62246 -264.386668 
L 414.558289 -266.601864 
L 426.494118 -270.336149 
L 438.429947 -274.855202 
L 450.365775 -281.337467 
L 462.301604 -293.810997 
L 474.237433 -307.115575 
L 486.173262 -317.504914 
L 498.109091 -325.147231 
L 498.109091 -345.191029 
L 498.109091 -345.191029 
L 486.173262 -336.68326 
L 474.237433 -325.414171 
L 462.301604 -311.639997 
L 450.365775 -297.649832 
L 438.429947 -288.336727 
L 426.494118 -283.360915 
L 414.558289 -280.054418 
L 402.62246 -276.853372 
L 390.686631 -273.227623 
L 378.750802 -270.640042 
L 366.814973 -269.33283 
L 354.879144 -267.613766 
L 342.943316 -266.704188 
L 331.007487 -265.444539 
L 319.071658 -265.714622 
L 307.135829 -266.934495 
L 295.2 -269.41475 
L 283.264171 -276.219034 
L 271.328342 -288.618552 
L 259.392513 -300.785052 
L 247.456684 -308.660902 
L 235.520856 -313.794501 
L 223.585027 -321.914335 
L 211.649198 -329.78797 
L 199.713369 -334.030627 
L 187.77754 -336.944291 
L 175.841711 -341.243506 
L 163.905882 -346.177396 
L 151.970053 -352.406246 
L 140.034225 -359.434676 
L 128.098396 -366.701909 
L 116.162567 -373.13711 
L 104.226738 -378.157821 
L 92.290909 -386.202467 
z
" style="stroke: #7f7f7f; stroke-opacity: 0.2"/>
    </defs>
    <g clip-path="url(#pd5979c7dfa)">
     <use xlink:href="#m03d5718780" x="0" y="648" style="fill: #7f7f7f; fill-opacity: 0.2; stroke: #7f7f7f; stroke-opacity: 0.2"/>
    </g>
   </g>
   <g id="PolyCollection_4">
    <defs>
     <path id="m109180990f" d="M 92.290909 -387.465882 
L 92.290909 -381.104646 
L 104.226738 -375.156979 
L 116.162567 -366.769696 
L 128.098396 -355.711653 
L 140.034225 -345.292923 
L 151.970053 -336.245464 
L 163.905882 -327.979981 
L 175.841711 -322.140613 
L 187.77754 -317.236831 
L 199.713369 -314.111912 
L 211.649198 -308.586722 
L 223.585027 -302.910588 
L 235.520856 -296.958529 
L 247.456684 -291.803779 
L 259.392513 -283.710198 
L 271.328342 -269.779643 
L 283.264171 -258.36298 
L 295.2 -256.305022 
L 307.135829 -257.380484 
L 319.071658 -256.678624 
L 331.007487 -255.910711 
L 342.943316 -255.521071 
L 354.879144 -255.764431 
L 366.814973 -256.274527 
L 378.750802 -257.510218 
L 390.686631 -258.55957 
L 402.62246 -259.730966 
L 414.558289 -261.117523 
L 426.494118 -263.498802 
L 438.429947 -266.354824 
L 450.365775 -270.34632 
L 462.301604 -275.742674 
L 474.237433 -281.309447 
L 486.173262 -287.768268 
L 498.109091 -297.974567 
L 498.109091 -316.691453 
L 498.109091 -316.691453 
L 486.173262 -304.384693 
L 474.237433 -296.467922 
L 462.301604 -289.562356 
L 450.365775 -283.010443 
L 438.429947 -278.641725 
L 426.494118 -274.339035 
L 414.558289 -272.136363 
L 402.62246 -270.367164 
L 390.686631 -269.36454 
L 378.750802 -267.737812 
L 366.814973 -267.297944 
L 354.879144 -266.312922 
L 342.943316 -265.820055 
L 331.007487 -265.843679 
L 319.071658 -266.13342 
L 307.135829 -266.489162 
L 295.2 -266.402532 
L 283.264171 -269.033555 
L 271.328342 -281.571968 
L 259.392513 -297.065337 
L 247.456684 -305.367642 
L 235.520856 -309.658877 
L 223.585027 -314.925876 
L 211.649198 -321.350014 
L 199.713369 -327.04737 
L 187.77754 -329.771397 
L 175.841711 -335.342417 
L 163.905882 -341.784601 
L 151.970053 -349.470989 
L 140.034225 -357.596452 
L 128.098396 -365.790959 
L 116.162567 -373.129576 
L 104.226738 -377.485902 
L 92.290909 -387.465882 
z
" style="stroke: #17becf; stroke-opacity: 0.2"/>
    </defs>
    <g clip-path="url(#pd5979c7dfa)">
     <use xlink:href="#m109180990f" x="0" y="648" style="fill: #17becf; fill-opacity: 0.2; stroke: #17becf; stroke-opacity: 0.2"/>
    </g>
   </g>
   <g id="matplotlib.axis_3">
    <g id="xtick_9">
     <g id="line2d_19">
      <g>
       <use xlink:href="#mb4747779e5" x="80.35508" y="400.616471" style="stroke: #000000; stroke-width: 0.8"/>
      </g>
     </g>
     <g id="text_17">
      <!-- −2 -->
      <g transform="translate(72.983986 415.214908) scale(0.1 -0.1)">
       <use xlink:href="#DejaVuSans-2212"/>
       <use xlink:href="#DejaVuSans-32" x="83.789062"/>
      </g>
     </g>
    </g>
    <g id="xtick_10">
     <g id="line2d_20">
      <g>
       <use xlink:href="#mb4747779e5" x="140.034225" y="400.616471" style="stroke: #000000; stroke-width: 0.8"/>
      </g>
     </g>
     <g id="text_18">
      <!-- −1 -->
      <g transform="translate(132.663131 415.214908) scale(0.1 -0.1)">
       <use xlink:href="#DejaVuSans-2212"/>
       <use xlink:href="#DejaVuSans-31" x="83.789062"/>
      </g>
     </g>
    </g>
    <g id="xtick_11">
     <g id="line2d_21">
      <g>
       <use xlink:href="#mb4747779e5" x="199.713369" y="400.616471" style="stroke: #000000; stroke-width: 0.8"/>
      </g>
     </g>
     <g id="text_19">
      <!-- 0 -->
      <g transform="translate(196.532119 415.214908) scale(0.1 -0.1)">
       <use xlink:href="#DejaVuSans-30"/>
      </g>
     </g>
    </g>
    <g id="xtick_12">
     <g id="line2d_22">
      <g>
       <use xlink:href="#mb4747779e5" x="259.392513" y="400.616471" style="stroke: #000000; stroke-width: 0.8"/>
      </g>
     </g>
     <g id="text_20">
      <!-- 1 -->
      <g transform="translate(256.211263 415.214908) scale(0.1 -0.1)">
       <use xlink:href="#DejaVuSans-31"/>
      </g>
     </g>
    </g>
    <g id="xtick_13">
     <g id="line2d_23">
      <g>
       <use xlink:href="#mb4747779e5" x="319.071658" y="400.616471" style="stroke: #000000; stroke-width: 0.8"/>
      </g>
     </g>
     <g id="text_21">
      <!-- 2 -->
      <g transform="translate(315.890408 415.214908) scale(0.1 -0.1)">
       <use xlink:href="#DejaVuSans-32"/>
      </g>
     </g>
    </g>
    <g id="xtick_14">
     <g id="line2d_24">
      <g>
       <use xlink:href="#mb4747779e5" x="378.750802" y="400.616471" style="stroke: #000000; stroke-width: 0.8"/>
      </g>
     </g>
     <g id="text_22">
      <!-- 3 -->
      <g transform="translate(375.569552 415.214908) scale(0.1 -0.1)">
       <use xlink:href="#DejaVuSans-33"/>
      </g>
     </g>
    </g>
    <g id="xtick_15">
     <g id="line2d_25">
      <g>
       <use xlink:href="#mb4747779e5" x="438.429947" y="400.616471" style="stroke: #000000; stroke-width: 0.8"/>
      </g>
     </g>
     <g id="text_23">
      <!-- 4 -->
      <g transform="translate(435.248697 415.214908) scale(0.1 -0.1)">
       <use xlink:href="#DejaVuSans-34"/>
      </g>
     </g>
    </g>
    <g id="xtick_16">
     <g id="line2d_26">
      <g>
       <use xlink:href="#mb4747779e5" x="498.109091" y="400.616471" style="stroke: #000000; stroke-width: 0.8"/>
      </g>
     </g>
     <g id="text_24">
      <!-- 5 -->
      <g transform="translate(494.927841 415.214908) scale(0.1 -0.1)">
       <use xlink:href="#DejaVuSans-35"/>
      </g>
     </g>
    </g>
   </g>
   <g id="matplotlib.axis_4">
    <g id="ytick_7">
     <g id="line2d_27">
      <g>
       <use xlink:href="#m2419374846" x="72" y="400.177372" style="stroke: #000000; stroke-width: 0.8"/>
      </g>
     </g>
     <g id="text_25">
      <!-- −0.8 -->
      <g transform="translate(40.717187 403.976591) scale(0.1 -0.1)">
       <use xlink:href="#DejaVuSans-2212"/>
       <use xlink:href="#DejaVuSans-30" x="83.789062"/>
       <use xlink:href="#DejaVuSans-2e" x="147.412109"/>
       <use xlink:href="#DejaVuSans-38" x="179.199219"/>
      </g>
     </g>
    </g>
    <g id="ytick_8">
     <g id="line2d_28">
      <g>
       <use xlink:href="#m2419374846" x="72" y="367.903324" style="stroke: #000000; stroke-width: 0.8"/>
      </g>
     </g>
     <g id="text_26">
      <!-- −0.6 -->
      <g transform="translate(40.717187 371.702543) scale(0.1 -0.1)">
       <defs>
        <path id="DejaVuSans-36" d="M 2113 2584 
Q 1688 2584 1439 2293 
Q 1191 2003 1191 1497 
Q 1191 994 1439 701 
Q 1688 409 2113 409 
Q 2538 409 2786 701 
Q 3034 994 3034 1497 
Q 3034 2003 2786 2293 
Q 2538 2584 2113 2584 
z
M 3366 4563 
L 3366 3988 
Q 3128 4100 2886 4159 
Q 2644 4219 2406 4219 
Q 1781 4219 1451 3797 
Q 1122 3375 1075 2522 
Q 1259 2794 1537 2939 
Q 1816 3084 2150 3084 
Q 2853 3084 3261 2657 
Q 3669 2231 3669 1497 
Q 3669 778 3244 343 
Q 2819 -91 2113 -91 
Q 1303 -91 875 529 
Q 447 1150 447 2328 
Q 447 3434 972 4092 
Q 1497 4750 2381 4750 
Q 2619 4750 2861 4703 
Q 3103 4656 3366 4563 
z
" transform="scale(0.015625)"/>
       </defs>
       <use xlink:href="#DejaVuSans-2212"/>
       <use xlink:href="#DejaVuSans-30" x="83.789062"/>
       <use xlink:href="#DejaVuSans-2e" x="147.412109"/>
       <use xlink:href="#DejaVuSans-36" x="179.199219"/>
      </g>
     </g>
    </g>
    <g id="ytick_9">
     <g id="line2d_29">
      <g>
       <use xlink:href="#m2419374846" x="72" y="335.629276" style="stroke: #000000; stroke-width: 0.8"/>
      </g>
     </g>
     <g id="text_27">
      <!-- −0.4 -->
      <g transform="translate(40.717187 339.428495) scale(0.1 -0.1)">
       <use xlink:href="#DejaVuSans-2212"/>
       <use xlink:href="#DejaVuSans-30" x="83.789062"/>
       <use xlink:href="#DejaVuSans-2e" x="147.412109"/>
       <use xlink:href="#DejaVuSans-34" x="179.199219"/>
      </g>
     </g>
    </g>
    <g id="ytick_10">
     <g id="line2d_30">
      <g>
       <use xlink:href="#m2419374846" x="72" y="303.355228" style="stroke: #000000; stroke-width: 0.8"/>
      </g>
     </g>
     <g id="text_28">
      <!-- −0.2 -->
      <g transform="translate(40.717187 307.154446) scale(0.1 -0.1)">
       <use xlink:href="#DejaVuSans-2212"/>
       <use xlink:href="#DejaVuSans-30" x="83.789062"/>
       <use xlink:href="#DejaVuSans-2e" x="147.412109"/>
       <use xlink:href="#DejaVuSans-32" x="179.199219"/>
      </g>
     </g>
    </g>
    <g id="ytick_11">
     <g id="line2d_31">
      <g>
       <use xlink:href="#m2419374846" x="72" y="271.081179" style="stroke: #000000; stroke-width: 0.8"/>
      </g>
     </g>
     <g id="text_29">
      <!-- 0.0 -->
      <g transform="translate(49.096875 274.880398) scale(0.1 -0.1)">
       <use xlink:href="#DejaVuSans-30"/>
       <use xlink:href="#DejaVuSans-2e" x="63.623047"/>
       <use xlink:href="#DejaVuSans-30" x="95.410156"/>
      </g>
     </g>
    </g>
    <g id="text_30">
     <!-- Velocity -->
     <g transform="translate(34.6375 346.855625) rotate(-90) scale(0.1 -0.1)">
      <defs>
       <path id="DejaVuSans-56" d="M 1831 0 
L 50 4666 
L 709 4666 
L 2188 738 
L 3669 4666 
L 4325 4666 
L 2547 0 
L 1831 0 
z
" transform="scale(0.015625)"/>
       <path id="DejaVuSans-6c" d="M 603 4863 
L 1178 4863 
L 1178 0 
L 603 0 
L 603 4863 
z
" transform="scale(0.015625)"/>
       <path id="DejaVuSans-6f" d="M 1959 3097 
Q 1497 3097 1228 2736 
Q 959 2375 959 1747 
Q 959 1119 1226 758 
Q 1494 397 1959 397 
Q 2419 397 2687 759 
Q 2956 1122 2956 1747 
Q 2956 2369 2687 2733 
Q 2419 3097 1959 3097 
z
M 1959 3584 
Q 2709 3584 3137 3096 
Q 3566 2609 3566 1747 
Q 3566 888 3137 398 
Q 2709 -91 1959 -91 
Q 1206 -91 779 398 
Q 353 888 353 1747 
Q 353 2609 779 3096 
Q 1206 3584 1959 3584 
z
" transform="scale(0.015625)"/>
       <path id="DejaVuSans-79" d="M 2059 -325 
Q 1816 -950 1584 -1140 
Q 1353 -1331 966 -1331 
L 506 -1331 
L 506 -850 
L 844 -850 
Q 1081 -850 1212 -737 
Q 1344 -625 1503 -206 
L 1606 56 
L 191 3500 
L 800 3500 
L 1894 763 
L 2988 3500 
L 3597 3500 
L 2059 -325 
z
" transform="scale(0.015625)"/>
      </defs>
      <use xlink:href="#DejaVuSans-56"/>
      <use xlink:href="#DejaVuSans-65" x="60.658203"/>
      <use xlink:href="#DejaVuSans-6c" x="122.181641"/>
      <use xlink:href="#DejaVuSans-6f" x="149.964844"/>
      <use xlink:href="#DejaVuSans-63" x="211.146484"/>
      <use xlink:href="#DejaVuSans-69" x="266.126953"/>
      <use xlink:href="#DejaVuSans-74" x="293.910156"/>
      <use xlink:href="#DejaVuSans-79" x="333.119141"/>
     </g>
    </g>
   </g>
   <g id="line2d_32">
    <path d="M 92.290909 264.732318 
L 104.226738 270.881588 
L 116.162567 277.629632 
L 128.098396 285.702736 
L 140.034225 294.585044 
L 151.970053 302.643814 
L 163.905882 308.82732 
L 175.841711 313.647133 
L 187.77754 317.8067 
L 199.713369 320.41747 
L 211.649198 325.197847 
L 223.585027 333.345642 
L 235.520856 341.142925 
L 247.456684 346.81329 
L 259.392513 353.944338 
L 271.328342 366.485785 
L 283.264171 378.65394 
L 295.2 384.720917 
L 307.135829 387.227246 
L 319.071658 388.364749 
L 331.007487 388.266141 
L 342.943316 387.418512 
L 354.879144 385.962891 
L 366.814973 384.326763 
L 378.750802 382.637373 
L 390.686631 380.473649 
L 402.62246 377.555328 
L 414.558289 374.698783 
L 426.494118 371.638009 
L 438.429947 366.665604 
L 450.365775 358.493957 
L 462.301604 345.786375 
L 474.237433 331.911672 
L 486.173262 321.012444 
L 498.109091 312.619944 
" clip-path="url(#pd5979c7dfa)" style="fill: none; stroke: #7f7f7f; stroke-width: 1.5; stroke-linecap: square"/>
   </g>
   <g id="line2d_33">
    <path d="M 92.290909 263.599874 
L 104.226738 271.616172 
L 116.162567 278.027493 
L 128.098396 287.153249 
L 140.034225 296.70154 
L 151.970053 305.658372 
L 163.905882 313.125496 
L 175.841711 319.475772 
L 187.77754 324.315879 
L 199.713369 327.49853 
L 211.649198 332.772823 
L 223.585027 339.30889 
L 235.520856 344.744406 
L 247.456684 349.986841 
L 259.392513 358.055863 
L 271.328342 372.643192 
L 283.264171 384.833274 
L 295.2 387.063761 
L 307.135829 386.386785 
L 319.071658 386.794199 
L 331.007487 387.189622 
L 342.943316 387.259319 
L 354.879144 387.195824 
L 366.814973 386.476921 
L 378.750802 385.290864 
L 390.686631 384.252237 
L 402.62246 383.190953 
L 414.558289 381.651478 
L 426.494118 379.13002 
L 438.429947 375.793023 
L 450.365775 371.587816 
L 462.301604 365.731828 
L 474.237433 359.343674 
L 486.173262 352.254308 
L 498.109091 341.288522 
" clip-path="url(#pd5979c7dfa)" style="fill: none; stroke: #17becf; stroke-width: 1.5; stroke-linecap: square"/>
   </g>
   <g id="line2d_34"/>
   <g id="line2d_35"/>
   <g id="patch_6">
    <path d="M 72 400.616471 
L 72 253.863529 
" style="fill: none; stroke: #000000; stroke-width: 0.8; stroke-linejoin: miter; stroke-linecap: square"/>
   </g>
   <g id="patch_7">
    <path d="M 72 400.616471 
L 518.4 400.616471 
" style="fill: none; stroke: #000000; stroke-width: 0.8; stroke-linejoin: miter; stroke-linecap: square"/>
   </g>
   <g id="legend_1">
    <g id="patch_8">
     <path d="M 519.667812 305.897904 
L 689.96 305.897904 
Q 691.96 305.897904 691.96 303.897904 
L 691.96 260.863529 
Q 691.96 258.863529 689.96 258.863529 
L 519.667812 258.863529 
Q 517.667812 258.863529 517.667812 260.863529 
L 517.667812 303.897904 
Q 517.667812 305.897904 519.667812 305.897904 
z
" style="fill: #ffffff; opacity: 0.8; stroke: #cccccc; stroke-linejoin: miter"/>
    </g>
    <g id="text_31">
     <!-- Condition -->
     <g transform="translate(580.95375 270.461967) scale(0.1 -0.1)">
      <defs>
       <path id="DejaVuSans-43" d="M 4122 4306 
L 4122 3641 
Q 3803 3938 3442 4084 
Q 3081 4231 2675 4231 
Q 1875 4231 1450 3742 
Q 1025 3253 1025 2328 
Q 1025 1406 1450 917 
Q 1875 428 2675 428 
Q 3081 428 3442 575 
Q 3803 722 4122 1019 
L 4122 359 
Q 3791 134 3420 21 
Q 3050 -91 2638 -91 
Q 1578 -91 968 557 
Q 359 1206 359 2328 
Q 359 3453 968 4101 
Q 1578 4750 2638 4750 
Q 3056 4750 3426 4639 
Q 3797 4528 4122 4306 
z
" transform="scale(0.015625)"/>
       <path id="DejaVuSans-6e" d="M 3513 2113 
L 3513 0 
L 2938 0 
L 2938 2094 
Q 2938 2591 2744 2837 
Q 2550 3084 2163 3084 
Q 1697 3084 1428 2787 
Q 1159 2491 1159 1978 
L 1159 0 
L 581 0 
L 581 3500 
L 1159 3500 
L 1159 2956 
Q 1366 3272 1645 3428 
Q 1925 3584 2291 3584 
Q 2894 3584 3203 3211 
Q 3513 2838 3513 2113 
z
" transform="scale(0.015625)"/>
       <path id="DejaVuSans-64" d="M 2906 2969 
L 2906 4863 
L 3481 4863 
L 3481 0 
L 2906 0 
L 2906 525 
Q 2725 213 2448 61 
Q 2172 -91 1784 -91 
Q 1150 -91 751 415 
Q 353 922 353 1747 
Q 353 2572 751 3078 
Q 1150 3584 1784 3584 
Q 2172 3584 2448 3432 
Q 2725 3281 2906 2969 
z
M 947 1747 
Q 947 1113 1208 752 
Q 1469 391 1925 391 
Q 2381 391 2643 752 
Q 2906 1113 2906 1747 
Q 2906 2381 2643 2742 
Q 2381 3103 1925 3103 
Q 1469 3103 1208 2742 
Q 947 2381 947 1747 
z
" transform="scale(0.015625)"/>
      </defs>
      <use xlink:href="#DejaVuSans-43"/>
      <use xlink:href="#DejaVuSans-6f" x="69.824219"/>
      <use xlink:href="#DejaVuSans-6e" x="131.005859"/>
      <use xlink:href="#DejaVuSans-64" x="194.384766"/>
      <use xlink:href="#DejaVuSans-69" x="257.861328"/>
      <use xlink:href="#DejaVuSans-74" x="285.644531"/>
      <use xlink:href="#DejaVuSans-69" x="324.853516"/>
      <use xlink:href="#DejaVuSans-6f" x="352.636719"/>
      <use xlink:href="#DejaVuSans-6e" x="413.818359"/>
     </g>
    </g>
    <g id="line2d_36">
     <path d="M 521.667812 281.640092 
L 531.667812 281.640092 
L 541.667812 281.640092 
" style="fill: none; stroke: #7f7f7f; stroke-width: 1.5; stroke-linecap: square"/>
    </g>
    <g id="text_32">
     <!-- Ctrl (# trials=224) -->
     <g transform="translate(549.667812 285.140092) scale(0.1 -0.1)">
      <defs>
       <path id="DejaVuSans-72" d="M 2631 2963 
Q 2534 3019 2420 3045 
Q 2306 3072 2169 3072 
Q 1681 3072 1420 2755 
Q 1159 2438 1159 1844 
L 1159 0 
L 581 0 
L 581 3500 
L 1159 3500 
L 1159 2956 
Q 1341 3275 1631 3429 
Q 1922 3584 2338 3584 
Q 2397 3584 2469 3576 
Q 2541 3569 2628 3553 
L 2631 2963 
z
" transform="scale(0.015625)"/>
       <path id="DejaVuSans-28" d="M 1984 4856 
Q 1566 4138 1362 3434 
Q 1159 2731 1159 2009 
Q 1159 1288 1364 580 
Q 1569 -128 1984 -844 
L 1484 -844 
Q 1016 -109 783 600 
Q 550 1309 550 2009 
Q 550 2706 781 3412 
Q 1013 4119 1484 4856 
L 1984 4856 
z
" transform="scale(0.015625)"/>
       <path id="DejaVuSans-23" d="M 3272 2816 
L 2363 2816 
L 2100 1772 
L 3016 1772 
L 3272 2816 
z
M 2803 4594 
L 2478 3297 
L 3391 3297 
L 3719 4594 
L 4219 4594 
L 3897 3297 
L 4872 3297 
L 4872 2816 
L 3775 2816 
L 3519 1772 
L 4513 1772 
L 4513 1294 
L 3397 1294 
L 3072 0 
L 2572 0 
L 2894 1294 
L 1978 1294 
L 1656 0 
L 1153 0 
L 1478 1294 
L 494 1294 
L 494 1772 
L 1594 1772 
L 1856 2816 
L 850 2816 
L 850 3297 
L 1978 3297 
L 2297 4594 
L 2803 4594 
z
" transform="scale(0.015625)"/>
       <path id="DejaVuSans-73" d="M 2834 3397 
L 2834 2853 
Q 2591 2978 2328 3040 
Q 2066 3103 1784 3103 
Q 1356 3103 1142 2972 
Q 928 2841 928 2578 
Q 928 2378 1081 2264 
Q 1234 2150 1697 2047 
L 1894 2003 
Q 2506 1872 2764 1633 
Q 3022 1394 3022 966 
Q 3022 478 2636 193 
Q 2250 -91 1575 -91 
Q 1294 -91 989 -36 
Q 684 19 347 128 
L 347 722 
Q 666 556 975 473 
Q 1284 391 1588 391 
Q 1994 391 2212 530 
Q 2431 669 2431 922 
Q 2431 1156 2273 1281 
Q 2116 1406 1581 1522 
L 1381 1569 
Q 847 1681 609 1914 
Q 372 2147 372 2553 
Q 372 3047 722 3315 
Q 1072 3584 1716 3584 
Q 2034 3584 2315 3537 
Q 2597 3491 2834 3397 
z
" transform="scale(0.015625)"/>
       <path id="DejaVuSans-3d" d="M 678 2906 
L 4684 2906 
L 4684 2381 
L 678 2381 
L 678 2906 
z
M 678 1631 
L 4684 1631 
L 4684 1100 
L 678 1100 
L 678 1631 
z
" transform="scale(0.015625)"/>
       <path id="DejaVuSans-29" d="M 513 4856 
L 1013 4856 
Q 1481 4119 1714 3412 
Q 1947 2706 1947 2009 
Q 1947 1309 1714 600 
Q 1481 -109 1013 -844 
L 513 -844 
Q 928 -128 1133 580 
Q 1338 1288 1338 2009 
Q 1338 2731 1133 3434 
Q 928 4138 513 4856 
z
" transform="scale(0.015625)"/>
      </defs>
      <use xlink:href="#DejaVuSans-43"/>
      <use xlink:href="#DejaVuSans-74" x="69.824219"/>
      <use xlink:href="#DejaVuSans-72" x="109.033203"/>
      <use xlink:href="#DejaVuSans-6c" x="150.146484"/>
      <use xlink:href="#DejaVuSans-20" x="177.929688"/>
      <use xlink:href="#DejaVuSans-28" x="209.716797"/>
      <use xlink:href="#DejaVuSans-23" x="248.730469"/>
      <use xlink:href="#DejaVuSans-20" x="332.519531"/>
      <use xlink:href="#DejaVuSans-74" x="364.306641"/>
      <use xlink:href="#DejaVuSans-72" x="403.515625"/>
      <use xlink:href="#DejaVuSans-69" x="444.628906"/>
      <use xlink:href="#DejaVuSans-61" x="472.412109"/>
      <use xlink:href="#DejaVuSans-6c" x="533.691406"/>
      <use xlink:href="#DejaVuSans-73" x="561.474609"/>
      <use xlink:href="#DejaVuSans-3d" x="613.574219"/>
      <use xlink:href="#DejaVuSans-32" x="697.363281"/>
      <use xlink:href="#DejaVuSans-32" x="760.986328"/>
      <use xlink:href="#DejaVuSans-34" x="824.609375"/>
      <use xlink:href="#DejaVuSans-29" x="888.232422"/>
     </g>
    </g>
    <g id="line2d_37">
     <path d="M 521.667812 296.318217 
L 531.667812 296.318217 
L 541.667812 296.318217 
" style="fill: none; stroke: #17becf; stroke-width: 1.5; stroke-linecap: square"/>
    </g>
    <g id="text_33">
     <!-- Freeze At RZ (# trials=224) -->
     <g transform="translate(549.667812 299.818217) scale(0.1 -0.1)">
      <defs>
       <path id="DejaVuSans-46" d="M 628 4666 
L 3309 4666 
L 3309 4134 
L 1259 4134 
L 1259 2759 
L 3109 2759 
L 3109 2228 
L 1259 2228 
L 1259 0 
L 628 0 
L 628 4666 
z
" transform="scale(0.015625)"/>
       <path id="DejaVuSans-7a" d="M 353 3500 
L 3084 3500 
L 3084 2975 
L 922 459 
L 3084 459 
L 3084 0 
L 275 0 
L 275 525 
L 2438 3041 
L 353 3041 
L 353 3500 
z
" transform="scale(0.015625)"/>
       <path id="DejaVuSans-41" d="M 2188 4044 
L 1331 1722 
L 3047 1722 
L 2188 4044 
z
M 1831 4666 
L 2547 4666 
L 4325 0 
L 3669 0 
L 3244 1197 
L 1141 1197 
L 716 0 
L 50 0 
L 1831 4666 
z
" transform="scale(0.015625)"/>
       <path id="DejaVuSans-5a" d="M 359 4666 
L 4025 4666 
L 4025 4184 
L 1075 531 
L 4097 531 
L 4097 0 
L 288 0 
L 288 481 
L 3238 4134 
L 359 4134 
L 359 4666 
z
" transform="scale(0.015625)"/>
      </defs>
      <use xlink:href="#DejaVuSans-46"/>
      <use xlink:href="#DejaVuSans-72" x="50.269531"/>
      <use xlink:href="#DejaVuSans-65" x="89.132812"/>
      <use xlink:href="#DejaVuSans-65" x="150.65625"/>
      <use xlink:href="#DejaVuSans-7a" x="212.179688"/>
      <use xlink:href="#DejaVuSans-65" x="264.669922"/>
      <use xlink:href="#DejaVuSans-20" x="326.193359"/>
      <use xlink:href="#DejaVuSans-41" x="357.980469"/>
      <use xlink:href="#DejaVuSans-74" x="424.638672"/>
      <use xlink:href="#DejaVuSans-20" x="463.847656"/>
      <use xlink:href="#DejaVuSans-52" x="495.634766"/>
      <use xlink:href="#DejaVuSans-5a" x="565.117188"/>
      <use xlink:href="#DejaVuSans-20" x="633.623047"/>
      <use xlink:href="#DejaVuSans-28" x="665.410156"/>
      <use xlink:href="#DejaVuSans-23" x="704.423828"/>
      <use xlink:href="#DejaVuSans-20" x="788.212891"/>
      <use xlink:href="#DejaVuSans-74" x="820"/>
      <use xlink:href="#DejaVuSans-72" x="859.208984"/>
      <use xlink:href="#DejaVuSans-69" x="900.322266"/>
      <use xlink:href="#DejaVuSans-61" x="928.105469"/>
      <use xlink:href="#DejaVuSans-6c" x="989.384766"/>
      <use xlink:href="#DejaVuSans-73" x="1017.167969"/>
      <use xlink:href="#DejaVuSans-3d" x="1069.267578"/>
      <use xlink:href="#DejaVuSans-32" x="1153.056641"/>
      <use xlink:href="#DejaVuSans-32" x="1216.679688"/>
      <use xlink:href="#DejaVuSans-34" x="1280.302734"/>
      <use xlink:href="#DejaVuSans-29" x="1343.925781"/>
     </g>
    </g>
   </g>
  </g>
  <g id="axes_3">
   <g id="patch_9">
    <path d="M 72 576.72 
L 518.4 576.72 
L 518.4 429.967059 
L 72 429.967059 
z
" style="fill: #ffffff"/>
   </g>
   <g id="PolyCollection_5">
    <defs>
     <path id="m7ada77c80e" d="M 92.290909 -200.093346 
L 92.290909 -191.809737 
L 104.226738 -192.366429 
L 116.162567 -192.158356 
L 128.098396 -185.358134 
L 140.034225 -175.529358 
L 151.970053 -179.449296 
L 163.905882 -185.274326 
L 175.841711 -185.774349 
L 187.77754 -182.659843 
L 199.713369 -178.830483 
L 211.649198 -173.515846 
L 223.585027 -172.34929 
L 235.520856 -166.586466 
L 247.456684 -153.890357 
L 259.392513 -142.891467 
L 271.328342 -129.996617 
L 283.264171 -118.202661 
L 295.2 -106.472119 
L 307.135829 -98.794619 
L 319.071658 -99.347515 
L 331.007487 -105.019249 
L 342.943316 -116.264989 
L 354.879144 -125.892408 
L 366.814973 -131.361225 
L 378.750802 -138.833327 
L 390.686631 -148.980661 
L 402.62246 -161.517531 
L 414.558289 -172.914087 
L 426.494118 -176.202467 
L 438.429947 -179.580408 
L 450.365775 -186.284439 
L 462.301604 -190.061552 
L 474.237433 -190.528908 
L 486.173262 -187.570652 
L 498.109091 -192.750473 
L 498.109091 -211.020981 
L 498.109091 -211.020981 
L 486.173262 -206.816947 
L 474.237433 -210.326146 
L 462.301604 -211.362353 
L 450.365775 -206.345193 
L 438.429947 -199.65707 
L 426.494118 -196.340749 
L 414.558289 -193.558719 
L 402.62246 -183.815048 
L 390.686631 -170.975327 
L 378.750802 -161.413458 
L 366.814973 -153.035585 
L 354.879144 -146.080589 
L 342.943316 -136.310576 
L 331.007487 -126.278868 
L 319.071658 -118.67611 
L 307.135829 -118.089956 
L 295.2 -126.413304 
L 283.264171 -138.307142 
L 271.328342 -149.782887 
L 259.392513 -163.182504 
L 247.456684 -173.609427 
L 235.520856 -185.43529 
L 223.585027 -190.74377 
L 211.649198 -194.365748 
L 199.713369 -198.487635 
L 187.77754 -201.405554 
L 175.841711 -203.81002 
L 163.905882 -203.171355 
L 151.970053 -196.181202 
L 140.034225 -190.944195 
L 128.098396 -197.154911 
L 116.162567 -201.769929 
L 104.226738 -196.764428 
L 92.290909 -200.093346 
z
" style="stroke: #7f7f7f; stroke-opacity: 0.2"/>
    </defs>
    <g clip-path="url(#p20978d2ccc)">
     <use xlink:href="#m7ada77c80e" x="0" y="648" style="fill: #7f7f7f; fill-opacity: 0.2; stroke: #7f7f7f; stroke-opacity: 0.2"/>
    </g>
   </g>
   <g id="PolyCollection_6">
    <defs>
     <path id="mb66be2ba45" d="M 92.290909 -204.117743 
L 92.290909 -193.503217 
L 104.226738 -194.723274 
L 116.162567 -185.918331 
L 128.098396 -177.686058 
L 140.034225 -180.949511 
L 151.970053 -181.266517 
L 163.905882 -182.387258 
L 175.841711 -182.740741 
L 187.77754 -185.12998 
L 199.713369 -185.864923 
L 211.649198 -169.524401 
L 223.585027 -157.715103 
L 235.520856 -159.325487 
L 247.456684 -151.537017 
L 259.392513 -126.678985 
L 271.328342 -112.947245 
L 283.264171 -102.08915 
L 295.2 -85.602382 
L 307.135829 -77.950588 
L 319.071658 -79.559917 
L 331.007487 -81.556279 
L 342.943316 -84.100974 
L 354.879144 -85.367067 
L 366.814973 -93.115614 
L 378.750802 -106.032306 
L 390.686631 -116.763373 
L 402.62246 -127.124225 
L 414.558289 -131.042296 
L 426.494118 -143.359586 
L 438.429947 -157.472392 
L 450.365775 -169.284377 
L 462.301604 -178.176679 
L 474.237433 -181.282994 
L 486.173262 -186.82043 
L 498.109091 -182.19542 
L 498.109091 -203.619293 
L 498.109091 -203.619293 
L 486.173262 -208.827938 
L 474.237433 -203.904683 
L 462.301604 -200.585954 
L 450.365775 -190.993146 
L 438.429947 -182.091647 
L 426.494118 -166.466703 
L 414.558289 -155.739557 
L 402.62246 -153.685586 
L 390.686631 -139.03225 
L 378.750802 -128.326424 
L 366.814973 -116.12126 
L 354.879144 -110.429591 
L 342.943316 -108.037398 
L 331.007487 -103.779338 
L 319.071658 -102.19252 
L 307.135829 -100.77222 
L 295.2 -108.822732 
L 283.264171 -123.642582 
L 271.328342 -134.250919 
L 259.392513 -148.781368 
L 247.456684 -173.249475 
L 235.520856 -180.730692 
L 223.585027 -179.363304 
L 211.649198 -190.383571 
L 199.713369 -204.100825 
L 187.77754 -203.394702 
L 175.841711 -200.572307 
L 163.905882 -200.922718 
L 151.970053 -198.831333 
L 140.034225 -198.060961 
L 128.098396 -192.726125 
L 116.162567 -196.233153 
L 104.226738 -200.905169 
L 92.290909 -204.117743 
z
" style="stroke: #17becf; stroke-opacity: 0.2"/>
    </defs>
    <g clip-path="url(#p20978d2ccc)">
     <use xlink:href="#mb66be2ba45" x="0" y="648" style="fill: #17becf; fill-opacity: 0.2; stroke: #17becf; stroke-opacity: 0.2"/>
    </g>
   </g>
   <g id="matplotlib.axis_5">
    <g id="xtick_17">
     <g id="line2d_38">
      <g>
       <use xlink:href="#mb4747779e5" x="80.35508" y="576.72" style="stroke: #000000; stroke-width: 0.8"/>
      </g>
     </g>
     <g id="text_34">
      <!-- −2 -->
      <g transform="translate(72.983986 591.318438) scale(0.1 -0.1)">
       <use xlink:href="#DejaVuSans-2212"/>
       <use xlink:href="#DejaVuSans-32" x="83.789062"/>
      </g>
     </g>
    </g>
    <g id="xtick_18">
     <g id="line2d_39">
      <g>
       <use xlink:href="#mb4747779e5" x="140.034225" y="576.72" style="stroke: #000000; stroke-width: 0.8"/>
      </g>
     </g>
     <g id="text_35">
      <!-- −1 -->
      <g transform="translate(132.663131 591.318438) scale(0.1 -0.1)">
       <use xlink:href="#DejaVuSans-2212"/>
       <use xlink:href="#DejaVuSans-31" x="83.789062"/>
      </g>
     </g>
    </g>
    <g id="xtick_19">
     <g id="line2d_40">
      <g>
       <use xlink:href="#mb4747779e5" x="199.713369" y="576.72" style="stroke: #000000; stroke-width: 0.8"/>
      </g>
     </g>
     <g id="text_36">
      <!-- 0 -->
      <g transform="translate(196.532119 591.318438) scale(0.1 -0.1)">
       <use xlink:href="#DejaVuSans-30"/>
      </g>
     </g>
    </g>
    <g id="xtick_20">
     <g id="line2d_41">
      <g>
       <use xlink:href="#mb4747779e5" x="259.392513" y="576.72" style="stroke: #000000; stroke-width: 0.8"/>
      </g>
     </g>
     <g id="text_37">
      <!-- 1 -->
      <g transform="translate(256.211263 591.318438) scale(0.1 -0.1)">
       <use xlink:href="#DejaVuSans-31"/>
      </g>
     </g>
    </g>
    <g id="xtick_21">
     <g id="line2d_42">
      <g>
       <use xlink:href="#mb4747779e5" x="319.071658" y="576.72" style="stroke: #000000; stroke-width: 0.8"/>
      </g>
     </g>
     <g id="text_38">
      <!-- 2 -->
      <g transform="translate(315.890408 591.318438) scale(0.1 -0.1)">
       <use xlink:href="#DejaVuSans-32"/>
      </g>
     </g>
    </g>
    <g id="xtick_22">
     <g id="line2d_43">
      <g>
       <use xlink:href="#mb4747779e5" x="378.750802" y="576.72" style="stroke: #000000; stroke-width: 0.8"/>
      </g>
     </g>
     <g id="text_39">
      <!-- 3 -->
      <g transform="translate(375.569552 591.318438) scale(0.1 -0.1)">
       <use xlink:href="#DejaVuSans-33"/>
      </g>
     </g>
    </g>
    <g id="xtick_23">
     <g id="line2d_44">
      <g>
       <use xlink:href="#mb4747779e5" x="438.429947" y="576.72" style="stroke: #000000; stroke-width: 0.8"/>
      </g>
     </g>
     <g id="text_40">
      <!-- 4 -->
      <g transform="translate(435.248697 591.318438) scale(0.1 -0.1)">
       <use xlink:href="#DejaVuSans-34"/>
      </g>
     </g>
    </g>
    <g id="xtick_24">
     <g id="line2d_45">
      <g>
       <use xlink:href="#mb4747779e5" x="498.109091" y="576.72" style="stroke: #000000; stroke-width: 0.8"/>
      </g>
     </g>
     <g id="text_41">
      <!-- 5 -->
      <g transform="translate(494.927841 591.318438) scale(0.1 -0.1)">
       <use xlink:href="#DejaVuSans-35"/>
      </g>
     </g>
    </g>
    <g id="text_42">
     <!-- Time to RZ (s) -->
     <g transform="translate(259.774219 604.996562) scale(0.1 -0.1)">
      <defs>
       <path id="DejaVuSans-54" d="M -19 4666 
L 3928 4666 
L 3928 4134 
L 2272 4134 
L 2272 0 
L 1638 0 
L 1638 4134 
L -19 4134 
L -19 4666 
z
" transform="scale(0.015625)"/>
       <path id="DejaVuSans-6d" d="M 3328 2828 
Q 3544 3216 3844 3400 
Q 4144 3584 4550 3584 
Q 5097 3584 5394 3201 
Q 5691 2819 5691 2113 
L 5691 0 
L 5113 0 
L 5113 2094 
Q 5113 2597 4934 2840 
Q 4756 3084 4391 3084 
Q 3944 3084 3684 2787 
Q 3425 2491 3425 1978 
L 3425 0 
L 2847 0 
L 2847 2094 
Q 2847 2600 2669 2842 
Q 2491 3084 2119 3084 
Q 1678 3084 1418 2786 
Q 1159 2488 1159 1978 
L 1159 0 
L 581 0 
L 581 3500 
L 1159 3500 
L 1159 2956 
Q 1356 3278 1631 3431 
Q 1906 3584 2284 3584 
Q 2666 3584 2933 3390 
Q 3200 3197 3328 2828 
z
" transform="scale(0.015625)"/>
      </defs>
      <use xlink:href="#DejaVuSans-54"/>
      <use xlink:href="#DejaVuSans-69" x="57.958984"/>
      <use xlink:href="#DejaVuSans-6d" x="85.742188"/>
      <use xlink:href="#DejaVuSans-65" x="183.154297"/>
      <use xlink:href="#DejaVuSans-20" x="244.677734"/>
      <use xlink:href="#DejaVuSans-74" x="276.464844"/>
      <use xlink:href="#DejaVuSans-6f" x="315.673828"/>
      <use xlink:href="#DejaVuSans-20" x="376.855469"/>
      <use xlink:href="#DejaVuSans-52" x="408.642578"/>
      <use xlink:href="#DejaVuSans-5a" x="478.125"/>
      <use xlink:href="#DejaVuSans-20" x="546.630859"/>
      <use xlink:href="#DejaVuSans-28" x="578.417969"/>
      <use xlink:href="#DejaVuSans-73" x="617.431641"/>
      <use xlink:href="#DejaVuSans-29" x="669.53125"/>
     </g>
    </g>
   </g>
   <g id="matplotlib.axis_6">
    <g id="ytick_12">
     <g id="line2d_46">
      <g>
       <use xlink:href="#m2419374846" x="72" y="563.61765" style="stroke: #000000; stroke-width: 0.8"/>
      </g>
     </g>
     <g id="text_43">
      <!-- −0.25 -->
      <g transform="translate(34.354687 567.416869) scale(0.1 -0.1)">
       <use xlink:href="#DejaVuSans-2212"/>
       <use xlink:href="#DejaVuSans-30" x="83.789062"/>
       <use xlink:href="#DejaVuSans-2e" x="147.412109"/>
       <use xlink:href="#DejaVuSans-32" x="179.199219"/>
       <use xlink:href="#DejaVuSans-35" x="242.822266"/>
      </g>
     </g>
    </g>
    <g id="ytick_13">
     <g id="line2d_47">
      <g>
       <use xlink:href="#m2419374846" x="72" y="541.32287" style="stroke: #000000; stroke-width: 0.8"/>
      </g>
     </g>
     <g id="text_44">
      <!-- −0.20 -->
      <g transform="translate(34.354687 545.122089) scale(0.1 -0.1)">
       <use xlink:href="#DejaVuSans-2212"/>
       <use xlink:href="#DejaVuSans-30" x="83.789062"/>
       <use xlink:href="#DejaVuSans-2e" x="147.412109"/>
       <use xlink:href="#DejaVuSans-32" x="179.199219"/>
       <use xlink:href="#DejaVuSans-30" x="242.822266"/>
      </g>
     </g>
    </g>
    <g id="ytick_14">
     <g id="line2d_48">
      <g>
       <use xlink:href="#m2419374846" x="72" y="519.028089" style="stroke: #000000; stroke-width: 0.8"/>
      </g>
     </g>
     <g id="text_45">
      <!-- −0.15 -->
      <g transform="translate(34.354687 522.827308) scale(0.1 -0.1)">
       <use xlink:href="#DejaVuSans-2212"/>
       <use xlink:href="#DejaVuSans-30" x="83.789062"/>
       <use xlink:href="#DejaVuSans-2e" x="147.412109"/>
       <use xlink:href="#DejaVuSans-31" x="179.199219"/>
       <use xlink:href="#DejaVuSans-35" x="242.822266"/>
      </g>
     </g>
    </g>
    <g id="ytick_15">
     <g id="line2d_49">
      <g>
       <use xlink:href="#m2419374846" x="72" y="496.733308" style="stroke: #000000; stroke-width: 0.8"/>
      </g>
     </g>
     <g id="text_46">
      <!-- −0.10 -->
      <g transform="translate(34.354687 500.532527) scale(0.1 -0.1)">
       <use xlink:href="#DejaVuSans-2212"/>
       <use xlink:href="#DejaVuSans-30" x="83.789062"/>
       <use xlink:href="#DejaVuSans-2e" x="147.412109"/>
       <use xlink:href="#DejaVuSans-31" x="179.199219"/>
       <use xlink:href="#DejaVuSans-30" x="242.822266"/>
      </g>
     </g>
    </g>
    <g id="ytick_16">
     <g id="line2d_50">
      <g>
       <use xlink:href="#m2419374846" x="72" y="474.438528" style="stroke: #000000; stroke-width: 0.8"/>
      </g>
     </g>
     <g id="text_47">
      <!-- −0.05 -->
      <g transform="translate(34.354687 478.237746) scale(0.1 -0.1)">
       <use xlink:href="#DejaVuSans-2212"/>
       <use xlink:href="#DejaVuSans-30" x="83.789062"/>
       <use xlink:href="#DejaVuSans-2e" x="147.412109"/>
       <use xlink:href="#DejaVuSans-30" x="179.199219"/>
       <use xlink:href="#DejaVuSans-35" x="242.822266"/>
      </g>
     </g>
    </g>
    <g id="ytick_17">
     <g id="line2d_51">
      <g>
       <use xlink:href="#m2419374846" x="72" y="452.143747" style="stroke: #000000; stroke-width: 0.8"/>
      </g>
     </g>
     <g id="text_48">
      <!-- 0.00 -->
      <g transform="translate(42.734375 455.942966) scale(0.1 -0.1)">
       <use xlink:href="#DejaVuSans-30"/>
       <use xlink:href="#DejaVuSans-2e" x="63.623047"/>
       <use xlink:href="#DejaVuSans-30" x="95.410156"/>
       <use xlink:href="#DejaVuSans-30" x="159.033203"/>
      </g>
     </g>
    </g>
    <g id="text_49">
     <!-- Firing Rate -->
     <g transform="translate(28.275 530.084936) rotate(-90) scale(0.1 -0.1)">
      <defs>
       <path id="DejaVuSans-67" d="M 2906 1791 
Q 2906 2416 2648 2759 
Q 2391 3103 1925 3103 
Q 1463 3103 1205 2759 
Q 947 2416 947 1791 
Q 947 1169 1205 825 
Q 1463 481 1925 481 
Q 2391 481 2648 825 
Q 2906 1169 2906 1791 
z
M 3481 434 
Q 3481 -459 3084 -895 
Q 2688 -1331 1869 -1331 
Q 1566 -1331 1297 -1286 
Q 1028 -1241 775 -1147 
L 775 -588 
Q 1028 -725 1275 -790 
Q 1522 -856 1778 -856 
Q 2344 -856 2625 -561 
Q 2906 -266 2906 331 
L 2906 616 
Q 2728 306 2450 153 
Q 2172 0 1784 0 
Q 1141 0 747 490 
Q 353 981 353 1791 
Q 353 2603 747 3093 
Q 1141 3584 1784 3584 
Q 2172 3584 2450 3431 
Q 2728 3278 2906 2969 
L 2906 3500 
L 3481 3500 
L 3481 434 
z
" transform="scale(0.015625)"/>
      </defs>
      <use xlink:href="#DejaVuSans-46"/>
      <use xlink:href="#DejaVuSans-69" x="50.269531"/>
      <use xlink:href="#DejaVuSans-72" x="78.052734"/>
      <use xlink:href="#DejaVuSans-69" x="119.166016"/>
      <use xlink:href="#DejaVuSans-6e" x="146.949219"/>
      <use xlink:href="#DejaVuSans-67" x="210.328125"/>
      <use xlink:href="#DejaVuSans-20" x="273.804688"/>
      <use xlink:href="#DejaVuSans-52" x="305.591797"/>
      <use xlink:href="#DejaVuSans-61" x="372.824219"/>
      <use xlink:href="#DejaVuSans-74" x="434.103516"/>
      <use xlink:href="#DejaVuSans-65" x="473.3125"/>
     </g>
    </g>
   </g>
   <g id="line2d_52">
    <path d="M 92.290909 451.817939 
L 104.226738 453.354054 
L 116.162567 451.259248 
L 128.098396 456.821088 
L 140.034225 464.682963 
L 151.970053 459.594276 
L 163.905882 453.550557 
L 175.841711 453.103456 
L 187.77754 455.833594 
L 199.713369 459.088106 
L 211.649198 464.092982 
L 223.585027 466.172683 
L 235.520856 472.204023 
L 247.456684 483.714459 
L 259.392513 495.121694 
L 271.328342 507.651459 
L 283.264171 519.305625 
L 295.2 531.163768 
L 307.135829 539.456329 
L 319.071658 539.434645 
L 331.007487 532.034162 
L 342.943316 521.772148 
L 354.879144 511.609447 
L 366.814973 505.849046 
L 378.750802 498.773663 
L 390.686631 487.74395 
L 402.62246 475.779834 
L 414.558289 464.509761 
L 426.494118 461.254364 
L 438.429947 458.229445 
L 450.365775 451.957853 
L 462.301604 447.010186 
L 474.237433 447.241044 
L 486.173262 450.508814 
L 498.109091 445.970468 
" clip-path="url(#p20978d2ccc)" style="fill: none; stroke: #7f7f7f; stroke-width: 1.5; stroke-linecap: square"/>
   </g>
   <g id="line2d_53">
    <path d="M 92.290909 449.418157 
L 104.226738 450.056714 
L 116.162567 456.956369 
L 128.098396 462.469567 
L 140.034225 458.899308 
L 151.970053 457.716815 
L 163.905882 456.322385 
L 175.841711 456.572713 
L 187.77754 454.003738 
L 199.713369 453.492745 
L 211.649198 467.818444 
L 223.585027 479.897763 
L 235.520856 477.935941 
L 247.456684 485.942027 
L 259.392513 510.660782 
L 271.328342 524.463393 
L 283.264171 534.811255 
L 295.2 550.264187 
L 307.135829 558.974546 
L 319.071658 557.462025 
L 331.007487 555.29156 
L 342.943316 551.743168 
L 354.879144 549.995029 
L 366.814973 543.278991 
L 378.750802 530.673177 
L 390.686631 519.667827 
L 402.62246 506.886534 
L 414.558289 504.365298 
L 426.494118 493.043063 
L 438.429947 477.822299 
L 450.365775 467.697929 
L 462.301604 458.85003 
L 474.237433 455.995767 
L 486.173262 450.196733 
L 498.109091 455.228798 
" clip-path="url(#p20978d2ccc)" style="fill: none; stroke: #17becf; stroke-width: 1.5; stroke-linecap: square"/>
   </g>
   <g id="line2d_54"/>
   <g id="line2d_55"/>
   <g id="patch_10">
    <path d="M 72 576.72 
L 72 429.967059 
" style="fill: none; stroke: #000000; stroke-width: 0.8; stroke-linejoin: miter; stroke-linecap: square"/>
   </g>
   <g id="patch_11">
    <path d="M 72 576.72 
L 518.4 576.72 
" style="fill: none; stroke: #000000; stroke-width: 0.8; stroke-linejoin: miter; stroke-linecap: square"/>
   </g>
  </g>
 </g>
 <defs>
  <clipPath id="pcf07e918cf">
   <rect x="72" y="77.76" width="446.4" height="146.752941"/>
  </clipPath>
  <clipPath id="pd5979c7dfa">
   <rect x="72" y="253.863529" width="446.4" height="146.752941"/>
  </clipPath>
  <clipPath id="p20978d2ccc">
   <rect x="72" y="429.967059" width="446.4" height="146.752941"/>
  </clipPath>
 </defs>
</svg>
