<?xml version="1.0" encoding="utf-8" standalone="no"?>
<!DOCTYPE svg PUBLIC "-//W3C//DTD SVG 1.1//EN"
  "http://www.w3.org/Graphics/SVG/1.1/DTD/svg11.dtd">
<svg xmlns:xlink="http://www.w3.org/1999/xlink" width="576pt" height="648pt" viewBox="0 0 576 648" xmlns="http://www.w3.org/2000/svg" version="1.1">
 <metadata>
  <rdf:RDF xmlns:dc="http://purl.org/dc/elements/1.1/" xmlns:cc="http://creativecommons.org/ns#" xmlns:rdf="http://www.w3.org/1999/02/22-rdf-syntax-ns#">
   <cc:Work>
    <dc:type rdf:resource="http://purl.org/dc/dcmitype/StillImage"/>
    <dc:date>2025-01-14T09:12:27.191217</dc:date>
    <dc:format>image/svg+xml</dc:format>
    <dc:creator>
     <cc:Agent>
      <dc:title>Matplotlib v3.7.2, https://matplotlib.org/</dc:title>
     </cc:Agent>
    </dc:creator>
   </cc:Work>
  </rdf:RDF>
 </metadata>
 <defs>
  <style type="text/css">*{stroke-linejoin: round; stroke-linecap: butt}</style>
 </defs>
 <g id="figure_1">
  <g id="patch_1">
   <path d="M 0 648 
L 576 648 
L 576 0 
L 0 0 
z
" style="fill: #ffffff"/>
  </g>
  <g id="axes_1">
   <g id="patch_2">
    <path d="M 72 224.512941 
L 518.4 224.512941 
L 518.4 77.76 
L 72 77.76 
z
" style="fill: #ffffff"/>
   </g>
   <g id="PolyCollection_1">
    <defs>
     <path id="m59768d6f5e" d="M 92.290909 -451.12104 
L 92.290909 -431.745371 
L 104.226738 -445.075899 
L 116.162567 -463.789919 
L 128.098396 -458.137181 
L 140.034225 -458.347726 
L 151.970053 -467.029709 
L 163.905882 -473.366105 
L 175.841711 -476.196302 
L 187.77754 -494.636983 
L 199.713369 -499.057092 
L 211.649198 -499.822994 
L 223.585027 -491.016288 
L 235.520856 -474.408531 
L 247.456684 -500.724758 
L 259.392513 -511.987765 
L 271.328342 -523.691595 
L 283.264171 -529.432866 
L 295.2 -524.140004 
L 307.135829 -516.132216 
L 319.071658 -523.236846 
L 331.007487 -529.321934 
L 342.943316 -513.700545 
L 354.879144 -493.880646 
L 366.814973 -498.309722 
L 378.750802 -487.179197 
L 390.686631 -470.537651 
L 402.62246 -485.369252 
L 414.558289 -475.846909 
L 426.494118 -457.595997 
L 438.429947 -444.224846 
L 450.365775 -450.510061 
L 462.301604 -460.842821 
L 474.237433 -455.058231 
L 486.173262 -441.42975 
L 498.109091 -430.157647 
L 498.109091 -469.669376 
L 498.109091 -469.669376 
L 486.173262 -486.443586 
L 474.237433 -499.656642 
L 462.301604 -499.071238 
L 450.365775 -496.531976 
L 438.429947 -486.918918 
L 426.494118 -492.425112 
L 414.558289 -517.243306 
L 402.62246 -524.396692 
L 390.686631 -512.60904 
L 378.750802 -525.184227 
L 366.814973 -536.495598 
L 354.879144 -535.5408 
L 342.943316 -549.460751 
L 331.007487 -563.569412 
L 319.071658 -559.084851 
L 307.135829 -552.956453 
L 295.2 -557.387405 
L 283.264171 -563.228869 
L 271.328342 -561.444048 
L 259.392513 -551.517283 
L 247.456684 -540.028449 
L 235.520856 -516.452207 
L 223.585027 -527.471093 
L 211.649198 -539.190174 
L 199.713369 -533.007837 
L 187.77754 -529.214452 
L 175.841711 -512.997499 
L 163.905882 -508.769208 
L 151.970053 -499.176325 
L 140.034225 -490.058682 
L 128.098396 -487.734171 
L 116.162567 -480.02773 
L 104.226738 -456.987265 
L 92.290909 -451.12104 
z
" style="stroke: #7f7f7f; stroke-opacity: 0.2"/>
    </defs>
    <g clip-path="url(#paeadde1489)">
     <use xlink:href="#m59768d6f5e" x="0" y="648" style="fill: #7f7f7f; fill-opacity: 0.2; stroke: #7f7f7f; stroke-opacity: 0.2"/>
    </g>
   </g>
   <g id="PolyCollection_2">
    <defs>
     <path id="mff1fbacc25" d="M 92.290909 -454.575245 
L 92.290909 -434.235876 
L 104.226738 -453.791092 
L 116.162567 -450.163565 
L 128.098396 -449.977986 
L 140.034225 -460.39044 
L 151.970053 -458.273907 
L 163.905882 -460.430613 
L 175.841711 -467.304308 
L 187.77754 -469.691841 
L 199.713369 -471.644002 
L 211.649198 -494.49241 
L 223.585027 -486.019911 
L 235.520856 -478.533704 
L 247.456684 -488.853744 
L 259.392513 -495.707494 
L 271.328342 -508.470112 
L 283.264171 -505.485619 
L 295.2 -508.59781 
L 307.135829 -502.994574 
L 319.071658 -496.171051 
L 331.007487 -508.27305 
L 342.943316 -513.810896 
L 354.879144 -487.327919 
L 366.814973 -481.116807 
L 378.750802 -486.285507 
L 390.686631 -477.530795 
L 402.62246 -467.91205 
L 414.558289 -462.351396 
L 426.494118 -475.762745 
L 438.429947 -469.164373 
L 450.365775 -456.872894 
L 462.301604 -440.352482 
L 474.237433 -438.012383 
L 486.173262 -451.180551 
L 498.109091 -446.867187 
L 498.109091 -491.705292 
L 498.109091 -491.705292 
L 486.173262 -493.481722 
L 474.237433 -479.405031 
L 462.301604 -482.36613 
L 450.365775 -498.940784 
L 438.429947 -509.562772 
L 426.494118 -515.637412 
L 414.558289 -506.432906 
L 402.62246 -510.86905 
L 390.686631 -519.6996 
L 378.750802 -523.951185 
L 366.814973 -519.294421 
L 354.879144 -529.603273 
L 342.943316 -551.666145 
L 331.007487 -543.85411 
L 319.071658 -537.793352 
L 307.135829 -541.386316 
L 295.2 -544.56824 
L 283.264171 -545.93281 
L 271.328342 -546.026045 
L 259.392513 -534.101839 
L 247.456684 -528.488143 
L 235.520856 -515.94732 
L 223.585027 -524.892637 
L 211.649198 -529.818377 
L 199.713369 -509.354779 
L 187.77754 -506.435918 
L 175.841711 -503.777818 
L 163.905882 -494.538998 
L 151.970053 -493.064447 
L 140.034225 -493.276623 
L 128.098396 -480.517704 
L 116.162567 -470.876076 
L 104.226738 -466.01929 
L 92.290909 -454.575245 
z
" style="stroke: #17becf; stroke-opacity: 0.2"/>
    </defs>
    <g clip-path="url(#paeadde1489)">
     <use xlink:href="#mff1fbacc25" x="0" y="648" style="fill: #17becf; fill-opacity: 0.2; stroke: #17becf; stroke-opacity: 0.2"/>
    </g>
   </g>
   <g id="matplotlib.axis_1">
    <g id="xtick_1">
     <g id="line2d_1">
      <defs>
       <path id="mad888ef611" d="M 0 0 
L 0 3.5 
" style="stroke: #000000; stroke-width: 0.8"/>
      </defs>
      <g>
       <use xlink:href="#mad888ef611" x="80.35508" y="224.512941" style="stroke: #000000; stroke-width: 0.8"/>
      </g>
     </g>
     <g id="text_1">
      <!-- −2 -->
      <g transform="translate(72.983986 239.111379) scale(0.1 -0.1)">
       <defs>
        <path id="DejaVuSans-2212" d="M 678 2272 
L 4684 2272 
L 4684 1741 
L 678 1741 
L 678 2272 
z
" transform="scale(0.015625)"/>
        <path id="DejaVuSans-32" d="M 1228 531 
L 3431 531 
L 3431 0 
L 469 0 
L 469 531 
Q 828 903 1448 1529 
Q 2069 2156 2228 2338 
Q 2531 2678 2651 2914 
Q 2772 3150 2772 3378 
Q 2772 3750 2511 3984 
Q 2250 4219 1831 4219 
Q 1534 4219 1204 4116 
Q 875 4013 500 3803 
L 500 4441 
Q 881 4594 1212 4672 
Q 1544 4750 1819 4750 
Q 2544 4750 2975 4387 
Q 3406 4025 3406 3419 
Q 3406 3131 3298 2873 
Q 3191 2616 2906 2266 
Q 2828 2175 2409 1742 
Q 1991 1309 1228 531 
z
" transform="scale(0.015625)"/>
       </defs>
       <use xlink:href="#DejaVuSans-2212"/>
       <use xlink:href="#DejaVuSans-32" x="83.789062"/>
      </g>
     </g>
    </g>
    <g id="xtick_2">
     <g id="line2d_2">
      <g>
       <use xlink:href="#mad888ef611" x="140.034225" y="224.512941" style="stroke: #000000; stroke-width: 0.8"/>
      </g>
     </g>
     <g id="text_2">
      <!-- −1 -->
      <g transform="translate(132.663131 239.111379) scale(0.1 -0.1)">
       <defs>
        <path id="DejaVuSans-31" d="M 794 531 
L 1825 531 
L 1825 4091 
L 703 3866 
L 703 4441 
L 1819 4666 
L 2450 4666 
L 2450 531 
L 3481 531 
L 3481 0 
L 794 0 
L 794 531 
z
" transform="scale(0.015625)"/>
       </defs>
       <use xlink:href="#DejaVuSans-2212"/>
       <use xlink:href="#DejaVuSans-31" x="83.789062"/>
      </g>
     </g>
    </g>
    <g id="xtick_3">
     <g id="line2d_3">
      <g>
       <use xlink:href="#mad888ef611" x="199.713369" y="224.512941" style="stroke: #000000; stroke-width: 0.8"/>
      </g>
     </g>
     <g id="text_3">
      <!-- 0 -->
      <g transform="translate(196.532119 239.111379) scale(0.1 -0.1)">
       <defs>
        <path id="DejaVuSans-30" d="M 2034 4250 
Q 1547 4250 1301 3770 
Q 1056 3291 1056 2328 
Q 1056 1369 1301 889 
Q 1547 409 2034 409 
Q 2525 409 2770 889 
Q 3016 1369 3016 2328 
Q 3016 3291 2770 3770 
Q 2525 4250 2034 4250 
z
M 2034 4750 
Q 2819 4750 3233 4129 
Q 3647 3509 3647 2328 
Q 3647 1150 3233 529 
Q 2819 -91 2034 -91 
Q 1250 -91 836 529 
Q 422 1150 422 2328 
Q 422 3509 836 4129 
Q 1250 4750 2034 4750 
z
" transform="scale(0.015625)"/>
       </defs>
       <use xlink:href="#DejaVuSans-30"/>
      </g>
     </g>
    </g>
    <g id="xtick_4">
     <g id="line2d_4">
      <g>
       <use xlink:href="#mad888ef611" x="259.392513" y="224.512941" style="stroke: #000000; stroke-width: 0.8"/>
      </g>
     </g>
     <g id="text_4">
      <!-- 1 -->
      <g transform="translate(256.211263 239.111379) scale(0.1 -0.1)">
       <use xlink:href="#DejaVuSans-31"/>
      </g>
     </g>
    </g>
    <g id="xtick_5">
     <g id="line2d_5">
      <g>
       <use xlink:href="#mad888ef611" x="319.071658" y="224.512941" style="stroke: #000000; stroke-width: 0.8"/>
      </g>
     </g>
     <g id="text_5">
      <!-- 2 -->
      <g transform="translate(315.890408 239.111379) scale(0.1 -0.1)">
       <use xlink:href="#DejaVuSans-32"/>
      </g>
     </g>
    </g>
    <g id="xtick_6">
     <g id="line2d_6">
      <g>
       <use xlink:href="#mad888ef611" x="378.750802" y="224.512941" style="stroke: #000000; stroke-width: 0.8"/>
      </g>
     </g>
     <g id="text_6">
      <!-- 3 -->
      <g transform="translate(375.569552 239.111379) scale(0.1 -0.1)">
       <defs>
        <path id="DejaVuSans-33" d="M 2597 2516 
Q 3050 2419 3304 2112 
Q 3559 1806 3559 1356 
Q 3559 666 3084 287 
Q 2609 -91 1734 -91 
Q 1441 -91 1130 -33 
Q 819 25 488 141 
L 488 750 
Q 750 597 1062 519 
Q 1375 441 1716 441 
Q 2309 441 2620 675 
Q 2931 909 2931 1356 
Q 2931 1769 2642 2001 
Q 2353 2234 1838 2234 
L 1294 2234 
L 1294 2753 
L 1863 2753 
Q 2328 2753 2575 2939 
Q 2822 3125 2822 3475 
Q 2822 3834 2567 4026 
Q 2313 4219 1838 4219 
Q 1578 4219 1281 4162 
Q 984 4106 628 3988 
L 628 4550 
Q 988 4650 1302 4700 
Q 1616 4750 1894 4750 
Q 2613 4750 3031 4423 
Q 3450 4097 3450 3541 
Q 3450 3153 3228 2886 
Q 3006 2619 2597 2516 
z
" transform="scale(0.015625)"/>
       </defs>
       <use xlink:href="#DejaVuSans-33"/>
      </g>
     </g>
    </g>
    <g id="xtick_7">
     <g id="line2d_7">
      <g>
       <use xlink:href="#mad888ef611" x="438.429947" y="224.512941" style="stroke: #000000; stroke-width: 0.8"/>
      </g>
     </g>
     <g id="text_7">
      <!-- 4 -->
      <g transform="translate(435.248697 239.111379) scale(0.1 -0.1)">
       <defs>
        <path id="DejaVuSans-34" d="M 2419 4116 
L 825 1625 
L 2419 1625 
L 2419 4116 
z
M 2253 4666 
L 3047 4666 
L 3047 1625 
L 3713 1625 
L 3713 1100 
L 3047 1100 
L 3047 0 
L 2419 0 
L 2419 1100 
L 313 1100 
L 313 1709 
L 2253 4666 
z
" transform="scale(0.015625)"/>
       </defs>
       <use xlink:href="#DejaVuSans-34"/>
      </g>
     </g>
    </g>
    <g id="xtick_8">
     <g id="line2d_8">
      <g>
       <use xlink:href="#mad888ef611" x="498.109091" y="224.512941" style="stroke: #000000; stroke-width: 0.8"/>
      </g>
     </g>
     <g id="text_8">
      <!-- 5 -->
      <g transform="translate(494.927841 239.111379) scale(0.1 -0.1)">
       <defs>
        <path id="DejaVuSans-35" d="M 691 4666 
L 3169 4666 
L 3169 4134 
L 1269 4134 
L 1269 2991 
Q 1406 3038 1543 3061 
Q 1681 3084 1819 3084 
Q 2600 3084 3056 2656 
Q 3513 2228 3513 1497 
Q 3513 744 3044 326 
Q 2575 -91 1722 -91 
Q 1428 -91 1123 -41 
Q 819 9 494 109 
L 494 744 
Q 775 591 1075 516 
Q 1375 441 1709 441 
Q 2250 441 2565 725 
Q 2881 1009 2881 1497 
Q 2881 1984 2565 2268 
Q 2250 2553 1709 2553 
Q 1456 2553 1204 2497 
Q 953 2441 691 2322 
L 691 4666 
z
" transform="scale(0.015625)"/>
       </defs>
       <use xlink:href="#DejaVuSans-35"/>
      </g>
     </g>
    </g>
   </g>
   <g id="matplotlib.axis_2">
    <g id="ytick_1">
     <g id="line2d_9">
      <defs>
       <path id="m02a66207da" d="M 0 0 
L -3.5 0 
" style="stroke: #000000; stroke-width: 0.8"/>
      </defs>
      <g>
       <use xlink:href="#m02a66207da" x="72" y="221.355491" style="stroke: #000000; stroke-width: 0.8"/>
      </g>
     </g>
     <g id="text_9">
      <!-- −0.1 -->
      <g transform="translate(40.717187 225.15471) scale(0.1 -0.1)">
       <defs>
        <path id="DejaVuSans-2e" d="M 684 794 
L 1344 794 
L 1344 0 
L 684 0 
L 684 794 
z
" transform="scale(0.015625)"/>
       </defs>
       <use xlink:href="#DejaVuSans-2212"/>
       <use xlink:href="#DejaVuSans-30" x="83.789062"/>
       <use xlink:href="#DejaVuSans-2e" x="147.412109"/>
       <use xlink:href="#DejaVuSans-31" x="179.199219"/>
      </g>
     </g>
    </g>
    <g id="ytick_2">
     <g id="line2d_10">
      <g>
       <use xlink:href="#m02a66207da" x="72" y="193.270993" style="stroke: #000000; stroke-width: 0.8"/>
      </g>
     </g>
     <g id="text_10">
      <!-- 0.0 -->
      <g transform="translate(49.096875 197.070212) scale(0.1 -0.1)">
       <use xlink:href="#DejaVuSans-30"/>
       <use xlink:href="#DejaVuSans-2e" x="63.623047"/>
       <use xlink:href="#DejaVuSans-30" x="95.410156"/>
      </g>
     </g>
    </g>
    <g id="ytick_3">
     <g id="line2d_11">
      <g>
       <use xlink:href="#m02a66207da" x="72" y="165.186495" style="stroke: #000000; stroke-width: 0.8"/>
      </g>
     </g>
     <g id="text_11">
      <!-- 0.1 -->
      <g transform="translate(49.096875 168.985714) scale(0.1 -0.1)">
       <use xlink:href="#DejaVuSans-30"/>
       <use xlink:href="#DejaVuSans-2e" x="63.623047"/>
       <use xlink:href="#DejaVuSans-31" x="95.410156"/>
      </g>
     </g>
    </g>
    <g id="ytick_4">
     <g id="line2d_12">
      <g>
       <use xlink:href="#m02a66207da" x="72" y="137.101997" style="stroke: #000000; stroke-width: 0.8"/>
      </g>
     </g>
     <g id="text_12">
      <!-- 0.2 -->
      <g transform="translate(49.096875 140.901216) scale(0.1 -0.1)">
       <use xlink:href="#DejaVuSans-30"/>
       <use xlink:href="#DejaVuSans-2e" x="63.623047"/>
       <use xlink:href="#DejaVuSans-32" x="95.410156"/>
      </g>
     </g>
    </g>
    <g id="ytick_5">
     <g id="line2d_13">
      <g>
       <use xlink:href="#m02a66207da" x="72" y="109.017499" style="stroke: #000000; stroke-width: 0.8"/>
      </g>
     </g>
     <g id="text_13">
      <!-- 0.3 -->
      <g transform="translate(49.096875 112.816718) scale(0.1 -0.1)">
       <use xlink:href="#DejaVuSans-30"/>
       <use xlink:href="#DejaVuSans-2e" x="63.623047"/>
       <use xlink:href="#DejaVuSans-33" x="95.410156"/>
      </g>
     </g>
    </g>
    <g id="ytick_6">
     <g id="line2d_14">
      <g>
       <use xlink:href="#m02a66207da" x="72" y="80.933001" style="stroke: #000000; stroke-width: 0.8"/>
      </g>
     </g>
     <g id="text_14">
      <!-- 0.4 -->
      <g transform="translate(49.096875 84.73222) scale(0.1 -0.1)">
       <use xlink:href="#DejaVuSans-30"/>
       <use xlink:href="#DejaVuSans-2e" x="63.623047"/>
       <use xlink:href="#DejaVuSans-34" x="95.410156"/>
      </g>
     </g>
    </g>
    <g id="text_15">
     <!-- Lick Rate -->
     <g transform="translate(34.6375 174.007564) rotate(-90) scale(0.1 -0.1)">
      <defs>
       <path id="DejaVuSans-4c" d="M 628 4666 
L 1259 4666 
L 1259 531 
L 3531 531 
L 3531 0 
L 628 0 
L 628 4666 
z
" transform="scale(0.015625)"/>
       <path id="DejaVuSans-69" d="M 603 3500 
L 1178 3500 
L 1178 0 
L 603 0 
L 603 3500 
z
M 603 4863 
L 1178 4863 
L 1178 4134 
L 603 4134 
L 603 4863 
z
" transform="scale(0.015625)"/>
       <path id="DejaVuSans-63" d="M 3122 3366 
L 3122 2828 
Q 2878 2963 2633 3030 
Q 2388 3097 2138 3097 
Q 1578 3097 1268 2742 
Q 959 2388 959 1747 
Q 959 1106 1268 751 
Q 1578 397 2138 397 
Q 2388 397 2633 464 
Q 2878 531 3122 666 
L 3122 134 
Q 2881 22 2623 -34 
Q 2366 -91 2075 -91 
Q 1284 -91 818 406 
Q 353 903 353 1747 
Q 353 2603 823 3093 
Q 1294 3584 2113 3584 
Q 2378 3584 2631 3529 
Q 2884 3475 3122 3366 
z
" transform="scale(0.015625)"/>
       <path id="DejaVuSans-6b" d="M 581 4863 
L 1159 4863 
L 1159 1991 
L 2875 3500 
L 3609 3500 
L 1753 1863 
L 3688 0 
L 2938 0 
L 1159 1709 
L 1159 0 
L 581 0 
L 581 4863 
z
" transform="scale(0.015625)"/>
       <path id="DejaVuSans-20" transform="scale(0.015625)"/>
       <path id="DejaVuSans-52" d="M 2841 2188 
Q 3044 2119 3236 1894 
Q 3428 1669 3622 1275 
L 4263 0 
L 3584 0 
L 2988 1197 
Q 2756 1666 2539 1819 
Q 2322 1972 1947 1972 
L 1259 1972 
L 1259 0 
L 628 0 
L 628 4666 
L 2053 4666 
Q 2853 4666 3247 4331 
Q 3641 3997 3641 3322 
Q 3641 2881 3436 2590 
Q 3231 2300 2841 2188 
z
M 1259 4147 
L 1259 2491 
L 2053 2491 
Q 2509 2491 2742 2702 
Q 2975 2913 2975 3322 
Q 2975 3731 2742 3939 
Q 2509 4147 2053 4147 
L 1259 4147 
z
" transform="scale(0.015625)"/>
       <path id="DejaVuSans-61" d="M 2194 1759 
Q 1497 1759 1228 1600 
Q 959 1441 959 1056 
Q 959 750 1161 570 
Q 1363 391 1709 391 
Q 2188 391 2477 730 
Q 2766 1069 2766 1631 
L 2766 1759 
L 2194 1759 
z
M 3341 1997 
L 3341 0 
L 2766 0 
L 2766 531 
Q 2569 213 2275 61 
Q 1981 -91 1556 -91 
Q 1019 -91 701 211 
Q 384 513 384 1019 
Q 384 1609 779 1909 
Q 1175 2209 1959 2209 
L 2766 2209 
L 2766 2266 
Q 2766 2663 2505 2880 
Q 2244 3097 1772 3097 
Q 1472 3097 1187 3025 
Q 903 2953 641 2809 
L 641 3341 
Q 956 3463 1253 3523 
Q 1550 3584 1831 3584 
Q 2591 3584 2966 3190 
Q 3341 2797 3341 1997 
z
" transform="scale(0.015625)"/>
       <path id="DejaVuSans-74" d="M 1172 4494 
L 1172 3500 
L 2356 3500 
L 2356 3053 
L 1172 3053 
L 1172 1153 
Q 1172 725 1289 603 
Q 1406 481 1766 481 
L 2356 481 
L 2356 0 
L 1766 0 
Q 1100 0 847 248 
Q 594 497 594 1153 
L 594 3053 
L 172 3053 
L 172 3500 
L 594 3500 
L 594 4494 
L 1172 4494 
z
" transform="scale(0.015625)"/>
       <path id="DejaVuSans-65" d="M 3597 1894 
L 3597 1613 
L 953 1613 
Q 991 1019 1311 708 
Q 1631 397 2203 397 
Q 2534 397 2845 478 
Q 3156 559 3463 722 
L 3463 178 
Q 3153 47 2828 -22 
Q 2503 -91 2169 -91 
Q 1331 -91 842 396 
Q 353 884 353 1716 
Q 353 2575 817 3079 
Q 1281 3584 2069 3584 
Q 2775 3584 3186 3129 
Q 3597 2675 3597 1894 
z
M 3022 2063 
Q 3016 2534 2758 2815 
Q 2500 3097 2075 3097 
Q 1594 3097 1305 2825 
Q 1016 2553 972 2059 
L 3022 2063 
z
" transform="scale(0.015625)"/>
      </defs>
      <use xlink:href="#DejaVuSans-4c"/>
      <use xlink:href="#DejaVuSans-69" x="55.712891"/>
      <use xlink:href="#DejaVuSans-63" x="83.496094"/>
      <use xlink:href="#DejaVuSans-6b" x="138.476562"/>
      <use xlink:href="#DejaVuSans-20" x="196.386719"/>
      <use xlink:href="#DejaVuSans-52" x="228.173828"/>
      <use xlink:href="#DejaVuSans-61" x="295.40625"/>
      <use xlink:href="#DejaVuSans-74" x="356.685547"/>
      <use xlink:href="#DejaVuSans-65" x="395.894531"/>
     </g>
    </g>
   </g>
   <g id="line2d_15">
    <path d="M 92.290909 206.792169 
L 104.226738 197.21878 
L 116.162567 175.802031 
L 128.098396 173.978057 
L 140.034225 174.149947 
L 151.970053 164.657814 
L 163.905882 157.426398 
L 175.841711 153.839431 
L 187.77754 136.34568 
L 199.713369 132.150016 
L 211.649198 128.452037 
L 223.585027 139.053446 
L 235.520856 152.033978 
L 247.456684 128.430153 
L 259.392513 115.93228 
L 271.328342 104.846593 
L 283.264171 100.989243 
L 295.2 107.945807 
L 307.135829 113.150501 
L 319.071658 106.553177 
L 331.007487 101.164961 
L 342.943316 116.348103 
L 354.879144 134.255161 
L 366.814973 130.320033 
L 378.750802 142.659551 
L 390.686631 157.155455 
L 402.62246 142.648144 
L 414.558289 151.479636 
L 426.494118 173.359388 
L 438.429947 182.681907 
L 450.365775 174.433896 
L 462.301604 168.041674 
L 474.237433 170.953411 
L 486.173262 184.82533 
L 498.109091 197.941974 
" clip-path="url(#paeadde1489)" style="fill: none; stroke: #7f7f7f; stroke-width: 1.5; stroke-linecap: square"/>
   </g>
   <g id="line2d_16">
    <path d="M 92.290909 203.913464 
L 104.226738 188.350947 
L 116.162567 187.548569 
L 128.098396 182.447638 
L 140.034225 171.679348 
L 151.970053 172.898606 
L 163.905882 170.673171 
L 175.841711 162.541661 
L 187.77754 159.583216 
L 199.713369 157.391099 
L 211.649198 136.312048 
L 223.585027 143.315642 
L 235.520856 151.220185 
L 247.456684 140.486232 
L 259.392513 132.382029 
L 271.328342 121.202774 
L 283.264171 122.05083 
L 295.2 121.025634 
L 307.135829 124.977014 
L 319.071658 130.82889 
L 331.007487 122.103505 
L 342.943316 114.750192 
L 354.879144 139.407961 
L 366.814973 147.468669 
L 378.750802 143.562398 
L 390.686631 150.188088 
L 402.62246 159.087969 
L 414.558289 163.247631 
L 426.494118 153.348954 
L 438.429947 158.622051 
L 450.365775 170.848718 
L 462.301604 187.380715 
L 474.237433 188.827721 
L 486.173262 175.383902 
L 498.109091 178.47098 
" clip-path="url(#paeadde1489)" style="fill: none; stroke: #17becf; stroke-width: 1.5; stroke-linecap: square"/>
   </g>
   <g id="line2d_17"/>
   <g id="line2d_18"/>
   <g id="patch_3">
    <path d="M 72 224.512941 
L 72 77.76 
" style="fill: none; stroke: #000000; stroke-width: 0.8; stroke-linejoin: miter; stroke-linecap: square"/>
   </g>
   <g id="patch_4">
    <path d="M 72 224.512941 
L 518.4 224.512941 
" style="fill: none; stroke: #000000; stroke-width: 0.8; stroke-linejoin: miter; stroke-linecap: square"/>
   </g>
   <g id="text_16">
    <!-- X10 -->
    <g transform="translate(280.51875 71.76) scale(0.15 -0.15)">
     <defs>
      <path id="DejaVuSans-58" d="M 403 4666 
L 1081 4666 
L 2241 2931 
L 3406 4666 
L 4084 4666 
L 2584 2425 
L 4184 0 
L 3506 0 
L 2194 1984 
L 872 0 
L 191 0 
L 1856 2491 
L 403 4666 
z
" transform="scale(0.015625)"/>
     </defs>
     <use xlink:href="#DejaVuSans-58"/>
     <use xlink:href="#DejaVuSans-31" x="68.505859"/>
     <use xlink:href="#DejaVuSans-30" x="132.128906"/>
    </g>
   </g>
  </g>
  <g id="axes_2">
   <g id="patch_5">
    <path d="M 72 400.616471 
L 518.4 400.616471 
L 518.4 253.863529 
L 72 253.863529 
z
" style="fill: #ffffff"/>
   </g>
   <g id="PolyCollection_3">
    <defs>
     <path id="m1a05c41bd7" d="M 92.290909 -387.465882 
L 92.290909 -380.736895 
L 104.226738 -376.226309 
L 116.162567 -368.986623 
L 128.098396 -361.91749 
L 140.034225 -355.262091 
L 151.970053 -349.96112 
L 163.905882 -344.744993 
L 175.841711 -340.372265 
L 187.77754 -339.911646 
L 199.713369 -339.592053 
L 211.649198 -330.130244 
L 223.585027 -316.636712 
L 235.520856 -305.863648 
L 247.456684 -299.266038 
L 259.392513 -286.082452 
L 271.328342 -264.253402 
L 283.264171 -254.054118 
L 295.2 -256.94101 
L 307.135829 -260.417371 
L 319.071658 -263.073833 
L 331.007487 -264.981371 
L 342.943316 -265.476826 
L 354.879144 -266.574821 
L 366.814973 -266.05499 
L 378.750802 -263.263756 
L 390.686631 -265.987733 
L 402.62246 -274.165525 
L 414.558289 -283.70281 
L 426.494118 -293.745789 
L 438.429947 -304.858099 
L 450.365775 -314.032818 
L 462.301604 -320.39142 
L 474.237433 -327.489191 
L 486.173262 -333.732053 
L 498.109091 -342.267849 
L 498.109091 -372.1429 
L 498.109091 -372.1429 
L 486.173262 -363.955089 
L 474.237433 -357.173773 
L 462.301604 -353.128779 
L 450.365775 -345.376692 
L 438.429947 -333.904082 
L 426.494118 -322.557435 
L 414.558289 -310.995443 
L 402.62246 -298.183843 
L 390.686631 -286.421765 
L 378.750802 -283.333719 
L 366.814973 -286.39658 
L 354.879144 -286.495805 
L 342.943316 -286.332908 
L 331.007487 -283.909489 
L 319.071658 -282.00856 
L 307.135829 -278.852654 
L 295.2 -274.673076 
L 283.264171 -272.939007 
L 271.328342 -284.890987 
L 259.392513 -308.995181 
L 247.456684 -322.348046 
L 235.520856 -327.693372 
L 223.585027 -338.321241 
L 211.649198 -352.991921 
L 199.713369 -363.535917 
L 187.77754 -364.633442 
L 175.841711 -362.874329 
L 163.905882 -364.62179 
L 151.970053 -368.051399 
L 140.034225 -370.44392 
L 128.098396 -373.227261 
L 116.162567 -375.655343 
L 104.226738 -378.507011 
L 92.290909 -387.465882 
z
" style="stroke: #7f7f7f; stroke-opacity: 0.2"/>
    </defs>
    <g clip-path="url(#pf9f341d048)">
     <use xlink:href="#m1a05c41bd7" x="0" y="648" style="fill: #7f7f7f; fill-opacity: 0.2; stroke: #7f7f7f; stroke-opacity: 0.2"/>
    </g>
   </g>
   <g id="PolyCollection_4">
    <defs>
     <path id="m09e9ca99b5" d="M 92.290909 -384.879713 
L 92.290909 -377.968216 
L 104.226738 -375.859533 
L 116.162567 -371.65574 
L 128.098396 -367.618428 
L 140.034225 -361.389456 
L 151.970053 -355.331955 
L 163.905882 -350.539559 
L 175.841711 -349.064225 
L 187.77754 -347.670926 
L 199.713369 -343.265741 
L 211.649198 -336.994012 
L 223.585027 -328.524741 
L 235.520856 -319.022072 
L 247.456684 -312.198415 
L 259.392513 -297.930021 
L 271.328342 -276.786941 
L 283.264171 -268.103097 
L 295.2 -272.379094 
L 307.135829 -274.754118 
L 319.071658 -275.889138 
L 331.007487 -279.113387 
L 342.943316 -281.792203 
L 354.879144 -280.650874 
L 366.814973 -279.241509 
L 378.750802 -278.296277 
L 390.686631 -279.742016 
L 402.62246 -281.001449 
L 414.558289 -282.863669 
L 426.494118 -288.560665 
L 438.429947 -298.425511 
L 450.365775 -304.969301 
L 462.301604 -311.979091 
L 474.237433 -318.971388 
L 486.173262 -326.282149 
L 498.109091 -333.252559 
L 498.109091 -370.02457 
L 498.109091 -370.02457 
L 486.173262 -360.01629 
L 474.237433 -350.987904 
L 462.301604 -344.315762 
L 450.365775 -338.11163 
L 438.429947 -329.171281 
L 426.494118 -320.272489 
L 414.558289 -310.618786 
L 402.62246 -306.186307 
L 390.686631 -303.85333 
L 378.750802 -302.203881 
L 366.814973 -302.474653 
L 354.879144 -303.570196 
L 342.943316 -304.392183 
L 331.007487 -302.577934 
L 319.071658 -299.039599 
L 307.135829 -295.960568 
L 295.2 -293.337908 
L 283.264171 -291.086591 
L 271.328342 -299.716789 
L 259.392513 -322.584974 
L 247.456684 -335.935488 
L 235.520856 -342.169217 
L 223.585027 -352.01306 
L 211.649198 -362.726889 
L 199.713369 -368.095882 
L 187.77754 -370.74583 
L 175.841711 -372.52938 
L 163.905882 -374.050564 
L 151.970053 -375.425352 
L 140.034225 -379.390783 
L 128.098396 -381.607381 
L 116.162567 -379.431801 
L 104.226738 -378.412634 
L 92.290909 -384.879713 
z
" style="stroke: #17becf; stroke-opacity: 0.2"/>
    </defs>
    <g clip-path="url(#pf9f341d048)">
     <use xlink:href="#m09e9ca99b5" x="0" y="648" style="fill: #17becf; fill-opacity: 0.2; stroke: #17becf; stroke-opacity: 0.2"/>
    </g>
   </g>
   <g id="matplotlib.axis_3">
    <g id="xtick_9">
     <g id="line2d_19">
      <g>
       <use xlink:href="#mad888ef611" x="80.35508" y="400.616471" style="stroke: #000000; stroke-width: 0.8"/>
      </g>
     </g>
     <g id="text_17">
      <!-- −2 -->
      <g transform="translate(72.983986 415.214908) scale(0.1 -0.1)">
       <use xlink:href="#DejaVuSans-2212"/>
       <use xlink:href="#DejaVuSans-32" x="83.789062"/>
      </g>
     </g>
    </g>
    <g id="xtick_10">
     <g id="line2d_20">
      <g>
       <use xlink:href="#mad888ef611" x="140.034225" y="400.616471" style="stroke: #000000; stroke-width: 0.8"/>
      </g>
     </g>
     <g id="text_18">
      <!-- −1 -->
      <g transform="translate(132.663131 415.214908) scale(0.1 -0.1)">
       <use xlink:href="#DejaVuSans-2212"/>
       <use xlink:href="#DejaVuSans-31" x="83.789062"/>
      </g>
     </g>
    </g>
    <g id="xtick_11">
     <g id="line2d_21">
      <g>
       <use xlink:href="#mad888ef611" x="199.713369" y="400.616471" style="stroke: #000000; stroke-width: 0.8"/>
      </g>
     </g>
     <g id="text_19">
      <!-- 0 -->
      <g transform="translate(196.532119 415.214908) scale(0.1 -0.1)">
       <use xlink:href="#DejaVuSans-30"/>
      </g>
     </g>
    </g>
    <g id="xtick_12">
     <g id="line2d_22">
      <g>
       <use xlink:href="#mad888ef611" x="259.392513" y="400.616471" style="stroke: #000000; stroke-width: 0.8"/>
      </g>
     </g>
     <g id="text_20">
      <!-- 1 -->
      <g transform="translate(256.211263 415.214908) scale(0.1 -0.1)">
       <use xlink:href="#DejaVuSans-31"/>
      </g>
     </g>
    </g>
    <g id="xtick_13">
     <g id="line2d_23">
      <g>
       <use xlink:href="#mad888ef611" x="319.071658" y="400.616471" style="stroke: #000000; stroke-width: 0.8"/>
      </g>
     </g>
     <g id="text_21">
      <!-- 2 -->
      <g transform="translate(315.890408 415.214908) scale(0.1 -0.1)">
       <use xlink:href="#DejaVuSans-32"/>
      </g>
     </g>
    </g>
    <g id="xtick_14">
     <g id="line2d_24">
      <g>
       <use xlink:href="#mad888ef611" x="378.750802" y="400.616471" style="stroke: #000000; stroke-width: 0.8"/>
      </g>
     </g>
     <g id="text_22">
      <!-- 3 -->
      <g transform="translate(375.569552 415.214908) scale(0.1 -0.1)">
       <use xlink:href="#DejaVuSans-33"/>
      </g>
     </g>
    </g>
    <g id="xtick_15">
     <g id="line2d_25">
      <g>
       <use xlink:href="#mad888ef611" x="438.429947" y="400.616471" style="stroke: #000000; stroke-width: 0.8"/>
      </g>
     </g>
     <g id="text_23">
      <!-- 4 -->
      <g transform="translate(435.248697 415.214908) scale(0.1 -0.1)">
       <use xlink:href="#DejaVuSans-34"/>
      </g>
     </g>
    </g>
    <g id="xtick_16">
     <g id="line2d_26">
      <g>
       <use xlink:href="#mad888ef611" x="498.109091" y="400.616471" style="stroke: #000000; stroke-width: 0.8"/>
      </g>
     </g>
     <g id="text_24">
      <!-- 5 -->
      <g transform="translate(494.927841 415.214908) scale(0.1 -0.1)">
       <use xlink:href="#DejaVuSans-35"/>
      </g>
     </g>
    </g>
   </g>
   <g id="matplotlib.axis_4">
    <g id="ytick_7">
     <g id="line2d_27">
      <g>
       <use xlink:href="#m02a66207da" x="72" y="382.457388" style="stroke: #000000; stroke-width: 0.8"/>
      </g>
     </g>
     <g id="text_25">
      <!-- −0.6 -->
      <g transform="translate(40.717187 386.256607) scale(0.1 -0.1)">
       <defs>
        <path id="DejaVuSans-36" d="M 2113 2584 
Q 1688 2584 1439 2293 
Q 1191 2003 1191 1497 
Q 1191 994 1439 701 
Q 1688 409 2113 409 
Q 2538 409 2786 701 
Q 3034 994 3034 1497 
Q 3034 2003 2786 2293 
Q 2538 2584 2113 2584 
z
M 3366 4563 
L 3366 3988 
Q 3128 4100 2886 4159 
Q 2644 4219 2406 4219 
Q 1781 4219 1451 3797 
Q 1122 3375 1075 2522 
Q 1259 2794 1537 2939 
Q 1816 3084 2150 3084 
Q 2853 3084 3261 2657 
Q 3669 2231 3669 1497 
Q 3669 778 3244 343 
Q 2819 -91 2113 -91 
Q 1303 -91 875 529 
Q 447 1150 447 2328 
Q 447 3434 972 4092 
Q 1497 4750 2381 4750 
Q 2619 4750 2861 4703 
Q 3103 4656 3366 4563 
z
" transform="scale(0.015625)"/>
       </defs>
       <use xlink:href="#DejaVuSans-2212"/>
       <use xlink:href="#DejaVuSans-30" x="83.789062"/>
       <use xlink:href="#DejaVuSans-2e" x="147.412109"/>
       <use xlink:href="#DejaVuSans-36" x="179.199219"/>
      </g>
     </g>
    </g>
    <g id="ytick_8">
     <g id="line2d_28">
      <g>
       <use xlink:href="#m02a66207da" x="72" y="344.973839" style="stroke: #000000; stroke-width: 0.8"/>
      </g>
     </g>
     <g id="text_26">
      <!-- −0.4 -->
      <g transform="translate(40.717187 348.773058) scale(0.1 -0.1)">
       <use xlink:href="#DejaVuSans-2212"/>
       <use xlink:href="#DejaVuSans-30" x="83.789062"/>
       <use xlink:href="#DejaVuSans-2e" x="147.412109"/>
       <use xlink:href="#DejaVuSans-34" x="179.199219"/>
      </g>
     </g>
    </g>
    <g id="ytick_9">
     <g id="line2d_29">
      <g>
       <use xlink:href="#m02a66207da" x="72" y="307.49029" style="stroke: #000000; stroke-width: 0.8"/>
      </g>
     </g>
     <g id="text_27">
      <!-- −0.2 -->
      <g transform="translate(40.717187 311.289509) scale(0.1 -0.1)">
       <use xlink:href="#DejaVuSans-2212"/>
       <use xlink:href="#DejaVuSans-30" x="83.789062"/>
       <use xlink:href="#DejaVuSans-2e" x="147.412109"/>
       <use xlink:href="#DejaVuSans-32" x="179.199219"/>
      </g>
     </g>
    </g>
    <g id="ytick_10">
     <g id="line2d_30">
      <g>
       <use xlink:href="#m02a66207da" x="72" y="270.006741" style="stroke: #000000; stroke-width: 0.8"/>
      </g>
     </g>
     <g id="text_28">
      <!-- 0.0 -->
      <g transform="translate(49.096875 273.80596) scale(0.1 -0.1)">
       <use xlink:href="#DejaVuSans-30"/>
       <use xlink:href="#DejaVuSans-2e" x="63.623047"/>
       <use xlink:href="#DejaVuSans-30" x="95.410156"/>
      </g>
     </g>
    </g>
    <g id="text_29">
     <!-- Velocity -->
     <g transform="translate(34.6375 346.855625) rotate(-90) scale(0.1 -0.1)">
      <defs>
       <path id="DejaVuSans-56" d="M 1831 0 
L 50 4666 
L 709 4666 
L 2188 738 
L 3669 4666 
L 4325 4666 
L 2547 0 
L 1831 0 
z
" transform="scale(0.015625)"/>
       <path id="DejaVuSans-6c" d="M 603 4863 
L 1178 4863 
L 1178 0 
L 603 0 
L 603 4863 
z
" transform="scale(0.015625)"/>
       <path id="DejaVuSans-6f" d="M 1959 3097 
Q 1497 3097 1228 2736 
Q 959 2375 959 1747 
Q 959 1119 1226 758 
Q 1494 397 1959 397 
Q 2419 397 2687 759 
Q 2956 1122 2956 1747 
Q 2956 2369 2687 2733 
Q 2419 3097 1959 3097 
z
M 1959 3584 
Q 2709 3584 3137 3096 
Q 3566 2609 3566 1747 
Q 3566 888 3137 398 
Q 2709 -91 1959 -91 
Q 1206 -91 779 398 
Q 353 888 353 1747 
Q 353 2609 779 3096 
Q 1206 3584 1959 3584 
z
" transform="scale(0.015625)"/>
       <path id="DejaVuSans-79" d="M 2059 -325 
Q 1816 -950 1584 -1140 
Q 1353 -1331 966 -1331 
L 506 -1331 
L 506 -850 
L 844 -850 
Q 1081 -850 1212 -737 
Q 1344 -625 1503 -206 
L 1606 56 
L 191 3500 
L 800 3500 
L 1894 763 
L 2988 3500 
L 3597 3500 
L 2059 -325 
z
" transform="scale(0.015625)"/>
      </defs>
      <use xlink:href="#DejaVuSans-56"/>
      <use xlink:href="#DejaVuSans-65" x="60.658203"/>
      <use xlink:href="#DejaVuSans-6c" x="122.181641"/>
      <use xlink:href="#DejaVuSans-6f" x="149.964844"/>
      <use xlink:href="#DejaVuSans-63" x="211.146484"/>
      <use xlink:href="#DejaVuSans-69" x="266.126953"/>
      <use xlink:href="#DejaVuSans-74" x="293.910156"/>
      <use xlink:href="#DejaVuSans-79" x="333.119141"/>
     </g>
    </g>
   </g>
   <g id="line2d_31">
    <path d="M 92.290909 263.881604 
L 104.226738 270.593081 
L 116.162567 275.54554 
L 128.098396 280.84344 
L 140.034225 285.582157 
L 151.970053 288.628137 
L 163.905882 292.538906 
L 175.841711 296.360434 
L 187.77754 296.009429 
L 199.713369 297.04901 
L 211.649198 307.162017 
L 223.585027 321.089693 
L 235.520856 331.201808 
L 247.456684 337.447132 
L 259.392513 351.179145 
L 271.328342 373.786908 
L 283.264171 384.804272 
L 295.2 382.284127 
L 307.135829 378.555869 
L 319.071658 375.715569 
L 331.007487 373.421672 
L 342.943316 372.231721 
L 354.879144 371.495684 
L 366.814973 372.204522 
L 378.750802 374.805496 
L 390.686631 372.103154 
L 402.62246 361.871494 
L 414.558289 350.235953 
L 426.494118 340.044261 
L 438.429947 328.875875 
L 450.365775 318.919114 
L 462.301604 311.951955 
L 474.237433 305.661565 
L 486.173262 299.362589 
L 498.109091 291.203138 
" clip-path="url(#pf9f341d048)" style="fill: none; stroke: #7f7f7f; stroke-width: 1.5; stroke-linecap: square"/>
   </g>
   <g id="line2d_32">
    <path d="M 92.290909 266.755581 
L 104.226738 270.749567 
L 116.162567 272.515076 
L 128.098396 273.559839 
L 140.034225 277.636114 
L 151.970053 282.419381 
L 163.905882 285.724317 
L 175.841711 287.065058 
L 187.77754 288.61046 
L 199.713369 292.268856 
L 211.649198 298.423112 
L 223.585027 308.355114 
L 235.520856 317.880399 
L 247.456684 323.907345 
L 259.392513 337.70277 
L 271.328342 359.800823 
L 283.264171 368.864405 
L 295.2 365.486599 
L 307.135829 362.99827 
L 319.071658 360.67485 
L 331.007487 357.1486 
L 342.943316 355.371642 
L 354.879144 356.00764 
L 366.814973 357.013999 
L 378.750802 358.043063 
L 390.686631 357.034961 
L 402.62246 354.018934 
L 414.558289 351.315653 
L 426.494118 344.517794 
L 438.429947 334.190587 
L 450.365775 326.62982 
L 462.301604 320.479772 
L 474.237433 313.859346 
L 486.173262 305.486753 
L 498.109091 296.390282 
" clip-path="url(#pf9f341d048)" style="fill: none; stroke: #17becf; stroke-width: 1.5; stroke-linecap: square"/>
   </g>
   <g id="line2d_33"/>
   <g id="line2d_34"/>
   <g id="patch_6">
    <path d="M 72 400.616471 
L 72 253.863529 
" style="fill: none; stroke: #000000; stroke-width: 0.8; stroke-linejoin: miter; stroke-linecap: square"/>
   </g>
   <g id="patch_7">
    <path d="M 72 400.616471 
L 518.4 400.616471 
" style="fill: none; stroke: #000000; stroke-width: 0.8; stroke-linejoin: miter; stroke-linecap: square"/>
   </g>
   <g id="legend_1">
    <g id="patch_8">
     <path d="M 519.667812 305.897904 
L 689.96 305.897904 
Q 691.96 305.897904 691.96 303.897904 
L 691.96 260.863529 
Q 691.96 258.863529 689.96 258.863529 
L 519.667812 258.863529 
Q 517.667812 258.863529 517.667812 260.863529 
L 517.667812 303.897904 
Q 517.667812 305.897904 519.667812 305.897904 
z
" style="fill: #ffffff; opacity: 0.8; stroke: #cccccc; stroke-linejoin: miter"/>
    </g>
    <g id="text_30">
     <!-- Condition -->
     <g transform="translate(580.95375 270.461967) scale(0.1 -0.1)">
      <defs>
       <path id="DejaVuSans-43" d="M 4122 4306 
L 4122 3641 
Q 3803 3938 3442 4084 
Q 3081 4231 2675 4231 
Q 1875 4231 1450 3742 
Q 1025 3253 1025 2328 
Q 1025 1406 1450 917 
Q 1875 428 2675 428 
Q 3081 428 3442 575 
Q 3803 722 4122 1019 
L 4122 359 
Q 3791 134 3420 21 
Q 3050 -91 2638 -91 
Q 1578 -91 968 557 
Q 359 1206 359 2328 
Q 359 3453 968 4101 
Q 1578 4750 2638 4750 
Q 3056 4750 3426 4639 
Q 3797 4528 4122 4306 
z
" transform="scale(0.015625)"/>
       <path id="DejaVuSans-6e" d="M 3513 2113 
L 3513 0 
L 2938 0 
L 2938 2094 
Q 2938 2591 2744 2837 
Q 2550 3084 2163 3084 
Q 1697 3084 1428 2787 
Q 1159 2491 1159 1978 
L 1159 0 
L 581 0 
L 581 3500 
L 1159 3500 
L 1159 2956 
Q 1366 3272 1645 3428 
Q 1925 3584 2291 3584 
Q 2894 3584 3203 3211 
Q 3513 2838 3513 2113 
z
" transform="scale(0.015625)"/>
       <path id="DejaVuSans-64" d="M 2906 2969 
L 2906 4863 
L 3481 4863 
L 3481 0 
L 2906 0 
L 2906 525 
Q 2725 213 2448 61 
Q 2172 -91 1784 -91 
Q 1150 -91 751 415 
Q 353 922 353 1747 
Q 353 2572 751 3078 
Q 1150 3584 1784 3584 
Q 2172 3584 2448 3432 
Q 2725 3281 2906 2969 
z
M 947 1747 
Q 947 1113 1208 752 
Q 1469 391 1925 391 
Q 2381 391 2643 752 
Q 2906 1113 2906 1747 
Q 2906 2381 2643 2742 
Q 2381 3103 1925 3103 
Q 1469 3103 1208 2742 
Q 947 2381 947 1747 
z
" transform="scale(0.015625)"/>
      </defs>
      <use xlink:href="#DejaVuSans-43"/>
      <use xlink:href="#DejaVuSans-6f" x="69.824219"/>
      <use xlink:href="#DejaVuSans-6e" x="131.005859"/>
      <use xlink:href="#DejaVuSans-64" x="194.384766"/>
      <use xlink:href="#DejaVuSans-69" x="257.861328"/>
      <use xlink:href="#DejaVuSans-74" x="285.644531"/>
      <use xlink:href="#DejaVuSans-69" x="324.853516"/>
      <use xlink:href="#DejaVuSans-6f" x="352.636719"/>
      <use xlink:href="#DejaVuSans-6e" x="413.818359"/>
     </g>
    </g>
    <g id="line2d_35">
     <path d="M 521.667812 281.640092 
L 531.667812 281.640092 
L 541.667812 281.640092 
" style="fill: none; stroke: #7f7f7f; stroke-width: 1.5; stroke-linecap: square"/>
    </g>
    <g id="text_31">
     <!-- Ctrl (# trials=130) -->
     <g transform="translate(549.667812 285.140092) scale(0.1 -0.1)">
      <defs>
       <path id="DejaVuSans-72" d="M 2631 2963 
Q 2534 3019 2420 3045 
Q 2306 3072 2169 3072 
Q 1681 3072 1420 2755 
Q 1159 2438 1159 1844 
L 1159 0 
L 581 0 
L 581 3500 
L 1159 3500 
L 1159 2956 
Q 1341 3275 1631 3429 
Q 1922 3584 2338 3584 
Q 2397 3584 2469 3576 
Q 2541 3569 2628 3553 
L 2631 2963 
z
" transform="scale(0.015625)"/>
       <path id="DejaVuSans-28" d="M 1984 4856 
Q 1566 4138 1362 3434 
Q 1159 2731 1159 2009 
Q 1159 1288 1364 580 
Q 1569 -128 1984 -844 
L 1484 -844 
Q 1016 -109 783 600 
Q 550 1309 550 2009 
Q 550 2706 781 3412 
Q 1013 4119 1484 4856 
L 1984 4856 
z
" transform="scale(0.015625)"/>
       <path id="DejaVuSans-23" d="M 3272 2816 
L 2363 2816 
L 2100 1772 
L 3016 1772 
L 3272 2816 
z
M 2803 4594 
L 2478 3297 
L 3391 3297 
L 3719 4594 
L 4219 4594 
L 3897 3297 
L 4872 3297 
L 4872 2816 
L 3775 2816 
L 3519 1772 
L 4513 1772 
L 4513 1294 
L 3397 1294 
L 3072 0 
L 2572 0 
L 2894 1294 
L 1978 1294 
L 1656 0 
L 1153 0 
L 1478 1294 
L 494 1294 
L 494 1772 
L 1594 1772 
L 1856 2816 
L 850 2816 
L 850 3297 
L 1978 3297 
L 2297 4594 
L 2803 4594 
z
" transform="scale(0.015625)"/>
       <path id="DejaVuSans-73" d="M 2834 3397 
L 2834 2853 
Q 2591 2978 2328 3040 
Q 2066 3103 1784 3103 
Q 1356 3103 1142 2972 
Q 928 2841 928 2578 
Q 928 2378 1081 2264 
Q 1234 2150 1697 2047 
L 1894 2003 
Q 2506 1872 2764 1633 
Q 3022 1394 3022 966 
Q 3022 478 2636 193 
Q 2250 -91 1575 -91 
Q 1294 -91 989 -36 
Q 684 19 347 128 
L 347 722 
Q 666 556 975 473 
Q 1284 391 1588 391 
Q 1994 391 2212 530 
Q 2431 669 2431 922 
Q 2431 1156 2273 1281 
Q 2116 1406 1581 1522 
L 1381 1569 
Q 847 1681 609 1914 
Q 372 2147 372 2553 
Q 372 3047 722 3315 
Q 1072 3584 1716 3584 
Q 2034 3584 2315 3537 
Q 2597 3491 2834 3397 
z
" transform="scale(0.015625)"/>
       <path id="DejaVuSans-3d" d="M 678 2906 
L 4684 2906 
L 4684 2381 
L 678 2381 
L 678 2906 
z
M 678 1631 
L 4684 1631 
L 4684 1100 
L 678 1100 
L 678 1631 
z
" transform="scale(0.015625)"/>
       <path id="DejaVuSans-29" d="M 513 4856 
L 1013 4856 
Q 1481 4119 1714 3412 
Q 1947 2706 1947 2009 
Q 1947 1309 1714 600 
Q 1481 -109 1013 -844 
L 513 -844 
Q 928 -128 1133 580 
Q 1338 1288 1338 2009 
Q 1338 2731 1133 3434 
Q 928 4138 513 4856 
z
" transform="scale(0.015625)"/>
      </defs>
      <use xlink:href="#DejaVuSans-43"/>
      <use xlink:href="#DejaVuSans-74" x="69.824219"/>
      <use xlink:href="#DejaVuSans-72" x="109.033203"/>
      <use xlink:href="#DejaVuSans-6c" x="150.146484"/>
      <use xlink:href="#DejaVuSans-20" x="177.929688"/>
      <use xlink:href="#DejaVuSans-28" x="209.716797"/>
      <use xlink:href="#DejaVuSans-23" x="248.730469"/>
      <use xlink:href="#DejaVuSans-20" x="332.519531"/>
      <use xlink:href="#DejaVuSans-74" x="364.306641"/>
      <use xlink:href="#DejaVuSans-72" x="403.515625"/>
      <use xlink:href="#DejaVuSans-69" x="444.628906"/>
      <use xlink:href="#DejaVuSans-61" x="472.412109"/>
      <use xlink:href="#DejaVuSans-6c" x="533.691406"/>
      <use xlink:href="#DejaVuSans-73" x="561.474609"/>
      <use xlink:href="#DejaVuSans-3d" x="613.574219"/>
      <use xlink:href="#DejaVuSans-31" x="697.363281"/>
      <use xlink:href="#DejaVuSans-33" x="760.986328"/>
      <use xlink:href="#DejaVuSans-30" x="824.609375"/>
      <use xlink:href="#DejaVuSans-29" x="888.232422"/>
     </g>
    </g>
    <g id="line2d_36">
     <path d="M 521.667812 296.318217 
L 531.667812 296.318217 
L 541.667812 296.318217 
" style="fill: none; stroke: #17becf; stroke-width: 1.5; stroke-linecap: square"/>
    </g>
    <g id="text_32">
     <!-- Freeze At RZ (# trials=130) -->
     <g transform="translate(549.667812 299.818217) scale(0.1 -0.1)">
      <defs>
       <path id="DejaVuSans-46" d="M 628 4666 
L 3309 4666 
L 3309 4134 
L 1259 4134 
L 1259 2759 
L 3109 2759 
L 3109 2228 
L 1259 2228 
L 1259 0 
L 628 0 
L 628 4666 
z
" transform="scale(0.015625)"/>
       <path id="DejaVuSans-7a" d="M 353 3500 
L 3084 3500 
L 3084 2975 
L 922 459 
L 3084 459 
L 3084 0 
L 275 0 
L 275 525 
L 2438 3041 
L 353 3041 
L 353 3500 
z
" transform="scale(0.015625)"/>
       <path id="DejaVuSans-41" d="M 2188 4044 
L 1331 1722 
L 3047 1722 
L 2188 4044 
z
M 1831 4666 
L 2547 4666 
L 4325 0 
L 3669 0 
L 3244 1197 
L 1141 1197 
L 716 0 
L 50 0 
L 1831 4666 
z
" transform="scale(0.015625)"/>
       <path id="DejaVuSans-5a" d="M 359 4666 
L 4025 4666 
L 4025 4184 
L 1075 531 
L 4097 531 
L 4097 0 
L 288 0 
L 288 481 
L 3238 4134 
L 359 4134 
L 359 4666 
z
" transform="scale(0.015625)"/>
      </defs>
      <use xlink:href="#DejaVuSans-46"/>
      <use xlink:href="#DejaVuSans-72" x="50.269531"/>
      <use xlink:href="#DejaVuSans-65" x="89.132812"/>
      <use xlink:href="#DejaVuSans-65" x="150.65625"/>
      <use xlink:href="#DejaVuSans-7a" x="212.179688"/>
      <use xlink:href="#DejaVuSans-65" x="264.669922"/>
      <use xlink:href="#DejaVuSans-20" x="326.193359"/>
      <use xlink:href="#DejaVuSans-41" x="357.980469"/>
      <use xlink:href="#DejaVuSans-74" x="424.638672"/>
      <use xlink:href="#DejaVuSans-20" x="463.847656"/>
      <use xlink:href="#DejaVuSans-52" x="495.634766"/>
      <use xlink:href="#DejaVuSans-5a" x="565.117188"/>
      <use xlink:href="#DejaVuSans-20" x="633.623047"/>
      <use xlink:href="#DejaVuSans-28" x="665.410156"/>
      <use xlink:href="#DejaVuSans-23" x="704.423828"/>
      <use xlink:href="#DejaVuSans-20" x="788.212891"/>
      <use xlink:href="#DejaVuSans-74" x="820"/>
      <use xlink:href="#DejaVuSans-72" x="859.208984"/>
      <use xlink:href="#DejaVuSans-69" x="900.322266"/>
      <use xlink:href="#DejaVuSans-61" x="928.105469"/>
      <use xlink:href="#DejaVuSans-6c" x="989.384766"/>
      <use xlink:href="#DejaVuSans-73" x="1017.167969"/>
      <use xlink:href="#DejaVuSans-3d" x="1069.267578"/>
      <use xlink:href="#DejaVuSans-31" x="1153.056641"/>
      <use xlink:href="#DejaVuSans-33" x="1216.679688"/>
      <use xlink:href="#DejaVuSans-30" x="1280.302734"/>
      <use xlink:href="#DejaVuSans-29" x="1343.925781"/>
     </g>
    </g>
   </g>
  </g>
  <g id="axes_3">
   <g id="patch_9">
    <path d="M 72 576.72 
L 518.4 576.72 
L 518.4 429.967059 
L 72 429.967059 
z
" style="fill: #ffffff"/>
   </g>
   <g id="PolyCollection_5">
    <defs>
     <path id="m199362f5f4" d="M 92.290909 -188.185055 
L 92.290909 -176.099156 
L 104.226738 -183.65215 
L 116.162567 -184.371936 
L 128.098396 -176.310688 
L 140.034225 -176.220222 
L 151.970053 -175.873272 
L 163.905882 -159.105055 
L 175.841711 -149.600843 
L 187.77754 -146.175064 
L 199.713369 -143.575922 
L 211.649198 -140.008834 
L 223.585027 -135.849103 
L 235.520856 -132.627596 
L 247.456684 -129.482223 
L 259.392513 -125.881793 
L 271.328342 -126.091086 
L 283.264171 -127.946674 
L 295.2 -132.75558 
L 307.135829 -135.652612 
L 319.071658 -139.504638 
L 331.007487 -140.461449 
L 342.943316 -144.276508 
L 354.879144 -155.186814 
L 366.814973 -163.852441 
L 378.750802 -160.97924 
L 390.686631 -158.177089 
L 402.62246 -166.681822 
L 414.558289 -172.6322 
L 426.494118 -179.040884 
L 438.429947 -173.88458 
L 450.365775 -168.615126 
L 462.301604 -167.006059 
L 474.237433 -174.733666 
L 486.173262 -180.568257 
L 498.109091 -182.427025 
L 498.109091 -211.362353 
L 498.109091 -211.362353 
L 486.173262 -208.093692 
L 474.237433 -203.402182 
L 462.301604 -196.243353 
L 450.365775 -197.851627 
L 438.429947 -204.739878 
L 426.494118 -208.09272 
L 414.558289 -204.037753 
L 402.62246 -194.339514 
L 390.686631 -188.229474 
L 378.750802 -191.22278 
L 366.814973 -193.478018 
L 354.879144 -182.093501 
L 342.943316 -172.805449 
L 331.007487 -166.685022 
L 319.071658 -165.168449 
L 307.135829 -162.495812 
L 295.2 -162.00042 
L 283.264171 -159.007586 
L 271.328342 -153.881877 
L 259.392513 -156.229336 
L 247.456684 -158.583934 
L 235.520856 -157.636358 
L 223.585027 -159.692092 
L 211.649198 -163.605125 
L 199.713369 -166.572403 
L 187.77754 -169.929111 
L 175.841711 -173.900793 
L 163.905882 -190.018069 
L 151.970053 -201.548679 
L 140.034225 -201.717768 
L 128.098396 -199.749129 
L 116.162567 -196.747061 
L 104.226738 -190.932542 
L 92.290909 -188.185055 
z
" style="stroke: #7f7f7f; stroke-opacity: 0.2"/>
    </defs>
    <g clip-path="url(#p1d6489fe92)">
     <use xlink:href="#m199362f5f4" x="0" y="648" style="fill: #7f7f7f; fill-opacity: 0.2; stroke: #7f7f7f; stroke-opacity: 0.2"/>
    </g>
   </g>
   <g id="PolyCollection_6">
    <defs>
     <path id="m97b645070e" d="M 92.290909 -198.279232 
L 92.290909 -173.112687 
L 104.226738 -178.624477 
L 116.162567 -176.868911 
L 128.098396 -161.226537 
L 140.034225 -136.631969 
L 151.970053 -127.912995 
L 163.905882 -133.951247 
L 175.841711 -133.205685 
L 187.77754 -120.528813 
L 199.713369 -108.306158 
L 211.649198 -96.559761 
L 223.585027 -87.246551 
L 235.520856 -87.908373 
L 247.456684 -94.710488 
L 259.392513 -91.126716 
L 271.328342 -87.562333 
L 283.264171 -86.949333 
L 295.2 -83.699779 
L 307.135829 -77.950588 
L 319.071658 -83.243754 
L 331.007487 -89.569519 
L 342.943316 -97.916565 
L 354.879144 -97.120571 
L 366.814973 -98.066638 
L 378.750802 -102.402869 
L 390.686631 -110.359062 
L 402.62246 -119.01308 
L 414.558289 -117.169243 
L 426.494118 -115.327709 
L 438.429947 -125.700465 
L 450.365775 -136.112973 
L 462.301604 -122.651895 
L 474.237433 -120.615161 
L 486.173262 -128.110687 
L 498.109091 -137.314826 
L 498.109091 -185.315209 
L 498.109091 -185.315209 
L 486.173262 -177.381937 
L 474.237433 -167.561316 
L 462.301604 -169.058126 
L 450.365775 -188.085098 
L 438.429947 -171.56178 
L 426.494118 -158.058046 
L 414.558289 -165.260808 
L 402.62246 -169.264309 
L 390.686631 -157.696492 
L 378.750802 -151.018398 
L 366.814973 -144.020286 
L 354.879144 -143.240048 
L 342.943316 -142.419737 
L 331.007487 -135.116726 
L 319.071658 -124.571849 
L 307.135829 -121.989458 
L 295.2 -128.712228 
L 283.264171 -133.616991 
L 271.328342 -134.831528 
L 259.392513 -137.767252 
L 247.456684 -139.225404 
L 235.520856 -129.728384 
L 223.585027 -126.790696 
L 211.649198 -133.396347 
L 199.713369 -148.936594 
L 187.77754 -156.776193 
L 175.841711 -172.949288 
L 163.905882 -175.947144 
L 151.970053 -165.039709 
L 140.034225 -175.192219 
L 128.098396 -191.222481 
L 116.162567 -201.476301 
L 104.226738 -192.30937 
L 92.290909 -198.279232 
z
" style="stroke: #17becf; stroke-opacity: 0.2"/>
    </defs>
    <g clip-path="url(#p1d6489fe92)">
     <use xlink:href="#m97b645070e" x="0" y="648" style="fill: #17becf; fill-opacity: 0.2; stroke: #17becf; stroke-opacity: 0.2"/>
    </g>
   </g>
   <g id="matplotlib.axis_5">
    <g id="xtick_17">
     <g id="line2d_37">
      <g>
       <use xlink:href="#mad888ef611" x="80.35508" y="576.72" style="stroke: #000000; stroke-width: 0.8"/>
      </g>
     </g>
     <g id="text_33">
      <!-- −2 -->
      <g transform="translate(72.983986 591.318438) scale(0.1 -0.1)">
       <use xlink:href="#DejaVuSans-2212"/>
       <use xlink:href="#DejaVuSans-32" x="83.789062"/>
      </g>
     </g>
    </g>
    <g id="xtick_18">
     <g id="line2d_38">
      <g>
       <use xlink:href="#mad888ef611" x="140.034225" y="576.72" style="stroke: #000000; stroke-width: 0.8"/>
      </g>
     </g>
     <g id="text_34">
      <!-- −1 -->
      <g transform="translate(132.663131 591.318438) scale(0.1 -0.1)">
       <use xlink:href="#DejaVuSans-2212"/>
       <use xlink:href="#DejaVuSans-31" x="83.789062"/>
      </g>
     </g>
    </g>
    <g id="xtick_19">
     <g id="line2d_39">
      <g>
       <use xlink:href="#mad888ef611" x="199.713369" y="576.72" style="stroke: #000000; stroke-width: 0.8"/>
      </g>
     </g>
     <g id="text_35">
      <!-- 0 -->
      <g transform="translate(196.532119 591.318438) scale(0.1 -0.1)">
       <use xlink:href="#DejaVuSans-30"/>
      </g>
     </g>
    </g>
    <g id="xtick_20">
     <g id="line2d_40">
      <g>
       <use xlink:href="#mad888ef611" x="259.392513" y="576.72" style="stroke: #000000; stroke-width: 0.8"/>
      </g>
     </g>
     <g id="text_36">
      <!-- 1 -->
      <g transform="translate(256.211263 591.318438) scale(0.1 -0.1)">
       <use xlink:href="#DejaVuSans-31"/>
      </g>
     </g>
    </g>
    <g id="xtick_21">
     <g id="line2d_41">
      <g>
       <use xlink:href="#mad888ef611" x="319.071658" y="576.72" style="stroke: #000000; stroke-width: 0.8"/>
      </g>
     </g>
     <g id="text_37">
      <!-- 2 -->
      <g transform="translate(315.890408 591.318438) scale(0.1 -0.1)">
       <use xlink:href="#DejaVuSans-32"/>
      </g>
     </g>
    </g>
    <g id="xtick_22">
     <g id="line2d_42">
      <g>
       <use xlink:href="#mad888ef611" x="378.750802" y="576.72" style="stroke: #000000; stroke-width: 0.8"/>
      </g>
     </g>
     <g id="text_38">
      <!-- 3 -->
      <g transform="translate(375.569552 591.318438) scale(0.1 -0.1)">
       <use xlink:href="#DejaVuSans-33"/>
      </g>
     </g>
    </g>
    <g id="xtick_23">
     <g id="line2d_43">
      <g>
       <use xlink:href="#mad888ef611" x="438.429947" y="576.72" style="stroke: #000000; stroke-width: 0.8"/>
      </g>
     </g>
     <g id="text_39">
      <!-- 4 -->
      <g transform="translate(435.248697 591.318438) scale(0.1 -0.1)">
       <use xlink:href="#DejaVuSans-34"/>
      </g>
     </g>
    </g>
    <g id="xtick_24">
     <g id="line2d_44">
      <g>
       <use xlink:href="#mad888ef611" x="498.109091" y="576.72" style="stroke: #000000; stroke-width: 0.8"/>
      </g>
     </g>
     <g id="text_40">
      <!-- 5 -->
      <g transform="translate(494.927841 591.318438) scale(0.1 -0.1)">
       <use xlink:href="#DejaVuSans-35"/>
      </g>
     </g>
    </g>
    <g id="text_41">
     <!-- Time to RZ (s) -->
     <g transform="translate(259.774219 604.996562) scale(0.1 -0.1)">
      <defs>
       <path id="DejaVuSans-54" d="M -19 4666 
L 3928 4666 
L 3928 4134 
L 2272 4134 
L 2272 0 
L 1638 0 
L 1638 4134 
L -19 4134 
L -19 4666 
z
" transform="scale(0.015625)"/>
       <path id="DejaVuSans-6d" d="M 3328 2828 
Q 3544 3216 3844 3400 
Q 4144 3584 4550 3584 
Q 5097 3584 5394 3201 
Q 5691 2819 5691 2113 
L 5691 0 
L 5113 0 
L 5113 2094 
Q 5113 2597 4934 2840 
Q 4756 3084 4391 3084 
Q 3944 3084 3684 2787 
Q 3425 2491 3425 1978 
L 3425 0 
L 2847 0 
L 2847 2094 
Q 2847 2600 2669 2842 
Q 2491 3084 2119 3084 
Q 1678 3084 1418 2786 
Q 1159 2488 1159 1978 
L 1159 0 
L 581 0 
L 581 3500 
L 1159 3500 
L 1159 2956 
Q 1356 3278 1631 3431 
Q 1906 3584 2284 3584 
Q 2666 3584 2933 3390 
Q 3200 3197 3328 2828 
z
" transform="scale(0.015625)"/>
      </defs>
      <use xlink:href="#DejaVuSans-54"/>
      <use xlink:href="#DejaVuSans-69" x="57.958984"/>
      <use xlink:href="#DejaVuSans-6d" x="85.742188"/>
      <use xlink:href="#DejaVuSans-65" x="183.154297"/>
      <use xlink:href="#DejaVuSans-20" x="244.677734"/>
      <use xlink:href="#DejaVuSans-74" x="276.464844"/>
      <use xlink:href="#DejaVuSans-6f" x="315.673828"/>
      <use xlink:href="#DejaVuSans-20" x="376.855469"/>
      <use xlink:href="#DejaVuSans-52" x="408.642578"/>
      <use xlink:href="#DejaVuSans-5a" x="478.125"/>
      <use xlink:href="#DejaVuSans-20" x="546.630859"/>
      <use xlink:href="#DejaVuSans-28" x="578.417969"/>
      <use xlink:href="#DejaVuSans-73" x="617.431641"/>
      <use xlink:href="#DejaVuSans-29" x="669.53125"/>
     </g>
    </g>
   </g>
   <g id="matplotlib.axis_6">
    <g id="ytick_11">
     <g id="line2d_45">
      <g>
       <use xlink:href="#m02a66207da" x="72" y="570.628834" style="stroke: #000000; stroke-width: 0.8"/>
      </g>
     </g>
     <g id="text_42">
      <!-- −0.25 -->
      <g transform="translate(34.354687 574.428052) scale(0.1 -0.1)">
       <use xlink:href="#DejaVuSans-2212"/>
       <use xlink:href="#DejaVuSans-30" x="83.789062"/>
       <use xlink:href="#DejaVuSans-2e" x="147.412109"/>
       <use xlink:href="#DejaVuSans-32" x="179.199219"/>
       <use xlink:href="#DejaVuSans-35" x="242.822266"/>
      </g>
     </g>
    </g>
    <g id="ytick_12">
     <g id="line2d_46">
      <g>
       <use xlink:href="#m02a66207da" x="72" y="548.778118" style="stroke: #000000; stroke-width: 0.8"/>
      </g>
     </g>
     <g id="text_43">
      <!-- −0.20 -->
      <g transform="translate(34.354687 552.577337) scale(0.1 -0.1)">
       <use xlink:href="#DejaVuSans-2212"/>
       <use xlink:href="#DejaVuSans-30" x="83.789062"/>
       <use xlink:href="#DejaVuSans-2e" x="147.412109"/>
       <use xlink:href="#DejaVuSans-32" x="179.199219"/>
       <use xlink:href="#DejaVuSans-30" x="242.822266"/>
      </g>
     </g>
    </g>
    <g id="ytick_13">
     <g id="line2d_47">
      <g>
       <use xlink:href="#m02a66207da" x="72" y="526.927403" style="stroke: #000000; stroke-width: 0.8"/>
      </g>
     </g>
     <g id="text_44">
      <!-- −0.15 -->
      <g transform="translate(34.354687 530.726622) scale(0.1 -0.1)">
       <use xlink:href="#DejaVuSans-2212"/>
       <use xlink:href="#DejaVuSans-30" x="83.789062"/>
       <use xlink:href="#DejaVuSans-2e" x="147.412109"/>
       <use xlink:href="#DejaVuSans-31" x="179.199219"/>
       <use xlink:href="#DejaVuSans-35" x="242.822266"/>
      </g>
     </g>
    </g>
    <g id="ytick_14">
     <g id="line2d_48">
      <g>
       <use xlink:href="#m02a66207da" x="72" y="505.076688" style="stroke: #000000; stroke-width: 0.8"/>
      </g>
     </g>
     <g id="text_45">
      <!-- −0.10 -->
      <g transform="translate(34.354687 508.875907) scale(0.1 -0.1)">
       <use xlink:href="#DejaVuSans-2212"/>
       <use xlink:href="#DejaVuSans-30" x="83.789062"/>
       <use xlink:href="#DejaVuSans-2e" x="147.412109"/>
       <use xlink:href="#DejaVuSans-31" x="179.199219"/>
       <use xlink:href="#DejaVuSans-30" x="242.822266"/>
      </g>
     </g>
    </g>
    <g id="ytick_15">
     <g id="line2d_49">
      <g>
       <use xlink:href="#m02a66207da" x="72" y="483.225973" style="stroke: #000000; stroke-width: 0.8"/>
      </g>
     </g>
     <g id="text_46">
      <!-- −0.05 -->
      <g transform="translate(34.354687 487.025192) scale(0.1 -0.1)">
       <use xlink:href="#DejaVuSans-2212"/>
       <use xlink:href="#DejaVuSans-30" x="83.789062"/>
       <use xlink:href="#DejaVuSans-2e" x="147.412109"/>
       <use xlink:href="#DejaVuSans-30" x="179.199219"/>
       <use xlink:href="#DejaVuSans-35" x="242.822266"/>
      </g>
     </g>
    </g>
    <g id="ytick_16">
     <g id="line2d_50">
      <g>
       <use xlink:href="#m02a66207da" x="72" y="461.375258" style="stroke: #000000; stroke-width: 0.8"/>
      </g>
     </g>
     <g id="text_47">
      <!-- 0.00 -->
      <g transform="translate(42.734375 465.174476) scale(0.1 -0.1)">
       <use xlink:href="#DejaVuSans-30"/>
       <use xlink:href="#DejaVuSans-2e" x="63.623047"/>
       <use xlink:href="#DejaVuSans-30" x="95.410156"/>
       <use xlink:href="#DejaVuSans-30" x="159.033203"/>
      </g>
     </g>
    </g>
    <g id="ytick_17">
     <g id="line2d_51">
      <g>
       <use xlink:href="#m02a66207da" x="72" y="439.524542" style="stroke: #000000; stroke-width: 0.8"/>
      </g>
     </g>
     <g id="text_48">
      <!-- 0.05 -->
      <g transform="translate(42.734375 443.323761) scale(0.1 -0.1)">
       <use xlink:href="#DejaVuSans-30"/>
       <use xlink:href="#DejaVuSans-2e" x="63.623047"/>
       <use xlink:href="#DejaVuSans-30" x="95.410156"/>
       <use xlink:href="#DejaVuSans-35" x="159.033203"/>
      </g>
     </g>
    </g>
    <g id="text_49">
     <!-- Firing Rate -->
     <g transform="translate(28.275 530.084936) rotate(-90) scale(0.1 -0.1)">
      <defs>
       <path id="DejaVuSans-67" d="M 2906 1791 
Q 2906 2416 2648 2759 
Q 2391 3103 1925 3103 
Q 1463 3103 1205 2759 
Q 947 2416 947 1791 
Q 947 1169 1205 825 
Q 1463 481 1925 481 
Q 2391 481 2648 825 
Q 2906 1169 2906 1791 
z
M 3481 434 
Q 3481 -459 3084 -895 
Q 2688 -1331 1869 -1331 
Q 1566 -1331 1297 -1286 
Q 1028 -1241 775 -1147 
L 775 -588 
Q 1028 -725 1275 -790 
Q 1522 -856 1778 -856 
Q 2344 -856 2625 -561 
Q 2906 -266 2906 331 
L 2906 616 
Q 2728 306 2450 153 
Q 2172 0 1784 0 
Q 1141 0 747 490 
Q 353 981 353 1791 
Q 353 2603 747 3093 
Q 1141 3584 1784 3584 
Q 2172 3584 2450 3431 
Q 2728 3278 2906 2969 
L 2906 3500 
L 3481 3500 
L 3481 434 
z
" transform="scale(0.015625)"/>
      </defs>
      <use xlink:href="#DejaVuSans-46"/>
      <use xlink:href="#DejaVuSans-69" x="50.269531"/>
      <use xlink:href="#DejaVuSans-72" x="78.052734"/>
      <use xlink:href="#DejaVuSans-69" x="119.166016"/>
      <use xlink:href="#DejaVuSans-6e" x="146.949219"/>
      <use xlink:href="#DejaVuSans-67" x="210.328125"/>
      <use xlink:href="#DejaVuSans-20" x="273.804688"/>
      <use xlink:href="#DejaVuSans-52" x="305.591797"/>
      <use xlink:href="#DejaVuSans-61" x="372.824219"/>
      <use xlink:href="#DejaVuSans-74" x="434.103516"/>
      <use xlink:href="#DejaVuSans-65" x="473.3125"/>
     </g>
    </g>
   </g>
   <g id="line2d_52">
    <path d="M 92.290909 465.665587 
L 104.226738 460.880153 
L 116.162567 457.580034 
L 128.098396 460.442745 
L 140.034225 458.981757 
L 151.970053 459.718141 
L 163.905882 473.709565 
L 175.841711 486.65575 
L 187.77754 490.066864 
L 199.713369 492.710956 
L 211.649198 496.224538 
L 223.585027 499.814886 
L 235.520856 502.379389 
L 247.456684 503.311202 
L 259.392513 506.798445 
L 271.328342 508.430078 
L 283.264171 504.330577 
L 295.2 499.785379 
L 307.135829 499.017035 
L 319.071658 495.76931 
L 331.007487 494.036079 
L 342.943316 489.04275 
L 354.879144 479.463511 
L 366.814973 469.564356 
L 378.750802 472.149979 
L 390.686631 473.722046 
L 402.62246 467.123665 
L 414.558289 459.526271 
L 426.494118 454.88187 
L 438.429947 458.623067 
L 450.365775 464.680045 
L 462.301604 465.929681 
L 474.237433 458.751091 
L 486.173262 454.015418 
L 498.109091 451.40152 
" clip-path="url(#p1d6489fe92)" style="fill: none; stroke: #7f7f7f; stroke-width: 1.5; stroke-linecap: square"/>
   </g>
   <g id="line2d_53">
    <path d="M 92.290909 462.248472 
L 104.226738 462.463998 
L 116.162567 459.413303 
L 128.098396 472.226649 
L 140.034225 491.335326 
L 151.970053 500.981306 
L 163.905882 492.440893 
L 175.841711 495.088878 
L 187.77754 509.606974 
L 199.713369 520.239352 
L 211.649198 532.126765 
L 223.585027 540.616662 
L 235.520856 538.846828 
L 247.456684 531.905385 
L 259.392513 532.26122 
L 271.328342 536.31006 
L 283.264171 537.014858 
L 295.2 541.399363 
L 307.135829 546.642174 
L 319.071658 544.238309 
L 331.007487 536.057989 
L 342.943316 528.154756 
L 354.879144 527.860594 
L 366.814973 526.024203 
L 378.750802 521.624593 
L 390.686631 513.725565 
L 402.62246 504.63092 
L 414.558289 507.339751 
L 426.494118 510.84114 
L 438.429947 498.611798 
L 450.365775 486.744365 
L 462.301604 500.713539 
L 474.237433 503.498257 
L 486.173262 494.281377 
L 498.109091 487.51905 
" clip-path="url(#p1d6489fe92)" style="fill: none; stroke: #17becf; stroke-width: 1.5; stroke-linecap: square"/>
   </g>
   <g id="line2d_54"/>
   <g id="line2d_55"/>
   <g id="patch_10">
    <path d="M 72 576.72 
L 72 429.967059 
" style="fill: none; stroke: #000000; stroke-width: 0.8; stroke-linejoin: miter; stroke-linecap: square"/>
   </g>
   <g id="patch_11">
    <path d="M 72 576.72 
L 518.4 576.72 
" style="fill: none; stroke: #000000; stroke-width: 0.8; stroke-linejoin: miter; stroke-linecap: square"/>
   </g>
  </g>
 </g>
 <defs>
  <clipPath id="paeadde1489">
   <rect x="72" y="77.76" width="446.4" height="146.752941"/>
  </clipPath>
  <clipPath id="pf9f341d048">
   <rect x="72" y="253.863529" width="446.4" height="146.752941"/>
  </clipPath>
  <clipPath id="p1d6489fe92">
   <rect x="72" y="429.967059" width="446.4" height="146.752941"/>
  </clipPath>
 </defs>
</svg>
